<?xml version="1.0" encoding="UTF-8"?>
<svg width="206px" height="214px" viewBox="0 0 206 214" version="1.1" xmlns="http://www.w3.org/2000/svg" xmlns:xlink="http://www.w3.org/1999/xlink">
    <title>Artboard</title>
    <g id="Artboard" stroke="none" stroke-width="1" fill="none" fill-rule="evenodd">
        <polygon id="Fill-22-Copy-2" fill="#C56CF0" points="0.21 101.2 75.2178 101.2 75.2178 88.5486 0.21 88.5486"></polygon>
        <path d="M62.73,75.238 L62.72,37.619 C62.72,30.698 59.91,24.43 55.39,19.89 C50.86,15.351 44.61,12.54 37.71,12.54 C30.82,12.54 24.57,15.351 20.04,19.89 C15.52,24.43 12.71,30.698 12.71,37.619 C12.71,44.539 15.52,50.808 20.04,55.347 C24.57,59.887 30.82,62.698 37.71,62.698 L37.73,62.698 C44.63,62.698 50.23,68.312 50.23,75.238 L37.71,75.238 C17.02,75.238 0.21,58.381 0.21,37.619 C0.21,16.856 17.02,-1.22213351e-12 37.71,-1.22213351e-12 C58.41,-1.22213351e-12 75.22,16.856 75.22,37.619 L75.22,75.238 L62.73,75.238 Z" id="Fill-23-Copy-2" fill="#FFFFFF"></path>
        <path d="M27.984,201.71 L27.984,194.926 L7.685,194.926 L7.685,164.61 L2.27373675e-13,164.61 L2.27373675e-13,201.71 L27.984,201.71 Z M29.892,213.105 C35.934,213.105 39.273,210.561 42.135,203.883 L54.855,174.097 L47.011,174.097 L39.167,192.912 L32.33,174.097 L24.327,174.097 L35.086,201.975 L34.662,202.982 C33.602,205.473 31.8,206.745 29.203,206.745 C28.09,206.745 27.401,206.692 26.659,206.533 L26.659,212.787 C27.401,212.999 28.62,213.105 29.892,213.105 Z M64.978,201.71 L64.978,183.849 C66.356,181.146 68.847,179.715 71.656,179.715 C72.981,179.715 74.306,179.98 75.366,180.457 L75.366,174.097 C74.624,173.673 73.776,173.514 72.345,173.461 C69.271,173.461 66.727,174.733 64.978,177.118 L64.978,174.097 L57.717,174.097 L57.717,201.71 L64.978,201.71 Z M82.892,170.811 C85.171,170.811 87.026,168.956 87.026,166.677 C87.026,164.398 85.171,162.543 82.892,162.543 C80.613,162.543 78.758,164.398 78.758,166.677 C78.758,168.956 80.613,170.811 82.892,170.811 Z M86.549,201.71 L86.549,174.097 L79.288,174.097 L79.288,201.71 L86.549,201.71 Z M105.417,202.24 C109.657,202.24 113.791,200.438 116.653,197.311 L112.307,192.806 C110.346,194.926 108.226,195.88 105.735,195.88 C101.442,195.88 98.156,192.488 98.156,187.93 C98.156,183.372 101.389,179.874 105.576,179.874 C108.173,179.874 110.399,180.987 112.413,183.213 L116.865,178.496 C114.003,175.369 109.816,173.567 105.417,173.567 C97.255,173.567 90.948,179.874 90.948,187.93 C90.948,195.986 97.255,202.24 105.417,202.24 Z M132.818,202.24 C141.086,202.24 147.552,195.986 147.552,187.93 C147.552,179.874 141.086,173.567 132.818,173.567 C124.55,173.567 118.084,179.874 118.084,187.93 C118.084,195.986 124.55,202.24 132.818,202.24 Z M132.818,195.933 C128.525,195.933 125.186,192.382 125.186,187.93 C125.186,183.372 128.578,179.874 132.818,179.874 C137.111,179.874 140.45,183.372 140.45,187.93 C140.45,192.382 137.111,195.933 132.818,195.933 Z M166.95,201.71 L178.822,174.097 L171.084,174.097 L163.558,192.488 L155.979,174.097 L148.082,174.097 L159.954,201.71 L166.95,201.71 Z M190.429,202.187 C193.609,202.187 196.1,201.445 198.432,199.802 L198.432,201.71 L205.587,201.71 L205.587,183.796 C205.587,177.277 201.294,173.567 193.821,173.567 C189.846,173.567 185.871,174.521 181.525,176.535 L184.175,181.888 C187.673,180.351 190.27,179.609 192.602,179.609 C196.471,179.609 198.432,181.252 198.432,184.432 L198.432,186.393 C196.259,185.704 193.98,185.333 191.701,185.333 C184.599,185.333 180.359,188.46 180.359,193.707 C180.359,198.742 184.493,202.187 190.429,202.187 Z M192.337,196.993 C189.263,196.993 187.302,195.668 187.302,193.548 C187.302,191.428 189.263,190.103 192.602,190.103 C194.722,190.103 196.63,190.421 198.432,191.11 L198.432,195.244 C196.736,196.41 194.722,196.993 192.337,196.993 Z" id="Lyricova" fill="#C56CF0" fill-rule="nonzero"></path>
        <path d="M6.075,144.71 L6.075,125.81 L4.374,125.81 L-4.26325641e-14,127.646 L-4.26325641e-14,130.022 L3.402,128.591 L3.402,144.71 L6.075,144.71 Z M10.773,144.71 L12.987,139.175 L21.438,139.175 L23.625,144.71 L26.703,144.71 L18.981,125.81 L15.66,125.81 L7.83,144.71 L10.773,144.71 Z M20.52,136.826 L13.932,136.826 L17.226,128.537 L20.52,136.826 Z M40.824,144.71 L40.824,142.415 L31.428,142.415 L36.747,137.501 C39.663,134.774 40.527,133.289 40.527,131.102 C40.527,127.862 37.854,125.567 34.02,125.567 C31.617,125.567 29.376,126.485 27.27,128.375 L28.809,130.211 C30.699,128.537 32.13,127.889 33.966,127.889 C36.234,127.889 37.908,129.293 37.908,131.264 C37.908,132.776 37.206,133.91 35.019,135.989 L27.729,142.766 L27.729,144.71 L40.824,144.71 Z M49.41,144.98 C53.568,144.98 56.565,142.685 56.565,139.499 C56.565,137.42 55.08,135.773 52.785,135.098 C54.702,134.207 55.863,132.614 55.863,130.697 C55.863,127.673 53.136,125.513 49.356,125.513 C46.737,125.513 44.334,126.539 42.471,128.402 L44.28,130.13 C45.954,128.483 47.331,127.862 49.302,127.862 C51.516,127.862 53.19,129.158 53.19,130.886 C53.19,132.776 51.543,134.18 49.329,134.18 L47.898,134.18 L47.898,136.367 L49.545,136.367 C52.137,136.367 53.838,137.582 53.838,139.364 C53.838,141.308 52.029,142.658 49.383,142.658 C47.196,142.658 45.657,142.037 44.064,140.498 L42.255,142.199 C44.064,144.008 46.602,144.98 49.41,144.98 Z M71.766,144.98 C76.275,144.98 79.299,142.658 79.299,139.175 C79.299,136.232 77.49,134.585 73.494,133.937 L70.443,133.451 C68.013,133.046 67.068,132.317 67.068,130.778 C67.068,129.104 68.715,127.97 71.172,127.97 C73.278,127.97 75.303,128.726 77.355,130.292 L78.921,128.132 C76.788,126.485 74.007,125.567 71.307,125.567 C67.095,125.567 64.341,127.7 64.341,130.994 C64.341,133.721 66.042,135.341 69.498,135.908 L72.657,136.421 C75.411,136.88 76.491,137.717 76.491,139.391 C76.491,141.254 74.628,142.55 71.901,142.55 C69.552,142.55 67.446,141.578 65.394,139.58 L63.666,141.578 C65.826,143.765 68.742,144.98 71.766,144.98 Z M86.94,144.953 C87.75,144.953 88.776,144.791 89.505,144.548 L89.505,142.28 C88.83,142.523 88.29,142.604 87.534,142.604 C86.076,142.604 85.509,142.091 85.509,140.687 L85.509,133.235 L89.559,133.235 L89.559,130.967 L85.509,130.967 L85.509,126.809 L82.836,127.457 L82.836,130.967 L79.92,130.967 L79.92,133.235 L82.836,133.235 L82.836,141.308 C82.836,143.684 84.267,144.953 86.94,144.953 Z M96.849,144.98 C98.523,144.98 99.9,144.413 100.98,143.333 L100.98,144.71 L103.68,144.71 L103.68,130.967 L100.98,130.967 L100.98,140.822 C100.224,141.983 99.063,142.631 97.605,142.631 C95.526,142.631 94.203,141.281 94.203,139.121 L94.203,130.967 L91.503,130.967 L91.503,139.58 C91.503,142.766 93.69,144.98 96.849,144.98 Z M113.184,144.926 C114.777,144.926 116.235,144.386 117.396,143.414 L117.396,144.71 L120.069,144.71 L120.069,125.216 L117.369,125.81 L117.369,132.101 C116.181,131.237 114.75,130.751 113.238,130.751 C109.296,130.751 106.245,133.856 106.245,137.825 C106.245,141.821 109.296,144.926 113.184,144.926 Z M113.562,142.577 C110.916,142.577 108.891,140.498 108.891,137.798 C108.891,135.098 110.916,133.073 113.562,133.073 C115.074,133.073 116.478,133.667 117.369,134.693 L117.369,140.93 C116.451,141.983 115.101,142.577 113.562,142.577 Z M124.605,128.753 C125.523,128.753 126.279,127.997 126.279,127.079 C126.279,126.161 125.523,125.405 124.605,125.405 C123.687,125.405 122.958,126.161 122.958,127.079 C122.958,127.997 123.687,128.753 124.605,128.753 Z M125.955,144.71 L125.955,130.967 L123.255,130.967 L123.255,144.71 L125.955,144.71 Z M135.675,144.98 C139.671,144.98 142.803,141.848 142.803,137.825 C142.803,133.829 139.671,130.697 135.675,130.697 C131.679,130.697 128.52,133.829 128.52,137.825 C128.52,141.848 131.679,144.98 135.675,144.98 Z M135.675,142.604 C133.137,142.604 131.166,140.498 131.166,137.825 C131.166,135.152 133.164,133.073 135.675,133.073 C138.159,133.073 140.157,135.152 140.157,137.825 C140.157,140.498 138.159,142.604 135.675,142.604 Z" id="1A23Studio" fill="#FFFFFF" fill-rule="nonzero"></path>
    </g>
</svg>