<svg width="55" height="71" viewBox="0 0 55 71" fill="none" xmlns="http://www.w3.org/2000/svg">
  <path fill-rule="evenodd" clip-rule="evenodd" d="M0.5 71H54.4946V62.1249H0.5V71Z" fill="#C56CF0"/>
  <path d="M45.5077 53.2578L45.5002 26.6289C45.5002 21.7298 43.4822 17.2923 40.2242 14.0795C36.9662 10.8667 32.467 8.87511 27.5002 8.87511C22.533 8.87511 18.0338 10.8667 14.7758 14.0795C11.5178 17.2923 9.49982 21.7298 9.49982 26.6289C9.49982 31.528 11.5178 35.9655 14.7758 39.1783C18.0338 42.3911 22.533 44.3791 27.5002 44.3791H27.5077C32.4785 44.3791 36.5079 48.3552 36.5079 53.2578H27.5002C12.5984 53.2578 0.5 41.3261 0.5 26.6289C0.5 11.9317 12.5984 0 27.5002 0C42.402 0 54.5 11.9317 54.5 26.6289V53.2578H45.5077Z" fill="white"/>
  </svg>
  