<svg width="384" height="156" viewBox="0 0 384 156" fill="none" xmlns="http://www.w3.org/2000/svg">
<g clip-path="url(#clip0_22_6)">
<path d="M30.1309 5C28.1146 5 26.1882 5.3238 24.3125 5.77148L17.8574 5.45508H17.5293C11.5987 5.45508 6.69922 9.81446 6.69922 16.2441L6.71289 15.7266L5 48.7715V49.0312C5 53.9606 9.91568 59.4843 14.9961 59.9082L15.1504 59.9219L15.6543 59.9492L13 110.482V110.744C13 116.516 17.7589 122.114 23.8887 122.586L24.0332 122.598L39.3926 123.336H39.6621L57.8066 124.271H58.207C58.4544 124.271 58.647 124.154 58.8887 124.141L58.1504 125.236L58.3066 125.012C57.2154 126.539 55.8672 128.973 55.8672 132.336C55.8672 135.029 57.1526 138.155 58.8438 140.021C60.5349 141.888 62.2701 142.763 63.7363 143.35L63.793 143.371L74.2891 147.424L73.9512 147.287C75.6102 147.998 77.4743 148.385 79.1875 148.385C83.3895 148.385 87.3074 145.549 88.8184 143.887L88.9844 143.705L89.1406 143.514C90.4766 141.89 91.1598 140.858 92.4023 139.316C92.5229 140.922 92.9007 142.505 93.7227 143.934C95.1683 146.446 97.5574 148.274 100.34 149.02C103.134 149.768 106.082 149.376 108.574 147.947L108.588 147.941L109.777 147.254L109.781 147.252C110.545 146.81 111.183 146.206 111.85 145.637L114.707 147.521C115.19 148.815 115.964 150.202 117.35 151.633L117.373 151.656L117.397 151.679C120.105 154.439 124.356 155.351 127.02 155.109C127.659 155.051 128.483 154.637 129.234 154.414C130.02 154.499 130.909 154.756 131.555 154.697C132.103 154.647 132.818 154.271 133.453 154.099C133.981 154.15 134.537 154.353 135.025 154.312L135.066 154.308L135.555 154.263H135.557C135.881 154.236 136.191 154.027 136.518 153.961C137.321 154.023 138.125 154.1 138.975 154.023C139.489 153.977 140.159 153.721 140.758 153.586C140.831 153.593 140.908 153.641 140.981 153.646L141 153.648L141.02 153.65C141.791 153.702 142.578 153.695 143.373 153.623H143.375H143.379C145.158 153.461 147.37 152.589 149.322 151.256C149.906 151.296 150.454 151.508 151.051 151.453L172.944 149.463C175.857 151.929 179.508 153.493 183.483 153.5H183.494H183.506C188.596 153.497 193.251 151.099 196.309 147.338L283.043 139.453H283.045C284.051 139.361 284.934 138.94 285.848 138.597C287.35 138.986 288.861 139.214 290.02 139.109C290.447 139.07 291.016 138.757 291.5 138.644C292.441 138.74 293.396 138.802 294.358 138.715C295.038 138.653 295.898 138.359 296.713 138.135C297.15 138.165 297.618 138.347 298.026 138.312L298.067 138.308L298.555 138.263H298.557C298.881 138.236 299.191 138.027 299.518 137.961C300.322 138.023 301.125 138.1 301.975 138.023C302.489 137.977 303.159 137.721 303.758 137.586C303.831 137.593 303.909 137.641 303.981 137.646L304 137.648L304.02 137.65C304.791 137.702 305.578 137.695 306.373 137.623H306.375H306.379C308.611 137.42 311.574 136.193 313.77 134.195C314.565 135.474 315.504 136.504 316.334 137.174C318.246 138.716 320.018 139.535 322.758 139.773H322.762L365.192 143.435C367.684 143.651 369.565 143.257 371.741 142.113C373.918 140.968 377.185 138.26 377.608 133.431V133.427L378.395 124.431L378.393 124.439C378.602 122.072 378.031 120.086 377.176 118.474C377.182 118.463 377.192 118.45 377.198 118.439L377.229 118.381L381.746 109.566L381.768 109.521C382.221 108.614 383.039 107.824 383.039 104.4C383.039 100.375 380.54 97.1648 379.002 95.867C378.761 95.6637 378.746 95.7278 378.532 95.5663C378.478 95.1668 378.432 95.1215 378.432 94.2479C378.432 90.9095 379.316 84.7961 380.33 78.201L380.448 77.4452V76.3202C380.448 73.9475 379.516 70.4904 377.034 68.0077C374.551 65.5249 371.359 64.5998 368.84 64.4061L356.049 63.2967H355.526C356.208 62.6984 356.966 62.1646 357.436 61.4237L356.801 62.3104L357.205 61.8045L357.489 61.3651C359.21 58.6803 359.818 56.1053 360.059 54.1502C360.179 53.1727 360.205 52.3333 360.19 51.6131C360.174 50.8929 360.468 51.5415 359.893 49.0545C359.225 46.1667 357.077 43.7472 354.998 42.3104C355.085 42.0519 355.194 41.8771 355.272 41.5897L355.278 41.5643L355.284 41.5409C356.444 37.1603 354.551 33.4462 352.493 31.4041L352.924 31.8592L352.754 31.6678L351.233 30.0663L351.491 30.3475C349.953 28.598 348.335 27.6049 346.129 27.0135C345.868 26.9433 345.265 26.7736 344.315 26.6873C343.962 26.6553 343.526 26.7945 343.139 26.8123C342.026 25.9877 340.747 25.3549 339.342 24.9784L333.629 23.4471C332.933 23.2604 332.154 23.1309 331.358 23.0956C327.706 22.9332 324.573 24.0839 322.491 26.9178C318.892 27.5302 315.047 30.0191 313.526 34.0526L312.061 37.8241L307.206 37.9862C304.969 34.5442 301.302 32.1458 297.481 31.8221L297.448 31.8201L283.325 30.7186H282.885C282.768 30.7186 282.657 30.786 282.54 30.7908C282.394 30.6197 282.239 30.3598 282.102 30.2283L282.077 30.2029L282.051 30.1795C281.407 29.5709 280.965 29.3831 280.409 28.9646C279.98 24.8926 277.2 20.7762 272.946 19.6365L272.659 19.5604C271.589 17.9226 270.226 16.5639 268.823 15.7342C266.429 14.3193 264.108 13.7675 261.167 14.1697H261.161L259.286 14.4217C258.434 14.1041 257.48 13.8382 256.295 13.7635C255.037 13.6841 254.096 13.844 253.5 13.9705H253.496L253.49 13.9725C251.172 14.4681 249.571 15.6926 248.442 16.8006C248.232 16.572 248.05 16.1536 247.844 15.9823L247.465 15.6678L247.604 15.7616L246.641 14.8807L246.153 14.5311C245.467 14.0409 243.338 12.5038 239.936 12.5038C239.602 12.5038 238.968 12.6803 238.467 12.7635C238.168 12.7406 237.944 12.6112 237.631 12.6112H236.959L236.348 12.6874L234.742 12.8846L234.465 12.9354C234.023 13.0156 233.296 13.1662 232.403 13.5174C232.138 13.5096 232.178 13.4647 231.856 13.4647C230.184 13.4037 228.627 13.884 227.108 14.5135C226.079 15.0393 225.461 15.6106 225.199 15.8143L225.112 15.8827L223.365 17.3065L223.391 17.1249L220.502 17.6073C217.749 15.0609 214.847 13.2954 211.039 13.0331C208.092 13.0331 205.428 14.2769 203.227 16.0702L197.426 16.5624L197.352 16.5683C191.861 17.1174 188 20.6916 188 26.8828V27.3633L188.314 30.8867L188.316 30.918C188.578 33.6694 190.54 36.3876 193.088 38.2168C193.12 40.342 194.118 43.1442 195.555 44.8125C196.106 45.4528 196.617 45.8323 197.123 46.2188L197.484 48.3477C193.589 43.9982 188.829 39.5051 183.094 34.9531C182.77 34.6951 181.396 33.3394 178.479 32.6465C177.863 32.5003 177.275 32.5268 176.674 32.4844C176.331 29.9928 175.214 27.6846 173.348 25.9414C173.119 24.1553 172.575 22.0853 170.881 20.1387C168.683 17.6131 165.353 16.5206 163.143 16.3906L163.086 16.3867L154.959 16H154.555C151.58 16 146.875 18.2714 145.068 21.1836C144.132 22.6924 143.736 23.9171 143.555 24.832C141.362 26.6661 139.802 29.231 139.539 32.0879L139.529 32.1875L139.388 34.125C138.818 34.1599 138.254 34.1705 137.679 34.2402C137.347 33.4481 137.04 32.6647 136.554 31.8105C133.758 26.8888 126.749 22 118.639 22C116.341 22 114.147 22.3759 112.023 22.9102C109.556 17.1428 103.803 13 97.2129 13C89.6036 13 83.0616 18.5617 81.4648 25.7617C79.6099 25.3013 77.6854 25 75.6797 25C74.9457 25 74.2105 25.1114 73.4746 25.1699C73.069 23.8642 72.4431 22.5247 71.4805 21.3828C69.6368 19.1959 67.3415 18.2194 65.7422 17.793L65.5566 17.7422L65.3691 17.7012C63.3903 17.2543 61.2928 17 59.1035 17C56.7238 17 54.3204 17.3839 51.9297 17.9551C47.6879 10.0858 39.11 5 30.1309 5Z" fill="#C56CF0"/>
<path d="M25.1309 0C23.1146 0 21.1882 0.323796 19.3125 0.771484L12.8574 0.455078H12.5293C6.5987 0.455078 1.69922 4.81446 1.69922 11.2441L1.71289 10.7266L0 43.7715V44.0312C0 48.9606 4.91568 54.4843 9.99609 54.9082L10.1504 54.9219L10.6543 54.9492L8 105.482V105.744C8 111.516 12.7589 117.114 18.8887 117.586L19.0332 117.598L34.3926 118.336H34.6621L52.8066 119.271H53.207C53.4544 119.271 53.647 119.154 53.8887 119.141L53.1504 120.236L53.3066 120.012C52.2154 121.539 50.8672 123.973 50.8672 127.336C50.8672 130.029 52.1526 133.155 53.8438 135.021C55.5349 136.888 57.2701 137.763 58.7363 138.35L58.793 138.371L69.2891 142.424L68.9512 142.287C70.6102 142.998 72.4743 143.385 74.1875 143.385C78.3895 143.385 82.3074 140.549 83.8184 138.887L83.9844 138.705L84.1406 138.514C85.4766 136.89 86.1598 135.858 87.4023 134.316C87.5229 135.922 87.9007 137.505 88.7227 138.934C90.1683 141.446 92.5574 143.274 95.3398 144.02C98.1337 144.768 101.082 144.376 103.574 142.947L103.588 142.941L104.777 142.254L104.781 142.252C105.545 141.81 106.183 141.206 106.85 140.637L109.707 142.521C110.19 143.815 110.964 145.202 112.35 146.633L112.373 146.656L112.397 146.679C115.105 149.439 119.356 150.351 122.02 150.109C122.659 150.051 123.483 149.637 124.234 149.414C125.02 149.499 125.909 149.756 126.555 149.697C127.103 149.647 127.818 149.271 128.453 149.099C128.981 149.15 129.537 149.353 130.025 149.312L130.066 149.308L130.555 149.263H130.557C130.881 149.236 131.191 149.027 131.518 148.961C132.321 149.023 133.125 149.1 133.975 149.023C134.489 148.977 135.159 148.721 135.758 148.586C135.831 148.593 135.908 148.641 135.981 148.646L136 148.648L136.02 148.65C136.791 148.702 137.578 148.695 138.373 148.623H138.375H138.379C140.158 148.461 142.37 147.589 144.322 146.256C144.906 146.296 145.454 146.508 146.051 146.453L167.944 144.463C170.857 146.929 174.508 148.493 178.483 148.5H178.494H178.506C183.596 148.497 188.251 146.099 191.309 142.338L278.043 134.453H278.045C279.051 134.361 279.934 133.94 280.848 133.597C282.35 133.986 283.861 134.214 285.02 134.109C285.447 134.07 286.016 133.757 286.5 133.644C287.441 133.74 288.396 133.802 289.358 133.715C290.038 133.653 290.898 133.359 291.713 133.135C292.15 133.165 292.618 133.347 293.026 133.312L293.067 133.308L293.555 133.263H293.557C293.881 133.236 294.191 133.027 294.518 132.961C295.322 133.023 296.125 133.1 296.975 133.023C297.489 132.977 298.159 132.721 298.758 132.586C298.831 132.593 298.909 132.641 298.981 132.646L299 132.648L299.02 132.65C299.791 132.702 300.578 132.695 301.373 132.623H301.375H301.379C303.611 132.42 306.574 131.193 308.77 129.195C309.565 130.474 310.504 131.504 311.334 132.174C313.246 133.716 315.018 134.535 317.758 134.773H317.762L360.192 138.435C362.684 138.651 364.565 138.257 366.741 137.113C368.918 135.968 372.185 133.26 372.608 128.431V128.427L373.395 119.431L373.393 119.439C373.602 117.072 373.031 115.086 372.176 113.474C372.182 113.463 372.192 113.45 372.198 113.439L372.229 113.381L376.746 104.566L376.768 104.521C377.221 103.614 378.039 102.824 378.039 99.4002C378.039 95.3749 375.54 92.1648 374.002 90.867C373.761 90.6637 373.746 90.7278 373.532 90.5663C373.478 90.1668 373.432 90.1215 373.432 89.2479C373.432 85.9095 374.316 79.7961 375.33 73.201L375.448 72.4452V71.3202C375.448 68.9475 374.516 65.4904 372.034 63.0077C369.551 60.5249 366.359 59.5998 363.84 59.4061L351.049 58.2967H350.526C351.208 57.6984 351.966 57.1646 352.436 56.4237L351.801 57.3104L352.205 56.8045L352.489 56.3651C354.21 53.6803 354.818 51.1053 355.059 49.1502C355.179 48.1727 355.205 47.3333 355.19 46.6131C355.174 45.8929 355.468 46.5415 354.893 44.0545C354.225 41.1667 352.077 38.7472 349.998 37.3104C350.085 37.0519 350.194 36.8771 350.272 36.5897L350.278 36.5643L350.284 36.5409C351.444 32.1603 349.551 28.4462 347.493 26.4041L347.924 26.8592L347.754 26.6678L346.233 25.0663L346.491 25.3475C344.953 23.598 343.335 22.6049 341.129 22.0135C340.868 21.9433 340.265 21.7736 339.315 21.6873C338.962 21.6553 338.526 21.7945 338.139 21.8123C337.026 20.9877 335.747 20.3549 334.342 19.9784L328.629 18.4471C327.933 18.2604 327.154 18.1309 326.358 18.0956C322.706 17.9332 319.573 19.0839 317.491 21.9178C313.892 22.5302 310.047 25.0191 308.526 29.0526L307.061 32.8241L302.206 32.9862C299.969 29.5442 296.302 27.1458 292.481 26.8221L292.448 26.8201L278.325 25.7186H277.885C277.768 25.7186 277.657 25.786 277.54 25.7908C277.394 25.6197 277.239 25.3598 277.102 25.2283L277.077 25.2029L277.051 25.1795C276.407 24.5709 275.965 24.3831 275.409 23.9646C274.98 19.8926 272.2 15.7762 267.946 14.6365L267.659 14.5604C266.589 12.9226 265.226 11.5639 263.823 10.7342C261.429 9.31925 259.108 8.76755 256.167 9.16973H256.161L254.286 9.42168C253.434 9.1041 252.48 8.83817 251.295 8.76348C250.037 8.68415 249.096 8.84401 248.5 8.97051H248.496L248.49 8.97251C246.172 9.46806 244.571 10.6926 243.442 11.8006C243.232 11.572 243.05 11.1536 242.844 10.9823L242.465 10.6678L242.604 10.7616L241.641 9.88071L241.153 9.53111C240.467 9.04091 238.338 7.50376 234.936 7.50376C234.602 7.50376 233.968 7.68034 233.467 7.76353C233.168 7.74062 232.944 7.61118 232.631 7.61118H231.959L231.348 7.68735L229.742 7.88462L229.465 7.9354C229.023 8.01562 228.296 8.16615 227.403 8.51743C227.138 8.50963 227.178 8.4647 226.856 8.4647C225.184 8.40366 223.627 8.88402 222.108 9.51353C221.079 10.0393 220.461 10.6106 220.199 10.8143L220.112 10.8827L218.365 12.3065L218.391 12.1249L215.502 12.6073C212.749 10.0609 209.847 8.29538 206.039 8.03306C203.092 8.03306 200.428 9.27686 198.227 11.0702L192.426 11.5624L192.352 11.5683C186.861 12.1174 183 15.6916 183 21.8828V22.3633L183.314 25.8867L183.316 25.918C183.578 28.6694 185.54 31.3876 188.088 33.2168C188.12 35.342 189.118 38.1442 190.555 39.8125C191.106 40.4528 191.617 40.8323 192.123 41.2188L192.484 43.3477C188.589 38.9982 183.829 34.5051 178.094 29.9531C177.77 29.6951 176.396 28.3394 173.479 27.6465C172.863 27.5003 172.275 27.5268 171.674 27.4844C171.331 24.9928 170.214 22.6846 168.348 20.9414C168.119 19.1553 167.575 17.0853 165.881 15.1387C163.683 12.6131 160.353 11.5206 158.143 11.3906L158.086 11.3867L149.959 11H149.555C146.58 11 141.875 13.2714 140.068 16.1836C139.132 17.6924 138.736 18.9171 138.555 19.832C136.362 21.6661 134.802 24.231 134.539 27.0879L134.529 27.1875L134.388 29.125C133.818 29.1599 133.254 29.1705 132.679 29.2402C132.347 28.4481 132.04 27.6647 131.554 26.8105C128.758 21.8888 121.749 17 113.639 17C111.341 17 109.147 17.3759 107.023 17.9102C104.556 12.1428 98.8027 8 92.2129 8C84.6036 8 78.0616 13.5617 76.4648 20.7617C74.6099 20.3013 72.6854 20 70.6797 20C69.9457 20 69.2105 20.1114 68.4746 20.1699C68.069 18.8642 67.4431 17.5247 66.4805 16.3828C64.6368 14.1959 62.3415 13.2194 60.7422 12.793L60.5566 12.7422L60.3691 12.7012C58.3903 12.2543 56.2928 12 54.1035 12C51.7238 12 49.3204 12.3839 46.9297 12.9551C42.6879 5.08584 34.11 0 25.1309 0Z" fill="white"/>
<path d="M361.051 127.473L318.625 123.811C317.936 123.751 317.104 123.177 317.16 122.531L317.952 113.481C318.004 112.884 318.861 112.458 319.549 112.519L362.03 116.285C362.718 116.345 363.488 116.914 363.431 117.56L362.644 126.56C362.592 127.157 361.739 127.533 361.051 127.473Z" fill="#38D1C4"/>
<path d="M145 134L277 122" stroke="#F75296" stroke-width="3" stroke-linecap="round"/>
<circle cx="178.5" cy="131" r="6.5" fill="#8A52F7" stroke="white" stroke-width="2"/>
<path d="M121.371 135.148C121.218 134.905 121.001 134.795 120.723 134.821C120.444 134.846 120.249 134.993 120.137 135.261C120.03 135.528 120.005 135.978 120.063 136.61C120.12 137.242 120.225 137.68 120.379 137.924C120.537 138.167 120.755 138.276 121.034 138.251C121.313 138.225 121.506 138.079 121.613 137.812C121.724 137.544 121.751 137.094 121.694 136.462C121.637 135.83 121.529 135.392 121.371 135.148ZM122.58 138.398C122.287 138.837 121.799 139.088 121.116 139.15C120.433 139.212 119.905 139.054 119.533 138.675C119.166 138.296 118.941 137.644 118.857 136.719C118.773 135.795 118.877 135.113 119.17 134.674C119.467 134.234 119.958 133.984 120.641 133.921C121.324 133.859 121.849 134.018 122.216 134.397C122.588 134.776 122.816 135.427 122.9 136.352C122.984 137.277 122.877 137.959 122.58 138.398ZM125.905 134.737C125.752 134.493 125.535 134.384 125.257 134.409C124.978 134.434 124.783 134.581 124.671 134.849C124.564 135.116 124.539 135.566 124.597 136.198C124.654 136.83 124.76 137.268 124.913 137.512C125.071 137.755 125.289 137.864 125.568 137.839C125.847 137.814 126.04 137.667 126.147 137.4C126.258 137.132 126.285 136.682 126.228 136.05C126.171 135.418 126.063 134.98 125.905 134.737ZM127.114 137.987C126.821 138.426 126.333 138.676 125.65 138.738C124.967 138.8 124.439 138.642 124.067 138.263C123.7 137.884 123.475 137.232 123.391 136.308C123.307 135.383 123.411 134.701 123.704 134.262C124.001 133.822 124.492 133.572 125.175 133.51C125.858 133.448 126.383 133.606 126.75 133.985C127.122 134.364 127.35 135.015 127.434 135.94C127.518 136.865 127.411 137.547 127.114 137.987ZM128.949 135.718C128.842 135.728 128.746 135.699 128.66 135.632C128.574 135.56 128.526 135.471 128.516 135.364L128.467 134.827C128.458 134.72 128.489 134.624 128.561 134.538C128.632 134.451 128.722 134.403 128.829 134.394L129.358 134.346C129.465 134.336 129.562 134.367 129.648 134.439C129.734 134.511 129.782 134.6 129.792 134.707L129.841 135.244C129.85 135.351 129.819 135.447 129.747 135.533C129.675 135.615 129.586 135.66 129.479 135.67L128.949 135.718ZM129.188 138.347C129.081 138.356 128.984 138.325 128.898 138.253C128.812 138.181 128.764 138.092 128.754 137.985L128.706 137.455C128.696 137.349 128.727 137.252 128.799 137.166C128.871 137.08 128.96 137.032 129.067 137.022L129.597 136.974C129.704 136.964 129.801 136.995 129.887 137.067C129.973 137.139 130.021 137.228 130.031 137.335L130.079 137.865C130.088 137.972 130.057 138.068 129.986 138.155C129.914 138.241 129.824 138.289 129.717 138.298L129.188 138.347ZM131.541 133.965C131.434 133.974 131.337 133.943 131.251 133.872C131.165 133.8 131.117 133.71 131.107 133.603L131.093 133.443C131.083 133.336 131.114 133.24 131.186 133.153C131.258 133.067 131.347 133.019 131.454 133.01L134.054 132.773C134.161 132.764 134.258 132.795 134.344 132.867C134.43 132.938 134.478 133.028 134.488 133.135L134.502 133.295C134.526 133.56 134.444 133.785 134.254 133.971L133.281 134.938L133.281 134.945C133.282 134.95 133.284 134.952 133.289 134.952L133.373 134.944C133.777 134.907 134.111 135.003 134.376 135.232C134.645 135.461 134.799 135.789 134.838 136.217C134.887 136.756 134.759 137.184 134.456 137.503C134.152 137.821 133.691 138.008 133.073 138.064C132.701 138.098 132.32 138.088 131.931 138.034C131.817 138.016 131.719 137.964 131.636 137.878C131.557 137.787 131.513 137.681 131.502 137.56L131.48 137.323C131.472 137.23 131.502 137.155 131.572 137.097C131.646 137.034 131.731 137.012 131.826 137.031C132.238 137.125 132.592 137.159 132.89 137.132C133.159 137.107 133.363 137.025 133.5 136.886C133.637 136.747 133.696 136.566 133.676 136.343C133.655 136.116 133.554 135.963 133.374 135.886C133.194 135.808 132.868 135.789 132.399 135.827C132.292 135.836 132.195 135.808 132.11 135.741C132.023 135.669 131.975 135.579 131.966 135.472L131.964 135.458C131.941 135.198 132.021 134.973 132.205 134.783L133.117 133.836L133.117 133.829C133.116 133.824 133.114 133.822 133.109 133.822L131.541 133.965ZM137.391 133.265C137.135 133.288 136.94 133.383 136.805 133.55C136.675 133.716 136.622 133.934 136.647 134.204C136.676 134.524 136.77 134.76 136.929 134.909C137.088 135.059 137.297 135.122 137.558 135.098C137.813 135.075 138.005 134.973 138.134 134.793C138.268 134.612 138.32 134.366 138.292 134.054C138.269 133.794 138.173 133.592 138.005 133.448C137.837 133.304 137.633 133.243 137.391 133.265ZM137.386 135.915C136.833 135.965 136.394 135.855 136.069 135.585C135.75 135.314 135.564 134.895 135.513 134.328C135.464 133.793 135.6 133.355 135.92 133.012C136.245 132.664 136.709 132.462 137.313 132.407C137.941 132.35 138.441 132.494 138.814 132.84C139.193 133.185 139.415 133.725 139.482 134.459C139.663 136.458 138.994 137.526 137.474 137.664C137.219 137.687 136.957 137.69 136.688 137.672C136.575 137.664 136.477 137.619 136.394 137.537C136.316 137.451 136.272 137.349 136.261 137.233L136.25 137.108C136.241 137.01 136.274 136.93 136.348 136.867C136.421 136.799 136.508 136.773 136.607 136.787C136.878 136.823 137.127 136.831 137.355 136.81C137.708 136.778 137.975 136.653 138.157 136.435C138.343 136.217 138.428 135.914 138.412 135.527C138.411 135.522 138.409 135.52 138.404 135.52L138.397 135.521C138.155 135.744 137.818 135.876 137.386 135.915Z" fill="#F652F7"/>
<path d="M284.371 119.148C284.218 118.905 284.001 118.795 283.723 118.821C283.444 118.846 283.249 118.993 283.137 119.261C283.03 119.528 283.005 119.978 283.063 120.61C283.12 121.242 283.225 121.68 283.379 121.924C283.537 122.167 283.755 122.276 284.034 122.251C284.313 122.225 284.506 122.079 284.613 121.812C284.724 121.544 284.751 121.094 284.694 120.462C284.637 119.83 284.529 119.392 284.371 119.148ZM285.58 122.398C285.287 122.837 284.799 123.088 284.116 123.15C283.433 123.212 282.905 123.054 282.533 122.675C282.166 122.296 281.941 121.644 281.857 120.719C281.773 119.795 281.877 119.113 282.17 118.674C282.467 118.234 282.958 117.984 283.641 117.921C284.324 117.859 284.849 118.018 285.216 118.397C285.588 118.776 285.816 119.427 285.9 120.352C285.984 121.277 285.877 121.959 285.58 122.398ZM286.923 118.657C286.816 118.666 286.719 118.635 286.633 118.563C286.547 118.492 286.499 118.402 286.489 118.295L286.475 118.135C286.465 118.028 286.496 117.932 286.568 117.845C286.64 117.759 286.729 117.711 286.836 117.702L289.436 117.465C289.543 117.456 289.64 117.487 289.726 117.559C289.812 117.63 289.86 117.72 289.87 117.827L289.884 117.987C289.908 118.252 289.826 118.477 289.636 118.663L288.663 119.63L288.663 119.637C288.664 119.642 288.666 119.644 288.671 119.644L288.755 119.636C289.159 119.599 289.493 119.695 289.758 119.924C290.027 120.153 290.181 120.481 290.22 120.909C290.269 121.448 290.141 121.876 289.838 122.194C289.534 122.513 289.073 122.7 288.455 122.756C288.083 122.79 287.702 122.78 287.313 122.726C287.199 122.708 287.101 122.656 287.018 122.57C286.939 122.479 286.895 122.373 286.884 122.252L286.862 122.015C286.854 121.922 286.884 121.847 286.954 121.789C287.028 121.726 287.113 121.704 287.208 121.723C287.62 121.817 287.974 121.851 288.272 121.824C288.541 121.799 288.745 121.717 288.882 121.578C289.019 121.439 289.078 121.258 289.057 121.035C289.037 120.808 288.936 120.655 288.756 120.578C288.575 120.5 288.25 120.481 287.781 120.519C287.674 120.528 287.577 120.5 287.492 120.432C287.405 120.361 287.357 120.271 287.348 120.164L287.346 120.15C287.323 119.89 287.403 119.665 287.587 119.475L288.499 118.527L288.499 118.521C288.498 118.516 288.496 118.514 288.491 118.514L286.923 118.657ZM291.949 119.718C291.842 119.728 291.746 119.699 291.66 119.632C291.574 119.56 291.526 119.471 291.516 119.364L291.467 118.827C291.458 118.72 291.489 118.624 291.561 118.538C291.632 118.451 291.722 118.403 291.829 118.394L292.358 118.346C292.465 118.336 292.562 118.367 292.648 118.439C292.734 118.511 292.782 118.6 292.792 118.707L292.841 119.244C292.85 119.351 292.819 119.447 292.747 119.533C292.675 119.615 292.586 119.66 292.479 119.67L291.949 119.718ZM292.188 122.347C292.081 122.356 291.984 122.325 291.898 122.253C291.812 122.181 291.764 122.092 291.754 121.985L291.706 121.455C291.696 121.349 291.727 121.252 291.799 121.166C291.871 121.08 291.96 121.032 292.067 121.022L292.597 120.974C292.704 120.964 292.801 120.995 292.887 121.067C292.973 121.139 293.021 121.228 293.031 121.335L293.079 121.865C293.088 121.972 293.057 122.068 292.986 122.155C292.914 122.241 292.824 122.289 292.717 122.298L292.188 122.347ZM294.541 117.965C294.434 117.974 294.337 117.943 294.251 117.872C294.165 117.8 294.117 117.71 294.107 117.603L294.093 117.443C294.083 117.336 294.114 117.24 294.186 117.153C294.258 117.067 294.347 117.019 294.454 117.01L297.054 116.773C297.161 116.764 297.258 116.795 297.344 116.867C297.43 116.938 297.478 117.028 297.488 117.135L297.502 117.295C297.526 117.56 297.444 117.785 297.254 117.971L296.281 118.938L296.281 118.945C296.282 118.95 296.284 118.952 296.289 118.952L296.373 118.944C296.777 118.907 297.111 119.003 297.376 119.232C297.645 119.461 297.799 119.789 297.838 120.217C297.887 120.756 297.759 121.184 297.456 121.503C297.152 121.821 296.691 122.008 296.073 122.064C295.701 122.098 295.32 122.088 294.931 122.034C294.817 122.016 294.719 121.964 294.636 121.878C294.557 121.787 294.513 121.681 294.502 121.56L294.48 121.323C294.472 121.23 294.502 121.155 294.572 121.097C294.646 121.034 294.731 121.012 294.826 121.031C295.238 121.125 295.592 121.159 295.89 121.132C296.159 121.107 296.363 121.025 296.5 120.886C296.637 120.747 296.696 120.566 296.676 120.343C296.655 120.116 296.554 119.963 296.374 119.886C296.194 119.808 295.868 119.789 295.399 119.827C295.292 119.836 295.195 119.808 295.11 119.741C295.023 119.669 294.975 119.579 294.966 119.472L294.964 119.458C294.941 119.198 295.021 118.973 295.205 118.783L296.117 117.836L296.117 117.829C296.116 117.824 296.114 117.822 296.109 117.822L294.541 117.965ZM300.391 117.265C300.135 117.288 299.94 117.383 299.805 117.55C299.675 117.716 299.622 117.934 299.647 118.204C299.676 118.524 299.77 118.76 299.929 118.909C300.088 119.059 300.297 119.122 300.558 119.098C300.813 119.075 301.005 118.973 301.134 118.793C301.268 118.612 301.32 118.366 301.292 118.054C301.269 117.794 301.173 117.592 301.005 117.448C300.837 117.304 300.633 117.243 300.391 117.265ZM300.386 119.915C299.833 119.965 299.394 119.855 299.069 119.585C298.75 119.314 298.564 118.895 298.513 118.328C298.464 117.793 298.6 117.355 298.92 117.012C299.245 116.664 299.709 116.462 300.313 116.407C300.941 116.35 301.441 116.494 301.814 116.84C302.193 117.185 302.415 117.725 302.482 118.459C302.663 120.458 301.994 121.526 300.474 121.664C300.219 121.687 299.957 121.69 299.688 121.672C299.575 121.664 299.477 121.619 299.394 121.537C299.316 121.451 299.272 121.349 299.261 121.233L299.25 121.108C299.241 121.01 299.274 120.93 299.348 120.867C299.421 120.799 299.508 120.773 299.607 120.787C299.878 120.823 300.127 120.831 300.355 120.81C300.708 120.778 300.975 120.653 301.157 120.435C301.343 120.217 301.428 119.914 301.412 119.527C301.411 119.522 301.409 119.52 301.404 119.52L301.397 119.521C301.155 119.744 300.818 119.876 300.386 119.915Z" fill="#F652F7"/>
<path d="M102.226 115.453C101.946 115.465 101.79 115.771 101.923 116.049C102.02 116.251 102.144 116.502 102.296 116.79L101.973 116.977C101.259 117.389 100.674 117.992 100.284 118.717C99.8932 119.443 99.7124 120.263 99.7618 121.086L99.8807 123.067L98.2246 121.974C97.5369 121.52 96.7363 121.266 95.9126 121.241C95.0888 121.217 94.2745 121.422 93.5607 121.834L92.3863 122.512C92.1824 122.63 92.0337 122.823 91.9728 123.051C91.9118 123.278 91.9437 123.52 92.0614 123.724C92.1791 123.928 92.373 124.077 92.6003 124.138C92.8277 124.199 93.07 124.167 93.2738 124.049L94.4483 123.371C94.8764 123.124 95.3648 123.001 95.8588 123.016C96.3529 123.031 96.833 123.183 97.2455 123.455L100.014 125.282L100.213 128.592C100.243 129.086 100.134 129.578 99.8996 130.013C99.665 130.449 99.3137 130.811 98.8852 131.058L97.7115 131.735C97.5076 131.853 97.3589 132.047 97.2979 132.274C97.237 132.502 97.2689 132.744 97.3866 132.948C97.5043 133.152 97.6982 133.3 97.9255 133.361C98.1529 133.422 98.3951 133.39 98.599 133.273L99.7735 132.595C100.487 132.182 101.072 131.58 101.462 130.854C101.853 130.128 102.034 129.308 101.984 128.486L101.865 126.505L103.521 127.598C104.209 128.052 105.01 128.306 105.833 128.33C106.657 128.355 107.472 128.15 108.185 127.738L108.509 127.551C108.697 127.848 108.863 128.097 108.995 128.287C109.159 128.524 109.466 128.531 109.614 128.299C109.811 127.988 110.092 127.519 110.401 126.911C110.646 126.433 110.868 125.944 111.067 125.445C111.171 125.184 111.012 124.889 110.747 124.849C110.207 124.769 109.664 124.716 109.119 124.688C108.597 124.66 108.073 124.656 107.551 124.676C107.271 124.688 107.116 124.994 107.248 125.272C107.345 125.475 107.469 125.726 107.621 126.014L107.298 126.2C106.87 126.448 106.382 126.571 105.887 126.556C105.393 126.541 104.912 126.389 104.5 126.117L101.732 124.29L101.533 120.98C101.503 120.486 101.612 119.994 101.846 119.558C102.081 119.123 102.432 118.761 102.861 118.514L103.184 118.327C103.372 118.624 103.538 118.873 103.671 119.063C103.835 119.301 104.141 119.307 104.289 119.075C104.487 118.764 104.767 118.295 105.077 117.688C105.321 117.209 105.544 116.72 105.743 116.221C105.846 115.96 105.687 115.665 105.422 115.625C104.883 115.546 104.339 115.492 103.794 115.464C103.272 115.436 102.749 115.432 102.227 115.452L102.226 115.453Z" fill="#F75296"/>
<path d="M316.95 56.1481C317.044 55.8849 317.349 55.7909 317.543 55.9654L317.755 56.1589L318.003 56.3944L318.138 56.5281L318.429 56.8253L318.583 56.989L318.891 57.3299L319.029 57.4895L319.276 57.7831L319.479 58.0377L319.565 58.1472C319.716 58.3443 319.628 58.6359 319.388 58.7348L319.117 58.8431L318.791 58.9657L318.41 59.0987L317.979 59.2375L317.547 59.3642L317.16 59.4681L316.824 59.5487L316.542 59.6108C316.291 59.6627 316.089 59.4594 316.136 59.2019L316.188 58.9267L316.255 58.5988L316.295 58.4178L309.137 56.4998C308.731 56.3908 308.3 56.4342 307.93 56.6212C307.561 56.8081 307.281 57.1249 307.145 57.508L307.11 57.6235L305.443 63.8441C305.338 64.2364 305.39 64.6554 305.589 65.017C305.788 65.3787 306.12 65.6564 306.517 65.7943L306.637 65.8306L314.686 67.9874C315.092 68.0963 315.523 68.053 315.892 67.866C316.262 67.679 316.542 67.3623 316.677 66.9792L316.712 66.8636L317.754 62.9758C317.808 62.7777 317.937 62.6081 318.117 62.5017C318.296 62.3954 318.512 62.3602 318.72 62.4035C318.928 62.4467 319.112 62.5651 319.235 62.7345C319.359 62.9039 319.411 63.1114 319.383 63.3147L319.364 63.4072L318.322 67.295C318.109 68.093 317.585 68.7753 316.861 69.201C316.137 69.6266 315.267 69.7629 314.431 69.5818L314.269 69.5425L306.22 67.3857C305.394 67.1643 304.681 66.6448 304.23 65.9344C303.779 65.2241 303.624 64.3773 303.796 63.5693L303.833 63.4127L305.5 57.1922C305.714 56.3942 306.237 55.7118 306.961 55.2862C307.686 54.8606 308.556 54.7242 309.391 54.9054L309.553 54.9446L316.712 56.8627L316.814 56.5443L316.907 56.2692L316.95 56.1481ZM313.129 60.9189L312.091 64.792C312.036 64.9982 311.898 65.1732 311.708 65.2786C311.518 65.384 311.291 65.411 311.078 65.3538C310.864 65.2966 310.682 65.1599 310.57 64.9736C310.458 64.7873 310.426 64.5668 310.481 64.3606L311.134 61.9237C310.926 61.9765 310.704 61.9483 310.514 61.8449C310.324 61.7415 310.182 61.5712 310.117 61.37C310.053 61.1687 310.071 60.9524 310.169 60.7668C310.266 60.5813 310.435 60.441 310.639 60.3759L312.04 59.9264C312.184 59.8804 312.338 59.8733 312.487 59.9058C312.636 59.9383 312.773 60.0092 312.885 60.111C312.997 60.2128 313.079 60.3416 313.122 60.4838C313.165 60.6259 313.167 60.776 313.129 60.9181L313.129 60.9189Z" fill="#F75296"/>
<mask id="mask0_22_6" style="mask-type:alpha" maskUnits="userSpaceOnUse" x="10" y="9" width="359" height="124">
<path fill-rule="evenodd" clip-rule="evenodd" d="M19.5339 44.3998H19.6168C20.0313 44.3998 20.4044 44.0268 20.4459 43.5708L20.8604 34.9903C22.4355 35.4463 24.1351 35.695 25.876 35.695C34.498 35.695 39.7209 30.3477 39.7209 22.6791C39.7209 14.6789 32.7985 9 25.1299 9C23.5133 9 21.8552 9.29016 20.1971 9.82904L12.6115 9.45597H12.5286C12.0726 9.45597 11.6995 9.82904 11.6995 10.2436L10 43.0319C10 43.5294 10.3316 43.9024 10.829 43.9439L19.5339 44.3998ZM21.2749 26.7414L21.7309 18.0365C22.3941 17.8707 23.0573 17.7878 23.6376 17.7878C26.7051 17.7878 29.0264 19.8189 29.0264 22.7205C29.0264 23.0107 29.0264 27.4461 24.4667 27.4461C23.3475 27.4461 22.1868 27.1559 21.2749 26.7414ZM235.79 26.6181L234.283 23.9486C234.21 23.8215 234.083 23.7488 233.956 23.7488C233.901 23.7488 233.847 23.767 233.792 23.7852C231.541 25.2016 225.893 27.8348 223.042 28.9426C222.915 29.0152 222.824 29.1242 222.824 29.2695C222.824 29.324 222.842 29.3784 222.878 29.4329L224.603 32.4838C224.676 32.6109 224.803 32.6835 224.93 32.6835C224.985 32.6835 225.039 32.6654 225.094 32.6472C228.708 31.5939 232.376 29.6872 235.627 27.1084C235.754 27.0176 235.826 26.8905 235.826 26.7634C235.826 26.7203 235.815 26.6885 235.801 26.6502C235.798 26.6401 235.794 26.6295 235.79 26.6181ZM222.933 26.4002L225.929 25.0745C226.111 24.9837 226.183 24.8566 226.183 24.7113C226.183 23.9123 224.258 22.0236 223.586 21.4607C223.459 21.3699 223.332 21.3336 223.205 21.3336C223.078 21.3336 222.933 21.3699 222.806 21.4244L220.263 22.4958C220.154 22.5321 220.118 22.6229 220.118 22.7319C220.118 22.9316 220.245 23.2222 222.243 26.2549L222.263 26.2828L222.283 26.3097C222.368 26.4267 222.427 26.5092 222.57 26.5092C222.66 26.5092 222.769 26.4728 222.933 26.4002ZM227.909 22.4232L230.342 20.3348C230.451 20.244 230.505 20.135 230.505 20.0442C230.505 19.227 227.255 17.4655 226.855 17.4655C226.674 17.4655 226.51 17.5745 226.347 17.7016L224.277 19.3905C224.204 19.4449 224.186 19.5176 224.186 19.5902C224.186 19.8263 224.386 20.0987 227.218 22.4776C227.327 22.5684 227.418 22.6411 227.527 22.6411C227.618 22.6411 227.727 22.5866 227.909 22.4232ZM235.409 19.1362L236.407 18.2645C236.516 18.1556 236.589 18.0466 236.589 17.9377C236.589 17.8469 236.553 17.7561 236.444 17.6653L236.389 17.6289L235.336 16.6665C235.209 16.5757 235.082 16.503 234.936 16.503C234.846 16.503 234.755 16.5212 234.664 16.5938L233.738 17.3021L233.731 17.3075C233.657 17.3625 233.538 17.4515 233.538 17.5745C233.538 17.6471 233.574 17.7379 233.665 17.8287L234.827 19.0817C234.918 19.1725 235.027 19.2452 235.154 19.2452C235.227 19.2452 235.318 19.2089 235.409 19.1362ZM231.886 18.9909L233.011 18.9183C233.32 18.882 233.447 18.773 233.447 18.5733C233.447 18.5188 233.447 18.4643 233.429 18.4098L233.12 17.0478C233.066 16.8299 232.884 16.612 232.63 16.612H232.576L231.25 16.7754C231.05 16.8117 230.905 16.8844 230.905 17.1023C230.905 17.1554 230.915 17.1988 230.927 17.2538L230.927 17.254C230.932 17.2742 230.936 17.2959 230.941 17.3202L231.323 18.7185C231.377 18.9001 231.504 18.9909 231.758 18.9909H231.886ZM249.103 31.1547L251.283 32.5851C251.433 32.6831 251.551 32.7137 251.676 32.6873C252.528 32.506 259.834 25.7363 259.595 19.8089V19.8086C259.59 19.6983 259.585 19.5881 259.562 19.4816C259.336 18.4158 258.259 17.9764 257.519 18.0779L251.886 18.8296C250.977 17.8718 250.811 17.7028 250.58 17.7519C250.456 17.7784 250.361 17.8543 250.287 17.9442C249.264 19.0714 247.624 20.701 245.909 21.7154C245.76 21.8027 245.676 21.9319 245.71 22.0918C245.725 22.1628 245.784 22.2618 245.877 22.3533L247.922 24.4622C248.084 24.6134 248.238 24.6364 248.415 24.5987C248.806 24.5156 250.101 23.7948 252.132 22.3421L254.173 22.0753C254.39 22.0478 254.533 22.1102 254.563 22.2523C254.661 22.7141 252.067 27.6285 249.127 30.4812C248.962 30.6648 248.9 30.8081 248.926 30.9324C248.945 31.0212 248.996 31.0847 249.103 31.1547ZM261.212 38.7677L257.756 37.8417C257.563 37.79 257.443 37.6074 257.495 37.4145L261.457 22.6273C261.509 22.4343 261.709 22.3187 261.902 22.3704L265.357 23.2964C265.55 23.3481 265.648 23.5435 265.597 23.7365L263.984 29.7531L265.235 28.7345C265.405 28.592 265.577 28.5817 265.752 28.6287C266.278 28.7697 268.879 30.2187 270.185 31.452C270.349 31.609 270.404 31.7553 270.367 31.8956C270.327 32.0447 270.237 32.1301 267.912 34.3369L267.477 34.7499C267.352 34.8668 267.215 34.8865 267.092 34.8536C266.97 34.8207 266.861 34.7352 266.787 34.659C266.056 33.8803 264.508 32.4314 263.5 31.5598L261.634 38.5237C261.583 38.7166 261.405 38.8194 261.212 38.7677ZM319.58 48.5933L322.504 50.5633C322.617 50.6473 322.717 50.6743 322.818 50.7012C323.221 50.8091 323.602 50.6955 323.754 50.6285C333.103 45.5289 335.644 39.4681 335.805 38.8642C336.203 37.3798 335.087 36.11 333.756 35.6453L319.905 30.7746L319.755 30.7341C318.975 30.5251 318.16 30.8463 317.883 31.5809L315.531 37.6386L315.511 37.7141C315.43 38.016 315.64 38.3417 316.01 38.468L320.628 40.0558L320.678 40.0693C321.005 40.1569 321.395 39.9107 321.533 39.5971L322.456 37.2559C322.601 36.9172 322.749 36.768 323.152 36.8759L323.328 36.9231L327.517 38.3962C327.838 38.509 327.98 38.682 327.906 38.9588C327.778 39.4368 323.779 44.2979 319.494 47.7073C319.353 47.8313 319.276 47.9184 319.249 48.0191C319.188 48.2455 319.356 48.4252 319.58 48.5933ZM324.839 31.5842L330.551 33.1145C330.827 33.1887 331.284 33.0953 331.371 32.7682L332.261 29.4471C332.349 29.12 332.128 28.7371 331.751 28.636L326.039 27.1057C325.712 27.018 325.304 27.2323 325.216 27.5594L324.327 30.8805C324.246 31.1825 324.487 31.4898 324.839 31.5842ZM338.792 34.46L340.302 33.3544C340.468 33.2371 340.584 33.1064 340.618 32.9806C340.658 32.8296 340.598 32.6517 340.449 32.5039L340.387 32.4333L338.978 30.9501C338.854 30.809 338.691 30.7115 338.54 30.671C338.364 30.6238 338.2 30.6337 338.033 30.751L336.609 31.6369C336.514 31.6921 336.354 31.7842 336.307 31.9603C336.28 32.061 336.315 32.2322 336.458 32.4051L337.967 34.3197C338.073 34.4289 338.203 34.5449 338.329 34.5786C338.48 34.619 338.626 34.5772 338.792 34.46ZM333.754 33.8382L335.397 33.8469C335.776 33.8406 335.993 33.7368 336.053 33.5104C336.074 33.4349 336.076 33.3275 336.059 33.1882L335.758 31.1929C335.724 30.9143 335.533 30.6204 335.232 30.5395C335.181 30.5261 335.131 30.5126 335.049 30.5175L333.114 30.5924C332.867 30.6072 332.689 30.6674 332.629 30.8938C332.602 30.9945 332.593 31.127 332.628 31.2982L332.992 33.3641C333.038 33.5923 333.187 33.7402 333.414 33.8009C333.497 33.8232 333.585 33.8283 333.688 33.8342L333.748 33.8377L333.754 33.8382ZM343.992 50.0644L344.071 49.9668C345.416 47.8692 345.198 45.5169 345.15 45.3095C344.915 44.2915 343.792 44.0939 343.123 44.1888L333.656 45.6002L333.617 45.6091C333.424 45.6536 333.29 45.8634 333.314 46.0563L333.633 48.4053L333.641 48.443C333.685 48.6315 333.878 48.7656 334.095 48.7354L340.812 47.82C340.956 47.8265 341.018 47.832 341.044 47.9452C341.076 48.0806 341.038 48.7341 341.015 49.128L341.015 49.1302L341.015 49.1313C341.006 49.2841 340.999 49.3972 341 49.4248C340.979 49.5092 340.981 49.6079 341.003 49.7021C341.077 50.0226 341.2 50.1135 343.455 50.2878L343.495 50.2886C343.558 50.2901 343.612 50.2913 343.676 50.2766C343.811 50.2454 343.918 50.181 343.992 50.0644ZM336.179 56.1773L337.98 56.6749C338.156 56.7335 338.304 56.7589 338.459 56.7232C338.574 56.6965 338.681 56.6321 338.814 56.5022C340.465 54.8503 340.917 50.9134 340.734 50.1216C340.665 49.82 340.432 49.6949 340.087 49.6952L337.387 49.7031C337.324 49.6976 337.286 49.7065 337.228 49.7199C336.958 49.7822 336.804 49.9964 336.807 50.2737C336.766 51.5937 336.44 54.0519 335.929 55.3612C335.878 55.4921 335.802 55.6885 335.841 55.8582C335.871 55.9901 335.979 56.1043 336.179 56.1773ZM314.476 47.4465L296.828 48.0889C296.541 48.0989 296.168 47.8513 296.156 47.5129L295.99 42.7751C295.98 42.4627 296.309 42.1906 296.595 42.1806L314.272 41.5894C314.558 41.5794 314.906 41.8279 314.917 42.1663L315.082 46.878C315.093 47.1904 314.763 47.4365 314.476 47.4465ZM277.936 53.5516L290.934 53.0566C291.741 53.0046 292.08 52.6138 292.184 52.0408C292.49 50.1825 292.762 48.4269 293.031 46.6907C293.426 44.1438 293.814 41.6388 294.294 38.9127L294.294 38.9122C294.32 38.7561 294.346 38.6 294.346 38.4439C294.346 37.0373 293.174 35.9172 291.637 35.787L277.936 34.7191H277.884C277.624 34.7191 277.415 34.9014 277.389 35.1619L276.998 39.3295V39.3816C276.998 39.6421 277.181 39.8505 277.441 39.8765L286.897 40.6579C287.079 40.71 287.365 40.8663 287.365 41.3091C287.365 41.8301 286.506 46.4145 286.323 47.3001C286.245 47.6648 286.141 47.769 285.646 47.8471L277.441 48.1336C277.155 48.1336 277.077 48.342 277.077 48.5764V48.6806L277.389 53.0566C277.415 53.3432 277.65 53.5516 277.936 53.5516ZM270.165 61.2363L266.31 59.8558C266.049 59.7776 265.971 59.5953 265.971 59.413C265.971 59.2306 266.023 59.0483 266.128 58.866C267.091 57.1468 267.456 55.063 267.456 52.875C267.456 49.0199 266.336 44.8523 265.216 41.7005C265.164 41.5703 265.138 41.44 265.138 41.3358C265.138 41.0493 265.294 40.8149 265.633 40.7107L270.295 39.5385L270.373 39.5253C270.495 39.5043 270.6 39.4865 270.686 39.4865C271.207 39.4865 271.363 39.8251 271.467 40.1116C272.952 43.5499 274.176 47.952 274.176 52.1456C274.176 55.3495 273.447 58.4492 271.572 60.9237C271.337 61.2103 271.103 61.3665 270.764 61.3665C270.608 61.3665 270.399 61.3144 270.165 61.2363ZM261.699 51.2079L256.828 50.3483C256.594 50.2702 256.36 50.0879 256.36 49.6451C256.36 47.8999 257.323 44.0188 257.428 43.628C257.506 43.2894 257.74 43.081 258.079 43.081C258.083 43.081 258.088 43.0812 258.093 43.0816C258.101 43.0822 258.109 43.0831 258.117 43.0843C258.134 43.0868 258.152 43.0904 258.17 43.094L258.17 43.0941L258.192 43.0985C258.201 43.1001 258.209 43.1016 258.217 43.1029C258.233 43.1054 258.248 43.1071 258.261 43.1071L262.95 43.9406C263.184 43.9667 263.523 44.2011 263.523 44.722C263.523 44.7611 263.516 44.8002 263.51 44.8393L263.51 44.8395C263.506 44.8637 263.502 44.888 263.499 44.9122C263.498 44.9269 263.497 44.9417 263.497 44.9565L262.741 50.5828C262.689 50.8954 262.377 51.234 261.908 51.234C261.882 51.234 261.858 51.2311 261.836 51.2272C261.825 51.2253 261.814 51.2231 261.804 51.2209C261.787 51.2177 261.771 51.2144 261.754 51.212C261.737 51.2095 261.719 51.2079 261.699 51.2079ZM243.367 57.7776L246.512 58.997L246.577 59.0224C246.916 59.1543 247.188 59.2601 247.433 59.2516C247.641 59.2443 247.845 59.1329 248.021 58.9443C252.313 54.2072 253.644 48.2964 253.44 42.4393C253.389 40.9815 253.26 39.5264 253.027 38.101L253.023 38.0755C252.958 37.689 252.871 37.1682 251.98 37.1994L247.396 37.3073C246.901 37.3246 246.653 37.6721 246.668 38.1146L246.671 38.1927C246.76 39.2322 246.851 40.3497 246.891 41.4951C247.071 46.6494 246.472 52.6389 243.357 56.7354C243.208 56.9491 243.06 57.1888 243.067 57.3971C243.073 57.5533 243.156 57.7068 243.367 57.7776ZM241.43 48.5666L241.508 48.5639C241.924 48.5493 242.308 48.3535 242.42 47.8022C242.687 46.5158 242.873 43.6162 242.793 41.3254C242.694 38.488 242.427 38.3148 241.724 38.3394L236.935 38.5327C236.284 38.5554 236.135 38.7431 236.148 39.1336C236.149 39.1494 236.15 39.1662 236.153 39.1838C236.156 39.2065 236.16 39.2305 236.164 39.2554L236.164 39.2561C236.173 39.3077 236.182 39.3632 236.184 39.419C236.44 41.5212 236.769 45.706 236.836 47.6323C236.858 48.2571 237.126 48.4823 237.544 48.4938L241.43 48.5666ZM245.587 34.2391L236.1 33.3643L236.064 33.3593C235.884 33.334 235.763 33.1519 235.771 32.9696L235.922 30.8453C235.945 30.6834 236.009 30.4907 236.245 30.5056L239.287 30.7863L239.85 26.776L237.643 26.4292C237.466 26.3859 237.324 26.2193 237.35 26.0395L237.355 26.0035L237.668 23.902C237.714 23.7067 237.896 23.5856 238.094 23.6134L245.665 24.8059C245.879 24.8542 246 25.0362 245.972 25.234L245.64 27.333C245.615 27.5129 245.43 27.652 245.251 27.6267L245.215 27.6216L243.026 27.2773L242.49 31.0898L245.732 31.3803C245.911 31.4056 246.161 31.5874 246.131 31.8032L245.999 33.912C245.969 34.1278 245.784 34.2669 245.587 34.2391ZM219.319 37.6511H219.264L208.586 37.3061C208.114 37.288 207.751 36.9792 207.751 36.5071V36.4708L207.932 27.0094C207.932 26.4465 208.277 26.0106 208.913 26.0106H208.949L218.066 26.1922C219.591 26.2285 220.699 27.0094 220.699 28.6257V28.8254L220.299 36.7068C220.263 37.3969 219.773 37.6511 219.319 37.6511ZM216.232 34.0918L216.359 30.5688V30.5143C216.359 30.0058 216.068 29.7334 215.669 29.7334L211.655 29.5881L211.564 33.9284L216.232 34.0918ZM198.321 32.4147L200.573 33.5043C200.682 33.5588 200.791 33.5769 200.9 33.5769C201.136 33.5769 201.354 33.468 201.426 33.3772C204.059 30.5079 206.13 26.9304 206.638 23.2257C206.42 23.2621 206.22 23.2802 206.021 23.2802C204.041 23.2802 202.57 21.6095 202.57 19.9025V19.739L193.345 20.5199C193.163 20.5381 193 20.7015 193 20.8831V20.9194L193.272 23.9703C193.291 24.1701 193.436 24.3153 193.636 24.3153H193.672L201.299 23.5526H201.408C201.572 23.5526 201.662 23.6071 201.662 23.7705C201.662 24.1337 199.992 28.7464 198.176 31.7791C198.103 31.9062 198.067 32.0152 198.067 32.106C198.067 32.2512 198.157 32.342 198.321 32.4147ZM203.297 19.7754C203.297 21.3008 204.513 22.5175 206.039 22.5175C207.564 22.5175 208.781 21.3008 208.781 19.7754C208.781 18.2499 207.564 17.0332 206.039 17.0332C204.513 17.0332 203.297 18.2499 203.297 19.7754ZM206.039 18.8129C206.565 18.8129 207.001 19.2487 207.001 19.7754C207.001 20.302 206.565 20.7378 206.039 20.7378C205.512 20.7378 205.076 20.302 205.076 19.7754C205.076 19.2487 205.512 18.8129 206.039 18.8129ZM367.824 99.048L363.36 107.76C362.712 108.984 361.992 109.632 361.056 109.632C360.336 109.632 355.296 108.48 351.696 105.096C347.952 107.04 344.064 107.904 340.392 107.904C328.368 107.904 318 98.688 318 87.096C318 78.456 324.12 66 338.376 66C341.976 66 345.504 66.792 348.312 68.016C348.744 67.512 349.392 67.296 350.256 67.296H350.616L363.072 68.376C364.944 68.52 365.448 69.456 365.448 70.32V70.68L365.284 71.7442C364.334 77.9076 363.432 83.7539 363.432 88.248C363.432 92.568 364.224 95.664 366.528 96.888C367.248 97.248 368.04 97.68 368.04 98.4C368.04 98.544 367.968 98.76 367.824 99.048ZM346.728 93.792C346.512 91.92 346.368 89.904 346.368 87.672C346.368 85.8 346.44 83.856 346.584 81.696C345.72 80.256 343.776 79.248 341.688 79.248C337.152 79.248 334.632 83.64 334.632 87.312C334.632 91.344 337.44 94.8 342.12 94.8C343.488 94.8 345.072 94.512 346.728 93.792ZM279.516 105.441L286.432 107.688C287.664 108.089 288.984 107.987 289.847 107.662C300.628 103.14 316.126 81.0733 316.482 79.9777C316.793 79.019 316.399 78.134 314.98 77.1429L306.716 71.354C306.235 70.9706 305.778 70.7464 305.299 70.5906C304.409 70.3014 303.59 70.4897 302.89 71.2464C302.669 71.507 302.035 72.2905 301.144 73.3916L301.14 73.3961L301.138 73.3986L301.137 73.4002L301.135 73.4024C298.575 76.5652 293.908 82.333 290.797 85.8649C290.458 86.209 290.277 86.3015 290.071 86.2347C289.934 86.1902 289.773 85.9865 289.748 85.5996L287.574 66.1941C287.454 65.3981 286.925 64.6963 285.898 64.3626C284.46 63.8953 274.288 64.6784 272.4 64.8977C271.535 64.9953 270.969 65.3411 270.724 66.0944C270.568 66.5737 270.527 67.166 270.647 67.962L276.672 102.776C277.003 104.321 278.146 104.996 279.516 105.441ZM268.512 85.816C268.512 99.856 254.256 107.704 244.032 107.704C232.296 107.704 222 99.208 222 86.536C222 71.704 233.088 64 245.76 64C261.672 64 268.512 76.456 268.512 85.816ZM245.76 93.952C250.872 93.952 253.176 89.776 253.176 85.672C253.176 84.304 252.888 77.32 245.544 77.32C239.496 77.32 237.768 82.432 237.768 85.672C237.768 90.64 241.656 93.952 245.76 93.952ZM213.064 87.184L216.448 78.472C216.52 78.328 216.52 78.112 216.52 77.968C216.52 76.168 210.76 73 202.768 73C190.888 73 178 79.552 178 95.68C178 108.352 188.584 116.704 200.536 116.704C207.016 116.704 213.928 114.256 219.76 108.712C220.624 107.848 220.984 107.056 220.984 106.192C220.984 105.688 220.84 105.184 220.624 104.752C219.938 103.338 219.355 102.306 218.721 101.187L218.721 101.186C218.29 100.425 217.837 99.6228 217.312 98.632C216.808 97.768 216.232 97.48 215.728 97.48C215.08 97.48 214.432 97.84 214 98.272C210.544 101.44 206.944 102.808 203.848 102.808C199.168 102.808 195.712 99.64 195.712 94.816C195.712 86.968 201.976 86.536 203.848 86.536C206.368 86.536 208.888 87.328 210.184 88.408C210.472 88.624 210.832 88.768 211.12 88.768C211.984 88.768 212.776 88.048 213.064 87.184ZM134.275 115.72L119.947 116.512C119.083 116.512 118.363 115.936 118.363 115.072L116.347 77.632C116.347 76.768 116.995 76.048 117.787 76.048L126.139 75.616C130.027 74.392 133.771 73.816 137.371 73.816C139.819 73.816 142.195 74.104 144.427 74.608C145.507 74.896 145.939 75.472 145.939 76.336C145.939 76.5746 145.889 76.8133 145.831 77.0929C145.819 77.1507 145.807 77.2103 145.795 77.272L143.707 87.424C143.491 88.432 142.771 88.936 141.907 88.936C141.691 88.936 141.403 88.864 141.115 88.792C139.963 88.432 138.739 88.216 137.515 88.216C136.507 88.216 135.499 88.36 134.347 88.648L135.715 114.136V114.28C135.715 115.072 135.067 115.72 134.275 115.72ZM62.4508 128.064L72.8908 132.096C73.3948 132.312 73.8268 132.384 74.1868 132.384C75.0508 132.384 75.6988 131.952 76.4188 131.16C105.867 95.376 111.339 80.616 111.339 79.536C111.339 78.888 110.907 78.384 110.043 77.952L99.3148 72.408C98.5948 71.976 97.9468 71.832 97.5148 71.832C96.7228 71.832 96.2188 72.264 95.7868 72.984C92.2588 78.528 88.1548 84.936 83.9068 91.344L75.3388 71.976C74.8348 70.752 73.8988 69.816 72.6028 69.816C72.3148 69.816 72.0268 69.888 71.7389 69.96L71.7388 69.96L60.2908 73.344C59.2108 73.632 58.3468 74.28 58.3468 75.288C58.3468 75.648 58.4908 76.08 58.7068 76.584L72.1708 107.04C72.2158 107.13 72.2578 107.217 72.2979 107.3C72.45 107.616 72.5759 107.877 72.7468 108.048L61.4428 124.824C61.0828 125.328 60.8668 125.832 60.8668 126.336C60.8668 127.056 61.3708 127.632 62.4508 128.064ZM53.208 108.272H53.064L34.92 107.336H34.632L19.656 106.616C18.72 106.544 18 105.752 18 104.744L20.952 48.584C21.024 47.72 21.744 47 22.68 47H22.824L37.728 47.72C38.664 47.792 39.384 48.584 39.384 49.592L37.296 89.336L54.072 90.2C55.08 90.272 55.8 91.136 55.8 92.072L54.936 106.616C54.864 107.48 54.144 108.272 53.208 108.272ZM158.84 49.265L160.995 44.042L160.995 44.0418C161.037 43.9175 161.078 43.7933 161.078 43.7104C161.078 43.3023 160.68 43.1267 160.269 42.9457L160.269 42.9455C160.221 42.9243 160.173 42.9031 160.125 42.8814C158.301 42.0938 157.803 39.2336 157.803 35.4615L160.539 35.5859H160.622C161.078 35.5859 161.41 35.2128 161.451 34.7983L161.949 27.9173C161.949 27.4199 161.576 27.0054 161.12 27.0054L158.259 26.8396C158.384 25.0986 158.508 23.2747 158.591 21.5337C158.591 20.829 158.259 20.4145 157.555 20.3731L149.72 20H149.555C148.477 20 148.394 20.7876 148.352 21.285C148.247 22.8023 148.171 24.2596 148.099 25.6312V25.6314L148.062 26.3421L145.409 26.1763C144.912 26.1763 144.539 26.5494 144.497 27.0054L144 33.8864C144 34.3423 144.373 34.7568 144.829 34.7983L147.938 34.9641C148.145 45.4514 150.466 49.0992 157.14 50.4256C157.265 50.4671 157.389 50.4671 157.513 50.4671C158.135 50.4671 158.508 50.0526 158.84 49.265ZM144.135 41.1503L142.187 46.166C142.021 46.6634 141.565 47.0779 141.068 47.0779C140.902 47.0779 140.695 46.995 140.529 46.8707C139.783 46.2489 138.332 45.7929 136.881 45.7929C135.803 45.7929 132.197 46.0417 132.197 50.5599C132.197 53.3372 134.187 55.161 136.881 55.161C138.664 55.161 140.736 54.3735 142.726 52.5496C142.975 52.3009 143.348 52.0936 143.721 52.0936C144.011 52.0936 144.343 52.2594 144.633 52.7568C144.935 53.3274 145.196 53.7893 145.444 54.2277L145.444 54.2278L145.444 54.228C145.809 54.8724 146.145 55.4662 146.539 56.2802C146.664 56.529 146.747 56.8191 146.747 57.1093C146.747 57.6067 146.539 58.0627 146.042 58.5601C142.684 61.7519 138.705 63.1612 134.974 63.1612C128.093 63.1612 122 58.3528 122 51.0573C122 41.7721 129.42 38 136.259 38C140.861 38 144.177 39.8239 144.177 40.8602C144.177 40.9431 144.177 41.0674 144.135 41.1503ZM114.135 50.8711H114.632C115.835 50.8711 116.373 50.2908 116.705 49.6275C117.327 48.2182 118.405 45.3994 118.405 44.9849C118.405 44.2802 117.7 43.9072 117.12 43.9072H117.037C116.747 43.9486 116.415 43.9486 116.125 43.9486C110.943 43.9486 108.788 40.6325 108.788 37.6894C108.788 35.1194 110.446 33.3784 112.436 33.3784C114.177 33.3784 114.964 34.7049 114.964 35.0779C114.964 35.6583 114.674 35.7412 112.518 36.2386C111.98 36.363 111.648 36.5702 111.648 37.0262C111.648 37.192 112.436 39.8864 112.933 41.2543C113.099 41.7517 113.306 42.0418 113.969 42.0418C116.125 41.9589 119.192 41.503 121.14 40.8397C123.586 40.0107 124.374 38.4355 124.374 36.5288C124.374 35.1609 123.918 26 113.638 26C104.187 26 100 32.2178 100 38.1454C100 44.4461 104.726 50.8711 114.135 50.8711ZM77.0414 61.1047L78.2021 57.2083C78.3679 56.6279 78.9482 56.2963 79.4042 56.2963H79.57C79.8601 56.3378 80.1503 56.3378 80.399 56.3378H80.399C82.8862 56.3378 84.9587 55.2186 85.4562 53.2289C86.3681 49.4153 86.907 38.7622 86.9899 31.3423C87.0313 30.3889 87.5288 30.2231 88.0262 30.2231C88.0676 30.2231 95.073 30.5133 95.9849 30.5547C96.6482 30.6376 97.0212 31.0936 97.0212 31.6739C97.0212 31.9641 96.358 48.4619 95.1144 54.5139C93.6636 61.3534 88.4407 63.7162 83.5494 63.7162C81.3939 63.7162 79.2798 63.2602 77.5803 62.5141C77.1244 62.3068 77 61.8094 77 61.4363V61.4363C77 61.3119 77 61.1876 77.0414 61.1047ZM98.3062 23.1349C98.3062 26.4925 95.5704 29.2283 92.2128 29.2283C88.8138 29.2283 86.0779 26.4925 86.0779 23.1349C86.0779 19.7358 88.8138 17 92.2128 17C95.5704 17 98.3062 19.7358 98.3062 23.1349ZM69.6842 54.1612C75.5704 54.1612 83.7779 49.643 83.7779 41.5599C83.7779 36.1712 79.84 29 70.6791 29C63.3836 29 57 33.4353 57 41.9744C57 49.2699 62.9276 54.1612 69.6842 54.1612ZM74.9486 41.477C74.9486 43.8397 73.6222 46.244 70.6791 46.244C68.3163 46.244 66.0779 44.3372 66.0779 41.477C66.0779 39.6117 67.0728 36.6686 70.5547 36.6686C74.7828 36.6686 74.9486 40.6894 74.9486 41.477ZM52.3215 45.125L44.0726 45.5809C43.5752 45.5809 43.1606 45.2493 43.1606 44.7519L42 23.1969C42 22.6995 42.3731 22.285 42.829 22.285L47.6374 22.0363C49.8758 21.3316 52.0313 21 54.1039 21C55.5133 21 56.8812 21.1658 58.1662 21.456C58.788 21.6218 59.0367 21.9534 59.0367 22.4508C59.0367 22.5882 59.0082 22.7255 58.9749 22.8864L58.9749 22.8865C58.968 22.9198 58.9609 22.9541 58.9538 22.9897L57.7517 28.8344C57.6273 29.4147 57.2128 29.7049 56.7154 29.7049C56.591 29.7049 56.4252 29.6634 56.2594 29.622C55.5962 29.4147 54.8915 29.2904 54.1868 29.2904C53.6065 29.2904 53.0262 29.3733 52.3629 29.5391L53.1505 44.213V44.2959C53.1505 44.7519 52.7775 45.125 52.3215 45.125ZM241.034 91.3342L239.274 81.5269C239.146 80.8115 239.799 80.2024 240.504 80.3808L251.066 83.0555C251.864 83.2577 252.089 84.2836 251.45 84.8019L242.648 91.9344C242.057 92.4135 241.169 92.0831 241.034 91.3342ZM191.694 60.2879C191.932 55.7492 183.948 46.3635 171.865 36.7747C171.649 36.6027 171.432 36.4379 171.168 36.3752C170.904 36.3126 170.627 36.3277 170.368 36.4189C170.109 36.5102 169.876 36.6742 169.695 36.8933C169.514 37.1124 169.392 37.3783 169.342 37.6625L167.309 49.1925C167.25 49.5217 167.291 49.8597 167.425 50.1586C167.559 50.4574 167.779 50.7017 168.055 50.8569C174.011 51.993 181.609 55.0671 183.296 58.8014C184.897 62.3429 185.059 64.7203 183.444 66.8817C182.504 68.136 183.67 69.8808 185.087 69.34C190.207 67.3933 191.456 64.8267 191.694 60.2879ZM166.952 52.8018C166.893 52.7685 166.836 52.7312 166.782 52.69L159.246 95.4329C158.409 95.19 157.54 94.987 156.646 94.8293C148.906 93.4646 141.798 95.9361 140.972 100.62C140.146 105.304 145.98 110.058 153.72 111.423C161.46 112.787 168.568 110.316 169.394 105.632C169.421 105.477 169.441 105.323 169.454 105.168C169.534 104.927 169.596 104.68 169.64 104.427L178.039 56.7952C174.892 54.9299 170.611 53.5 166.952 52.8018Z" fill="#8A52F7"/>
</mask>
<g mask="url(#mask0_22_6)">
<rect x="-9" y="-8" width="406" height="160" fill="#8A52F7"/>
<path d="M7.80863 128.268C5.52988 127.962 1.18309 128.056 -0.751682 126.473C-3.89991 123.898 -2.11839 117.544 -0.820717 114.599C3.18014 105.52 16.7683 99.9305 25.6196 96.8919C31.1646 94.9884 36.6764 94.2591 42.4986 93.7509C53.5423 92.7867 65.5446 90.8424 76.4982 93.2676C91.9684 96.6927 106.982 102.234 122.061 107.006C128.039 108.897 134.464 111.346 140.804 112.114C146.377 112.79 151.945 113.421 157.545 113.84C162.746 114.229 169.596 114.545 174.32 112.183C184.692 106.997 195.462 102.784 205.662 97.2026C221.466 88.5546 234.99 77.4715 247.981 65.0669C257.808 55.6833 266.906 45.759 277.562 37.2459C288.795 28.2719 301.409 21.1648 313.84 14.0157C321.788 9.44463 329.704 4.66627 337.829 0.415843C340.204 -0.826048 342.666 -2.61166 345.182 -3.4501" stroke="#C56CF0" stroke-opacity="0.33" stroke-width="50" stroke-linecap="round"/>
<path d="M-9 32C-4.73331 29.4581 -9.5 28 13.5 28C36.5 28 82.5 48.5 82.5 48.5C116 52 105.536 53.0302 129 58.5C153.314 64.168 169.717 68.7182 194 74.5C201.071 76.1835 216.204 86.4918 223.5 87.5C236.212 89.2565 250 92.025 264 92.4822C271.701 93.5583 290.772 98.3476 298.5 99.0665C313.341 100.447 323.624 100.256 338.5 100.792C353.049 101.317 352.291 101.37 366.858 100.792C375.909 100.434 384.274 101.858 387.224 92.025C388.345 88.2888 389.58 83.7643 388.259 79.9094C386.064 73.5005 382.443 67.5286 379.147 61.6497C377.562 58.823 376.463 56.23 373.762 54.4701C369.707 51.8279 365.537 49.1864 360.852 47.7737C352.215 45.1689 343.811 45.5601 334.895 44.8743C308.982 42.8809 282.987 42.1684 257.024 40.8702C243.676 40.2028 230.06 40.0615 216.777 38.4885C212.18 37.9442 207.739 37.5566 203.108 37.5566" stroke="#C052F7" stroke-opacity="0.87" stroke-width="30" stroke-linecap="round"/>
</g>
<path d="M202.652 62.5033C201.403 58.4384 205.14 49.6576 206.624 46.0428C207.128 45.4718 208.807 44.5055 210.487 44.4691C211.425 44.4488 211.903 44.7475 212.679 44.5682L213.479 48.0332C213.091 48.1229 212.645 48.0131 211.737 48.1628C210.115 48.4303 209.189 49.8136 209.313 52.3757C209.612 58.5785 211.335 63.4983 215.02 66.4653C209.892 66.6948 208.413 66.2464 206.062 62.5622C206.441 64.7927 206.954 65.1915 207.611 66.2668C204.106 65.849 203.2 64.2857 202.652 62.5033Z" fill="#38D1C4"/>
<path d="M229.554 56.2924C228.895 52.0912 221.687 45.8375 218.769 43.2388C218.065 42.9468 216.132 42.8143 214.606 43.5181C213.755 43.9108 213.456 44.3888 212.679 44.5682L213.479 48.0332C213.868 47.9435 214.221 47.6491 215.102 47.3858C216.677 46.9154 218.116 47.7527 219.128 50.1097C221.578 55.816 222.186 60.9932 220.175 65.2752C224.885 63.2334 226.017 62.1819 226.515 57.8403C227.152 60.011 226.866 60.5944 226.746 61.8491C229.714 59.9369 229.843 58.1346 229.554 56.2924Z" fill="#38D1C4"/>
</g>
<defs>
<clipPath id="clip0_22_6">
<rect width="384" height="156" fill="white"/>
</clipPath>
</defs>
</svg>
