<svg width="1280" height="440" viewBox="0 0 1280 440" fill="none" xmlns="http://www.w3.org/2000/svg">
<g clip-path="url(#clip0_271_949)">
<rect width="1280" height="440" rx="15" fill="#00171F"/>
<mask id="mask0_271_949" style="mask-type:luminance" maskUnits="userSpaceOnUse" x="0" y="0" width="1280" height="440">
<rect width="1280" height="440" rx="15" fill="white"/>
</mask>
<g mask="url(#mask0_271_949)">
<path fill-rule="evenodd" clip-rule="evenodd" d="M-18.43 420.476H44.445V409.582H-18.43V420.476Z" stroke="#C56CF0" stroke-opacity="0.5" stroke-linejoin="round"/>
<path fill-rule="evenodd" clip-rule="evenodd" d="M-7.96021 430.532L-7.95098 461.957C-7.95098 467.738 -5.60153 472.974 -1.80767 476.766C1.98534 480.558 7.22444 482.906 13.0071 482.906C18.7905 482.906 24.0296 480.558 27.8227 476.766C31.6165 472.974 33.966 467.738 33.966 461.957C33.966 456.175 31.6165 450.939 27.8227 447.147C24.0296 443.355 18.7905 441.007 13.0071 441.007H12.9987C7.21101 441.007 2.51965 436.317 2.51965 430.532H13.0071C30.3583 430.532 44.445 444.613 44.445 461.957C44.445 479.301 30.3583 493.382 13.0071 493.382C-4.34334 493.382 -18.43 479.301 -18.43 461.957V430.532H-7.96021Z" stroke="#C56CF0" stroke-opacity="0.5" stroke-linejoin="round"/>
<path fill-rule="evenodd" clip-rule="evenodd" d="M-18.43 388.222L13.0071 388.213C18.7905 388.213 24.0296 385.864 27.8227 382.073C31.6165 378.281 33.966 373.044 33.966 367.263C33.966 361.482 31.6165 356.246 27.8227 352.453C24.0296 348.662 18.7905 346.313 13.0071 346.313C7.22444 346.313 1.98534 348.662 -1.80767 352.453C-5.60153 356.246 -7.95098 361.482 -7.95098 367.263V367.272C-7.95098 373.057 -12.6423 377.747 -18.43 377.747V367.263C-18.43 349.918 -4.34334 335.838 13.0071 335.838C30.3583 335.838 44.445 349.918 44.445 367.263C44.445 384.607 30.3583 398.688 13.0071 398.688H-18.43V388.222Z" stroke="#C56CF0" stroke-opacity="0.5" stroke-linejoin="round"/>
<g clip-path="url(#clip1_271_949)">
<path fill-rule="evenodd" clip-rule="evenodd" d="M316.903 420.476H379.778V409.582H316.903V420.476Z" stroke="#C56CF0" stroke-opacity="0.5" stroke-linejoin="round"/>
<path fill-rule="evenodd" clip-rule="evenodd" d="M327.373 430.532L327.382 461.957C327.382 467.738 329.732 472.974 333.526 476.766C337.319 480.558 342.558 482.906 348.34 482.906C354.124 482.906 359.363 480.558 363.156 476.766C366.95 472.974 369.299 467.738 369.299 461.957C369.299 456.175 366.95 450.939 363.156 447.147C359.363 443.355 354.124 441.007 348.34 441.007H348.332C342.544 441.007 337.853 436.317 337.853 430.532H348.34C365.692 430.532 379.778 444.613 379.778 461.957C379.778 479.301 365.692 493.382 348.34 493.382C330.99 493.382 316.903 479.301 316.903 461.957V430.532H327.373Z" stroke="#C56CF0" stroke-opacity="0.5" stroke-linejoin="round"/>
<path fill-rule="evenodd" clip-rule="evenodd" d="M316.903 388.222L348.34 388.213C354.124 388.213 359.363 385.864 363.156 382.073C366.95 378.281 369.299 373.044 369.299 367.263C369.299 361.482 366.95 356.246 363.156 352.453C359.363 348.662 354.124 346.313 348.34 346.313C342.558 346.313 337.319 348.662 333.526 352.453C329.732 356.246 327.382 361.482 327.382 367.263V367.272C327.382 373.057 322.691 377.747 316.903 377.747V367.263C316.903 349.918 330.99 335.838 348.34 335.838C365.692 335.838 379.778 349.918 379.778 367.263C379.778 384.607 365.692 398.688 348.34 398.688H316.903V388.222Z" stroke="#C56CF0" stroke-opacity="0.5" stroke-linejoin="round"/>
<path fill-rule="evenodd" clip-rule="evenodd" d="M222.172 420.476H285.047V409.582H222.172V420.476Z" stroke="#C56CF0" stroke-opacity="0.5" stroke-linejoin="round"/>
<path fill-rule="evenodd" clip-rule="evenodd" d="M295.945 398.688H306.843V335.838H295.945V398.688Z" stroke="#C56CF0" stroke-opacity="0.5" stroke-linejoin="round"/>
<path fill-rule="evenodd" clip-rule="evenodd" d="M295.945 493.382H306.843V430.532H295.945V493.382Z" stroke="#C56CF0" stroke-opacity="0.5" stroke-linejoin="round"/>
<path fill-rule="evenodd" clip-rule="evenodd" d="M274.576 398.688L274.568 367.263C274.568 361.482 272.218 356.246 268.425 352.453C264.631 348.662 259.393 346.313 253.609 346.313C247.826 346.313 242.587 348.662 238.794 352.453C235 356.246 232.651 361.482 232.651 367.263C232.651 373.044 235 378.281 238.794 382.073C242.587 385.864 247.826 388.213 253.609 388.213H253.618C259.406 388.213 264.097 392.903 264.097 398.688H253.609C236.258 398.688 222.172 384.607 222.172 367.263C222.172 349.918 236.258 335.838 253.609 335.838C270.96 335.838 285.047 349.918 285.047 367.263V398.688H274.576Z" stroke="#C56CF0" stroke-opacity="0.5" stroke-linejoin="round"/>
<path fill-rule="evenodd" clip-rule="evenodd" d="M285.047 440.998L253.609 441.007C247.826 441.007 242.587 443.355 238.794 447.147C235 450.939 232.651 456.175 232.651 461.957C232.651 467.738 235 472.974 238.794 476.766C242.587 480.558 247.826 482.906 253.609 482.906C259.393 482.906 264.631 480.558 268.425 476.766C272.218 472.974 274.568 467.738 274.568 461.957V461.947C274.568 456.163 279.259 451.472 285.047 451.472V461.957C285.047 479.301 270.96 493.382 253.609 493.382C236.258 493.382 222.172 479.301 222.172 461.957C222.172 444.613 236.258 430.532 253.609 430.532H285.047V440.998Z" stroke="#C56CF0" stroke-opacity="0.5" stroke-linejoin="round"/>
</g>
<path fill-rule="evenodd" clip-rule="evenodd" d="M652.237 420.476H715.112V409.582H652.237V420.476Z" stroke="#C56CF0" stroke-opacity="0.5" stroke-linejoin="round"/>
<path fill-rule="evenodd" clip-rule="evenodd" d="M662.706 430.532L662.716 461.957C662.716 467.738 665.065 472.974 668.859 476.766C672.652 480.558 677.891 482.906 683.674 482.906C689.457 482.906 694.696 480.558 698.489 476.766C702.283 472.974 704.633 467.738 704.633 461.957C704.633 456.175 702.283 450.939 698.489 447.147C694.696 443.355 689.457 441.007 683.674 441.007H683.665C677.878 441.007 673.186 436.317 673.186 430.532H683.674C701.025 430.532 715.112 444.613 715.112 461.957C715.112 479.301 701.025 493.382 683.674 493.382C666.323 493.382 652.237 479.301 652.237 461.957V430.532H662.706Z" stroke="#C56CF0" stroke-opacity="0.5" stroke-linejoin="round"/>
<path fill-rule="evenodd" clip-rule="evenodd" d="M652.237 388.222L683.674 388.213C689.457 388.213 694.696 385.864 698.489 382.073C702.283 378.281 704.633 373.044 704.633 367.263C704.633 361.482 702.283 356.246 698.489 352.453C694.696 348.662 689.457 346.313 683.674 346.313C677.891 346.313 672.652 348.662 668.859 352.453C665.065 356.246 662.716 361.482 662.716 367.263V367.272C662.716 373.057 658.024 377.747 652.237 377.747V367.263C652.237 349.918 666.323 335.838 683.674 335.838C701.025 335.838 715.112 349.918 715.112 367.263C715.112 384.607 701.025 398.688 683.674 398.688H652.237V388.222Z" stroke="#C56CF0" stroke-opacity="0.5" stroke-linejoin="round"/>
<path fill-rule="evenodd" clip-rule="evenodd" d="M557.505 420.476H620.38V409.582H557.505V420.476Z" stroke="#C56CF0" stroke-opacity="0.5" stroke-linejoin="round"/>
<path fill-rule="evenodd" clip-rule="evenodd" d="M631.278 398.688H642.177V335.838H631.278V398.688Z" stroke="#C56CF0" stroke-opacity="0.5" stroke-linejoin="round"/>
<path fill-rule="evenodd" clip-rule="evenodd" d="M631.278 493.382H642.177V430.532H631.278V493.382Z" stroke="#C56CF0" stroke-opacity="0.5" stroke-linejoin="round"/>
<path fill-rule="evenodd" clip-rule="evenodd" d="M609.91 398.688L609.901 367.263C609.901 361.482 607.551 356.246 603.758 352.453C599.964 348.662 594.726 346.313 588.942 346.313C583.159 346.313 577.92 348.662 574.127 352.453C570.334 356.246 567.984 361.482 567.984 367.263C567.984 373.044 570.334 378.281 574.127 382.073C577.92 385.864 583.159 388.213 588.942 388.213H588.951C594.739 388.213 599.431 392.903 599.431 398.688H588.942C571.592 398.688 557.505 384.607 557.505 367.263C557.505 349.918 571.592 335.838 588.942 335.838C606.293 335.838 620.38 349.918 620.38 367.263V398.688H609.91Z" stroke="#C56CF0" stroke-opacity="0.5" stroke-linejoin="round"/>
<path fill-rule="evenodd" clip-rule="evenodd" d="M620.38 440.998L588.942 441.007C583.159 441.007 577.92 443.355 574.127 447.147C570.334 450.939 567.984 456.175 567.984 461.957C567.984 467.738 570.334 472.974 574.127 476.766C577.92 480.558 583.159 482.906 588.942 482.906C594.726 482.906 599.964 480.558 603.758 476.766C607.551 472.974 609.901 467.738 609.901 461.957V461.947C609.901 456.163 614.592 451.472 620.38 451.472V461.957C620.38 479.301 606.293 493.382 588.942 493.382C571.592 493.382 557.505 479.301 557.505 461.957C557.505 444.613 571.592 430.532 588.942 430.532H620.38V440.998Z" stroke="#C56CF0" stroke-opacity="0.5" stroke-linejoin="round"/>
<path fill-rule="evenodd" clip-rule="evenodd" d="M484.57 420.476H547.445V409.582H484.57V420.476Z" stroke="#C56CF0" stroke-opacity="0.5" stroke-linejoin="round"/>
<path fill-rule="evenodd" clip-rule="evenodd" d="M495.04 430.532L495.049 461.957C495.049 467.738 497.398 472.974 501.192 476.766C504.985 480.558 510.224 482.906 516.007 482.906C521.79 482.906 527.03 480.558 530.823 476.766C534.616 472.974 536.966 467.738 536.966 461.957C536.966 456.175 534.616 450.939 530.823 447.147C527.03 443.355 521.79 441.007 516.007 441.007H515.999C510.211 441.007 505.52 436.317 505.52 430.532H516.007C533.358 430.532 547.445 444.613 547.445 461.957C547.445 479.301 533.358 493.382 516.007 493.382C498.657 493.382 484.57 479.301 484.57 461.957V430.532H495.04Z" stroke="#C56CF0" stroke-opacity="0.5" stroke-linejoin="round"/>
<path fill-rule="evenodd" clip-rule="evenodd" d="M484.57 388.222L516.007 388.213C521.79 388.213 527.03 385.864 530.823 382.073C534.616 378.281 536.966 373.044 536.966 367.263C536.966 361.482 534.616 356.246 530.823 352.453C527.03 348.662 521.79 346.313 516.007 346.313C510.224 346.313 504.985 348.662 501.192 352.453C497.398 356.246 495.049 361.482 495.049 367.263V367.272C495.049 373.057 490.358 377.747 484.57 377.747V367.263C484.57 349.918 498.657 335.838 516.007 335.838C533.358 335.838 547.445 349.918 547.445 367.263C547.445 384.607 533.358 398.688 516.007 398.688H484.57V388.222Z" stroke="#C56CF0" stroke-opacity="0.5" stroke-linejoin="round"/>
<path fill-rule="evenodd" clip-rule="evenodd" d="M389.838 420.476H452.713V409.582H389.838V420.476Z" stroke="#C56CF0" stroke-opacity="0.5" stroke-linejoin="round"/>
<path fill-rule="evenodd" clip-rule="evenodd" d="M463.612 398.688H474.51V335.838H463.612V398.688Z" stroke="#C56CF0" stroke-opacity="0.5" stroke-linejoin="round"/>
<path fill-rule="evenodd" clip-rule="evenodd" d="M463.612 493.382H474.51V430.532H463.612V493.382Z" stroke="#C56CF0" stroke-opacity="0.5" stroke-linejoin="round"/>
<path fill-rule="evenodd" clip-rule="evenodd" d="M442.243 398.688L442.234 367.263C442.234 361.482 439.885 356.246 436.091 352.453C432.298 348.662 427.059 346.313 421.276 346.313C415.492 346.313 410.254 348.662 406.46 352.453C402.667 356.246 400.317 361.482 400.317 367.263C400.317 373.044 402.667 378.281 406.46 382.073C410.254 385.864 415.492 388.213 421.276 388.213H421.285C427.072 388.213 431.764 392.903 431.764 398.688H421.276C403.925 398.688 389.838 384.607 389.838 367.263C389.838 349.918 403.925 335.838 421.276 335.838C438.627 335.838 452.713 349.918 452.713 367.263V398.688H442.243Z" stroke="#C56CF0" stroke-opacity="0.5" stroke-linejoin="round"/>
<path fill-rule="evenodd" clip-rule="evenodd" d="M452.713 440.998L421.276 441.007C415.492 441.007 410.254 443.355 406.46 447.147C402.667 450.939 400.317 456.175 400.317 461.957C400.317 467.738 402.667 472.974 406.46 476.766C410.254 480.558 415.492 482.906 421.276 482.906C427.059 482.906 432.298 480.558 436.091 476.766C439.885 472.974 442.234 467.738 442.234 461.957V461.947C442.234 456.163 446.926 451.472 452.713 451.472V461.957C452.713 479.301 438.627 493.382 421.276 493.382C403.925 493.382 389.838 479.301 389.838 461.957C389.838 444.613 403.925 430.532 421.276 430.532H452.713V440.998Z" stroke="#C56CF0" stroke-opacity="0.5" stroke-linejoin="round"/>
<path fill-rule="evenodd" clip-rule="evenodd" d="M149.237 420.476H212.112V409.582H149.237V420.476Z" stroke="#C56CF0" stroke-opacity="0.5" stroke-linejoin="round"/>
<path fill-rule="evenodd" clip-rule="evenodd" d="M159.706 430.532L159.716 461.957C159.716 467.738 162.065 472.974 165.859 476.766C169.652 480.558 174.891 482.906 180.674 482.906C186.457 482.906 191.696 480.558 195.489 476.766C199.283 472.974 201.633 467.738 201.633 461.957C201.633 456.175 199.283 450.939 195.489 447.147C191.696 443.355 186.457 441.007 180.674 441.007H180.665C174.878 441.007 170.186 436.317 170.186 430.532H180.674C198.025 430.532 212.112 444.613 212.112 461.957C212.112 479.301 198.025 493.382 180.674 493.382C163.323 493.382 149.237 479.301 149.237 461.957V430.532H159.706Z" stroke="#C56CF0" stroke-opacity="0.5" stroke-linejoin="round"/>
<path fill-rule="evenodd" clip-rule="evenodd" d="M149.237 388.222L180.674 388.213C186.457 388.213 191.696 385.864 195.489 382.073C199.283 378.281 201.633 373.044 201.633 367.263C201.633 361.482 199.283 356.246 195.489 352.453C191.696 348.662 186.457 346.313 180.674 346.313C174.891 346.313 169.652 348.662 165.859 352.453C162.065 356.246 159.716 361.482 159.716 367.263V367.272C159.716 373.057 155.024 377.747 149.237 377.747V367.263C149.237 349.918 163.323 335.838 180.674 335.838C198.025 335.838 212.112 349.918 212.112 367.263C212.112 384.607 198.025 398.688 180.674 398.688H149.237V388.222Z" stroke="#C56CF0" stroke-opacity="0.5" stroke-linejoin="round"/>
<path fill-rule="evenodd" clip-rule="evenodd" d="M54.505 420.476H117.38V409.582H54.505V420.476Z" stroke="#C56CF0" stroke-opacity="0.5" stroke-linejoin="round"/>
<path fill-rule="evenodd" clip-rule="evenodd" d="M128.278 398.688H139.177V335.838H128.278V398.688Z" stroke="#C56CF0" stroke-opacity="0.5" stroke-linejoin="round"/>
<path fill-rule="evenodd" clip-rule="evenodd" d="M128.278 493.382H139.177V430.532H128.278V493.382Z" stroke="#C56CF0" stroke-opacity="0.5" stroke-linejoin="round"/>
<path fill-rule="evenodd" clip-rule="evenodd" d="M106.91 398.688L106.901 367.263C106.901 361.482 104.551 356.246 100.758 352.453C96.9644 348.662 91.7258 346.313 85.9424 346.313C80.1591 346.313 74.9205 348.662 71.1271 352.453C67.3335 356.246 64.9841 361.482 64.9841 367.263C64.9841 373.044 67.3335 378.281 71.1271 382.073C74.9205 385.864 80.1591 388.213 85.9424 388.213H85.9514C91.7389 388.213 96.4306 392.903 96.4306 398.688H85.9424C68.5916 398.688 54.505 384.607 54.505 367.263C54.505 349.918 68.5916 335.838 85.9424 335.838C103.293 335.838 117.38 349.918 117.38 367.263V398.688H106.91Z" stroke="#C56CF0" stroke-opacity="0.5" stroke-linejoin="round"/>
<path fill-rule="evenodd" clip-rule="evenodd" d="M117.38 440.998L85.9424 441.007C80.1591 441.007 74.9205 443.355 71.1271 447.147C67.3335 450.939 64.9841 456.175 64.9841 461.957C64.9841 467.738 67.3335 472.974 71.1271 476.766C74.9205 480.558 80.1591 482.906 85.9424 482.906C91.7258 482.906 96.9644 480.558 100.758 476.766C104.551 472.974 106.901 467.738 106.901 461.957V461.947C106.901 456.163 111.592 451.472 117.38 451.472V461.957C117.38 479.301 103.293 493.382 85.9424 493.382C68.5916 493.382 54.505 479.301 54.505 461.957C54.505 444.613 68.5916 430.532 85.9424 430.532H117.38V440.998Z" stroke="#C56CF0" stroke-opacity="0.5" stroke-linejoin="round"/>
<g clip-path="url(#clip2_271_949)">
<path fill-rule="evenodd" clip-rule="evenodd" d="M819.903 420.476H882.778V409.582H819.903V420.476Z" stroke="#C56CF0" stroke-opacity="0.5" stroke-linejoin="round"/>
<path fill-rule="evenodd" clip-rule="evenodd" d="M830.373 430.532L830.382 461.957C830.382 467.738 832.732 472.974 836.526 476.766C840.319 480.558 845.558 482.906 851.34 482.906C857.124 482.906 862.363 480.558 866.156 476.766C869.95 472.974 872.299 467.738 872.299 461.957C872.299 456.175 869.95 450.939 866.156 447.147C862.363 443.355 857.124 441.007 851.34 441.007H851.332C845.544 441.007 840.853 436.317 840.853 430.532H851.34C868.692 430.532 882.778 444.613 882.778 461.957C882.778 479.301 868.692 493.382 851.34 493.382C833.99 493.382 819.903 479.301 819.903 461.957V430.532H830.373Z" stroke="#C56CF0" stroke-opacity="0.5" stroke-linejoin="round"/>
<path fill-rule="evenodd" clip-rule="evenodd" d="M819.903 388.222L851.34 388.213C857.124 388.213 862.363 385.864 866.156 382.073C869.95 378.281 872.299 373.044 872.299 367.263C872.299 361.482 869.95 356.246 866.156 352.453C862.363 348.662 857.124 346.313 851.34 346.313C845.558 346.313 840.319 348.662 836.526 352.453C832.732 356.246 830.382 361.482 830.382 367.263V367.272C830.382 373.057 825.691 377.747 819.903 377.747V367.263C819.903 349.918 833.99 335.838 851.34 335.838C868.692 335.838 882.778 349.918 882.778 367.263C882.778 384.607 868.692 398.688 851.34 398.688H819.903V388.222Z" stroke="#C56CF0" stroke-opacity="0.5" stroke-linejoin="round"/>
<path fill-rule="evenodd" clip-rule="evenodd" d="M725.172 420.476H788.047V409.582H725.172V420.476Z" stroke="#C56CF0" stroke-opacity="0.5" stroke-linejoin="round"/>
<path fill-rule="evenodd" clip-rule="evenodd" d="M798.945 398.688H809.843V335.838H798.945V398.688Z" stroke="#C56CF0" stroke-opacity="0.5" stroke-linejoin="round"/>
<path fill-rule="evenodd" clip-rule="evenodd" d="M798.945 493.382H809.843V430.532H798.945V493.382Z" stroke="#C56CF0" stroke-opacity="0.5" stroke-linejoin="round"/>
<path fill-rule="evenodd" clip-rule="evenodd" d="M777.576 398.688L777.567 367.263C777.567 361.482 775.218 356.246 771.425 352.453C767.631 348.662 762.393 346.313 756.609 346.313C750.826 346.313 745.587 348.662 741.794 352.453C738 356.246 735.651 361.482 735.651 367.263C735.651 373.044 738 378.281 741.794 382.073C745.587 385.864 750.826 388.213 756.609 388.213H756.618C762.406 388.213 767.097 392.903 767.097 398.688H756.609C739.258 398.688 725.172 384.607 725.172 367.263C725.172 349.918 739.258 335.838 756.609 335.838C773.96 335.838 788.047 349.918 788.047 367.263V398.688H777.576Z" stroke="#C56CF0" stroke-opacity="0.5" stroke-linejoin="round"/>
<path fill-rule="evenodd" clip-rule="evenodd" d="M788.047 440.998L756.609 441.007C750.826 441.007 745.587 443.355 741.794 447.147C738 450.939 735.651 456.175 735.651 461.957C735.651 467.738 738 472.974 741.794 476.766C745.587 480.558 750.826 482.906 756.609 482.906C762.393 482.906 767.631 480.558 771.425 476.766C775.218 472.974 777.567 467.738 777.567 461.957V461.947C777.567 456.163 782.259 451.472 788.047 451.472V461.957C788.047 479.301 773.96 493.382 756.609 493.382C739.258 493.382 725.172 479.301 725.172 461.957C725.172 444.613 739.258 430.532 756.609 430.532H788.047V440.998Z" stroke="#C56CF0" stroke-opacity="0.5" stroke-linejoin="round"/>
</g>
<path fill-rule="evenodd" clip-rule="evenodd" d="M987.57 420.476H1050.45V409.582H987.57V420.476Z" stroke="#C56CF0" stroke-opacity="0.5" stroke-linejoin="round"/>
<path fill-rule="evenodd" clip-rule="evenodd" d="M998.04 430.532L998.049 461.957C998.049 467.738 1000.4 472.974 1004.19 476.766C1007.99 480.558 1013.22 482.906 1019.01 482.906C1024.79 482.906 1030.03 480.558 1033.82 476.766C1037.62 472.974 1039.97 467.738 1039.97 461.957C1039.97 456.175 1037.62 450.939 1033.82 447.147C1030.03 443.355 1024.79 441.007 1019.01 441.007H1019C1013.21 441.007 1008.52 436.317 1008.52 430.532H1019.01C1036.36 430.532 1050.45 444.613 1050.45 461.957C1050.45 479.301 1036.36 493.382 1019.01 493.382C1001.66 493.382 987.57 479.301 987.57 461.957V430.532H998.04Z" stroke="#C56CF0" stroke-opacity="0.5" stroke-linejoin="round"/>
<path fill-rule="evenodd" clip-rule="evenodd" d="M987.57 388.222L1019.01 388.213C1024.79 388.213 1030.03 385.864 1033.82 382.073C1037.62 378.281 1039.97 373.044 1039.97 367.263C1039.97 361.482 1037.62 356.246 1033.82 352.453C1030.03 348.662 1024.79 346.313 1019.01 346.313C1013.22 346.313 1007.99 348.662 1004.19 352.453C1000.4 356.246 998.049 361.482 998.049 367.263V367.272C998.049 373.057 993.358 377.747 987.57 377.747V367.263C987.57 349.918 1001.66 335.838 1019.01 335.838C1036.36 335.838 1050.45 349.918 1050.45 367.263C1050.45 384.607 1036.36 398.688 1019.01 398.688H987.57V388.222Z" stroke="#C56CF0" stroke-opacity="0.5" stroke-linejoin="round"/>
<path fill-rule="evenodd" clip-rule="evenodd" d="M892.838 420.476H955.713V409.582H892.838V420.476Z" stroke="#C56CF0" stroke-opacity="0.5" stroke-linejoin="round"/>
<path fill-rule="evenodd" clip-rule="evenodd" d="M966.612 398.688H977.51V335.838H966.612V398.688Z" stroke="#C56CF0" stroke-opacity="0.5" stroke-linejoin="round"/>
<path fill-rule="evenodd" clip-rule="evenodd" d="M966.612 493.382H977.51V430.532H966.612V493.382Z" stroke="#C56CF0" stroke-opacity="0.5" stroke-linejoin="round"/>
<path fill-rule="evenodd" clip-rule="evenodd" d="M945.243 398.688L945.234 367.263C945.234 361.482 942.885 356.246 939.091 352.453C935.298 348.662 930.059 346.313 924.276 346.313C918.493 346.313 913.254 348.662 909.46 352.453C905.667 356.246 903.318 361.482 903.318 367.263C903.318 373.044 905.667 378.281 909.46 382.073C913.254 385.864 918.493 388.213 924.276 388.213H924.285C930.072 388.213 934.764 392.903 934.764 398.688H924.276C906.925 398.688 892.838 384.607 892.838 367.263C892.838 349.918 906.925 335.838 924.276 335.838C941.627 335.838 955.713 349.918 955.713 367.263V398.688H945.243Z" stroke="#C56CF0" stroke-opacity="0.5" stroke-linejoin="round"/>
<path fill-rule="evenodd" clip-rule="evenodd" d="M955.713 440.998L924.276 441.007C918.493 441.007 913.254 443.355 909.46 447.147C905.667 450.939 903.318 456.175 903.318 461.957C903.318 467.738 905.667 472.974 909.46 476.766C913.254 480.558 918.493 482.906 924.276 482.906C930.059 482.906 935.298 480.558 939.091 476.766C942.885 472.974 945.234 467.738 945.234 461.957V461.947C945.234 456.163 949.926 451.472 955.713 451.472V461.957C955.713 479.301 941.627 493.382 924.276 493.382C906.925 493.382 892.838 479.301 892.838 461.957C892.838 444.613 906.925 430.532 924.276 430.532H955.713V440.998Z" stroke="#C56CF0" stroke-opacity="0.5" stroke-linejoin="round"/>
<path fill-rule="evenodd" clip-rule="evenodd" d="M1155.24 420.476H1218.11V409.582H1155.24V420.476Z" stroke="#C56CF0" stroke-opacity="0.5" stroke-linejoin="round"/>
<path fill-rule="evenodd" clip-rule="evenodd" d="M1165.71 430.532L1165.72 461.957C1165.72 467.738 1168.07 472.974 1171.86 476.766C1175.65 480.558 1180.89 482.906 1186.67 482.906C1192.46 482.906 1197.7 480.558 1201.49 476.766C1205.28 472.974 1207.63 467.738 1207.63 461.957C1207.63 456.175 1205.28 450.939 1201.49 447.147C1197.7 443.355 1192.46 441.007 1186.67 441.007H1186.67C1180.88 441.007 1176.19 436.317 1176.19 430.532H1186.67C1204.03 430.532 1218.11 444.613 1218.11 461.957C1218.11 479.301 1204.03 493.382 1186.67 493.382C1169.32 493.382 1155.24 479.301 1155.24 461.957V430.532H1165.71Z" stroke="#C56CF0" stroke-opacity="0.5" stroke-linejoin="round"/>
<path fill-rule="evenodd" clip-rule="evenodd" d="M1155.24 388.222L1186.67 388.213C1192.46 388.213 1197.7 385.864 1201.49 382.073C1205.28 378.281 1207.63 373.044 1207.63 367.263C1207.63 361.482 1205.28 356.246 1201.49 352.453C1197.7 348.662 1192.46 346.313 1186.67 346.313C1180.89 346.313 1175.65 348.662 1171.86 352.453C1168.07 356.246 1165.72 361.482 1165.72 367.263V367.272C1165.72 373.057 1161.02 377.747 1155.24 377.747V367.263C1155.24 349.918 1169.32 335.838 1186.67 335.838C1204.03 335.838 1218.11 349.918 1218.11 367.263C1218.11 384.607 1204.03 398.688 1186.67 398.688H1155.24V388.222Z" stroke="#C56CF0" stroke-opacity="0.5" stroke-linejoin="round"/>
<path fill-rule="evenodd" clip-rule="evenodd" d="M1060.51 420.476H1123.38V409.582H1060.51V420.476Z" stroke="#C56CF0" stroke-opacity="0.5" stroke-linejoin="round"/>
<path fill-rule="evenodd" clip-rule="evenodd" d="M1134.28 398.688H1145.18V335.838H1134.28V398.688Z" stroke="#C56CF0" stroke-opacity="0.5" stroke-linejoin="round"/>
<path fill-rule="evenodd" clip-rule="evenodd" d="M1134.28 493.382H1145.18V430.532H1134.28V493.382Z" stroke="#C56CF0" stroke-opacity="0.5" stroke-linejoin="round"/>
<path fill-rule="evenodd" clip-rule="evenodd" d="M1112.91 398.688L1112.9 367.263C1112.9 361.482 1110.55 356.246 1106.76 352.453C1102.96 348.662 1097.73 346.313 1091.94 346.313C1086.16 346.313 1080.92 348.662 1077.13 352.453C1073.33 356.246 1070.98 361.482 1070.98 367.263C1070.98 373.044 1073.33 378.281 1077.13 382.073C1080.92 385.864 1086.16 388.213 1091.94 388.213H1091.95C1097.74 388.213 1102.43 392.903 1102.43 398.688H1091.94C1074.59 398.688 1060.51 384.607 1060.51 367.263C1060.51 349.918 1074.59 335.838 1091.94 335.838C1109.29 335.838 1123.38 349.918 1123.38 367.263V398.688H1112.91Z" stroke="#C56CF0" stroke-opacity="0.5" stroke-linejoin="round"/>
<path fill-rule="evenodd" clip-rule="evenodd" d="M1123.38 440.998L1091.94 441.007C1086.16 441.007 1080.92 443.355 1077.13 447.147C1073.33 450.939 1070.98 456.175 1070.98 461.957C1070.98 467.738 1073.33 472.974 1077.13 476.766C1080.92 480.558 1086.16 482.906 1091.94 482.906C1097.73 482.906 1102.96 480.558 1106.76 476.766C1110.55 472.974 1112.9 467.738 1112.9 461.957V461.947C1112.9 456.163 1117.59 451.472 1123.38 451.472V461.957C1123.38 479.301 1109.29 493.382 1091.94 493.382C1074.59 493.382 1060.51 479.301 1060.51 461.957C1060.51 444.613 1074.59 430.532 1091.94 430.532H1123.38V440.998Z" stroke="#C56CF0" stroke-opacity="0.5" stroke-linejoin="round"/>
<g clip-path="url(#clip3_271_949)">
<path fill-rule="evenodd" clip-rule="evenodd" d="M1228.17 420.476H1291.05V409.582H1228.17V420.476Z" stroke="#C56CF0" stroke-opacity="0.5" stroke-linejoin="round"/>
<path fill-rule="evenodd" clip-rule="evenodd" d="M1280.58 398.688L1280.57 367.263C1280.57 361.482 1278.22 356.246 1274.42 352.453C1270.63 348.662 1265.39 346.313 1259.61 346.313C1253.83 346.313 1248.59 348.662 1244.79 352.453C1241 356.246 1238.65 361.482 1238.65 367.263C1238.65 373.044 1241 378.281 1244.79 382.073C1248.59 385.864 1253.83 388.213 1259.61 388.213H1259.62C1265.41 388.213 1270.1 392.903 1270.1 398.688H1259.61C1242.26 398.688 1228.17 384.607 1228.17 367.263C1228.17 349.918 1242.26 335.838 1259.61 335.838C1276.96 335.838 1291.05 349.918 1291.05 367.263V398.688H1280.58Z" stroke="#C56CF0" stroke-opacity="0.5" stroke-linejoin="round"/>
<path fill-rule="evenodd" clip-rule="evenodd" d="M1291.05 440.998L1259.61 441.007C1253.83 441.007 1248.59 443.355 1244.79 447.147C1241 450.939 1238.65 456.175 1238.65 461.957C1238.65 467.738 1241 472.974 1244.79 476.766C1248.59 480.558 1253.83 482.906 1259.61 482.906C1265.39 482.906 1270.63 480.558 1274.42 476.766C1278.22 472.974 1280.57 467.738 1280.57 461.957V461.947C1280.57 456.163 1285.26 451.472 1291.05 451.472V461.957C1291.05 479.301 1276.96 493.382 1259.61 493.382C1242.26 493.382 1228.17 479.301 1228.17 461.957C1228.17 444.613 1242.26 430.532 1259.61 430.532H1291.05V440.998Z" stroke="#C56CF0" stroke-opacity="0.5" stroke-linejoin="round"/>
</g>
</g>
<path d="M315.9 152V96.596H344.932C349.644 96.596 353.444 97.356 356.332 98.876C359.22 100.345 361.298 102.423 362.564 105.108C363.882 107.793 364.54 110.909 364.54 114.456C364.54 118.661 363.73 122.081 362.108 124.716C360.487 127.3 358.207 129.225 355.268 130.492C352.33 131.708 348.859 132.316 344.856 132.316H319.852V127.756H344.4C347.947 127.756 350.759 127.275 352.836 126.312C354.964 125.349 356.484 123.981 357.396 122.208C358.359 120.435 358.84 118.357 358.84 115.976V113.012C358.84 110.58 358.359 108.477 357.396 106.704C356.434 104.931 354.888 103.563 352.76 102.6C350.683 101.637 347.896 101.156 344.4 101.156H321.144V152H315.9ZM375.178 152V117.876C375.178 116.103 375.685 114.785 376.698 113.924C377.762 113.012 379.206 112.556 381.03 112.556H398.814V116.584H380.118V152H375.178ZM423.386 152.76C419.282 152.76 415.66 152.025 412.518 150.556C409.428 149.036 407.021 146.807 405.298 143.868C403.576 140.879 402.714 137.155 402.714 132.696V131.86C402.714 127.452 403.576 123.753 405.298 120.764C407.021 117.775 409.428 115.545 412.518 114.076C415.66 112.556 419.282 111.796 423.386 111.796C427.49 111.796 431.088 112.556 434.178 114.076C437.32 115.545 439.752 117.775 441.474 120.764C443.197 123.753 444.058 127.452 444.058 131.86V132.696C444.058 137.155 443.197 140.879 441.474 143.868C439.752 146.807 437.345 149.036 434.254 150.556C431.164 152.025 427.541 152.76 423.386 152.76ZM423.386 148.656C426.528 148.656 429.238 148.124 431.518 147.06C433.849 145.945 435.648 144.425 436.914 142.5C438.232 140.524 438.89 138.244 438.89 135.66V128.972C438.89 126.337 438.257 124.032 436.99 122.056C435.724 120.08 433.925 118.56 431.594 117.496C429.264 116.432 426.528 115.9 423.386 115.9C420.245 115.9 417.509 116.432 415.178 117.496C412.848 118.56 411.049 120.08 409.782 122.056C408.516 124.032 407.882 126.337 407.882 128.972V135.66C407.882 138.244 408.516 140.524 409.782 142.5C411.1 144.425 412.924 145.945 415.254 147.06C417.585 148.124 420.296 148.656 423.386 148.656ZM443.197 164.692V160.816H454.369V112.556H459.309V159.068C459.309 161.044 458.752 162.463 457.637 163.324C456.523 164.236 455.079 164.692 453.305 164.692H443.197ZM454.369 105.26V96.596H459.309V105.26H454.369ZM490.406 152.76C485.846 152.76 482.046 151.899 479.006 150.176C475.966 148.453 473.661 146.072 472.09 143.032C470.519 139.941 469.734 136.369 469.734 132.316V132.012C469.734 127.655 470.57 123.981 472.242 120.992C473.965 117.952 476.371 115.672 479.462 114.152C482.553 112.581 486.226 111.796 490.482 111.796C494.282 111.796 497.626 112.505 500.514 113.924C503.453 115.343 505.758 117.344 507.43 119.928C509.102 122.512 509.938 125.577 509.938 129.124V133.608H475.054C475.054 133.963 475.054 134.343 475.054 134.748C475.054 135.153 475.054 135.533 475.054 135.888C475.054 138.675 475.713 141.031 477.03 142.956C478.347 144.881 480.146 146.351 482.426 147.364C484.757 148.377 487.417 148.884 490.406 148.884C494.307 148.884 497.575 147.997 500.21 146.224C502.845 144.451 504.365 142.171 504.77 139.384H509.482C509.279 142.019 508.317 144.349 506.594 146.376C504.871 148.352 502.617 149.923 499.83 151.088C497.043 152.203 493.902 152.76 490.406 152.76ZM475.054 130.872L474.218 130.036H505.758L504.998 130.872V128.288C504.998 124.437 503.731 121.372 501.198 119.092C498.665 116.761 495.067 115.596 490.406 115.596C487.417 115.596 484.757 116.128 482.426 117.192C480.146 118.205 478.347 119.649 477.03 121.524C475.713 123.399 475.054 125.653 475.054 128.288V130.872ZM537.609 152.76C533.505 152.76 529.882 152.025 526.741 150.556C523.65 149.036 521.244 146.807 519.521 143.868C517.798 140.879 516.937 137.155 516.937 132.696V131.86C516.937 127.452 517.798 123.753 519.521 120.764C521.244 117.775 523.65 115.545 526.741 114.076C529.882 112.556 533.505 111.796 537.609 111.796C541.257 111.796 544.474 112.379 547.261 113.544C550.048 114.659 552.277 116.28 553.949 118.408C555.672 120.485 556.66 122.968 556.913 125.856H551.897C551.39 122.613 549.845 120.156 547.261 118.484C544.728 116.761 541.51 115.9 537.609 115.9C534.468 115.9 531.732 116.432 529.401 117.496C527.07 118.56 525.272 120.08 524.005 122.056C522.738 124.032 522.105 126.337 522.105 128.972V135.66C522.105 138.244 522.738 140.524 524.005 142.5C525.322 144.425 527.146 145.945 529.477 147.06C531.808 148.124 534.518 148.656 537.609 148.656C541.814 148.656 545.184 147.744 547.717 145.92C550.301 144.045 551.694 141.613 551.897 138.624H556.989C556.837 141.36 555.9 143.792 554.177 145.92C552.505 148.048 550.225 149.72 547.337 150.936C544.5 152.152 541.257 152.76 537.609 152.76ZM577.159 152C575.234 152 573.815 151.519 572.903 150.556C571.991 149.593 571.535 148.352 571.535 146.832V115.064H576.551V147.972H588.787V152H577.159ZM561.351 116.508V112.556H571.535V99.18H576.551V112.556H589.243V116.508H561.351ZM613.323 152V96.596H627.459V143.184L625.027 140.752H659.303V152H613.323ZM655.683 164.692V154.888H674.835V146.224L654.239 111.264H667.995L679.091 131.936L680.839 135.584H681.447L683.195 131.936L694.595 111.264H708.503L687.907 146.224V154.584C687.907 157.979 686.869 160.512 684.791 162.184C682.765 163.856 680.054 164.692 676.659 164.692H655.683ZM713.423 152V121.296C713.423 118.053 714.436 115.571 716.463 113.848C718.489 112.125 721.149 111.264 724.443 111.264H743.215V120.764H726.495V152H713.423ZM749.196 152V111.264H762.268V152H749.196ZM749.196 106.02V96.672H762.268V106.02H749.196ZM793.033 152.76C788.423 152.76 784.319 152 780.721 150.48C777.175 148.96 774.413 146.655 772.437 143.564C770.461 140.473 769.473 136.597 769.473 131.936V131.252C769.473 126.591 770.461 122.715 772.437 119.624C774.464 116.533 777.251 114.253 780.797 112.784C784.344 111.264 788.423 110.504 793.033 110.504C797.593 110.504 801.495 111.163 804.737 112.48C808.031 113.797 810.615 115.647 812.489 118.028C814.364 120.409 815.377 123.171 815.529 126.312H802.533C802.229 124.235 801.216 122.689 799.493 121.676C797.771 120.612 795.617 120.08 793.033 120.08C790.804 120.08 788.929 120.46 787.409 121.22C785.94 121.929 784.825 122.968 784.065 124.336C783.305 125.653 782.925 127.173 782.925 128.896V134.368C782.925 136.091 783.305 137.611 784.065 138.928C784.825 140.245 785.965 141.284 787.485 142.044C789.005 142.804 790.855 143.184 793.033 143.184C795.82 143.184 798.049 142.601 799.721 141.436C801.393 140.271 802.331 138.751 802.533 136.876H815.605C815.555 139.916 814.567 142.652 812.641 145.084C810.767 147.465 808.157 149.34 804.813 150.708C801.469 152.076 797.543 152.76 793.033 152.76ZM843.278 152.76C838.667 152.76 834.588 152 831.042 150.48C827.495 148.96 824.734 146.655 822.758 143.564C820.782 140.473 819.794 136.597 819.794 131.936V131.252C819.794 126.591 820.782 122.715 822.758 119.624C824.784 116.533 827.546 114.253 831.042 112.784C834.588 111.264 838.667 110.504 843.278 110.504C847.888 110.504 851.967 111.264 855.514 112.784C859.06 114.253 861.822 116.533 863.798 119.624C865.774 122.715 866.762 126.591 866.762 131.252V131.936C866.762 136.597 865.774 140.473 863.798 143.564C861.822 146.655 859.06 148.96 855.514 150.48C852.018 152 847.939 152.76 843.278 152.76ZM843.278 143.184C845.507 143.184 847.356 142.804 848.826 142.044C850.295 141.284 851.41 140.245 852.17 138.928C852.98 137.611 853.386 136.091 853.386 134.368V128.896C853.386 127.173 853.006 125.653 852.246 124.336C851.486 122.968 850.346 121.929 848.826 121.22C847.356 120.46 845.507 120.08 843.278 120.08C841.099 120.08 839.25 120.46 837.73 121.22C836.26 121.929 835.146 122.968 834.386 124.336C833.626 125.653 833.246 127.173 833.246 128.896V134.368C833.246 136.091 833.626 137.611 834.386 138.928C835.146 140.245 836.26 141.284 837.73 142.044C839.25 142.804 841.099 143.184 843.278 143.184ZM885.392 152L867.988 111.264H881.516L893.296 141.664H893.828L905.608 111.264H919.136L901.732 152H885.392ZM939.514 152.76C935.511 152.76 932.066 151.924 929.178 150.252C926.29 148.529 924.086 146.123 922.566 143.032C921.046 139.941 920.286 136.369 920.286 132.316V130.948C920.286 127.705 920.742 124.817 921.654 122.284C922.616 119.751 923.959 117.597 925.682 115.824C927.455 114.051 929.558 112.733 931.99 111.872C934.422 110.96 937.132 110.504 940.122 110.504C943.466 110.504 946.404 111.087 948.938 112.252C951.522 113.417 953.32 114.988 954.334 116.964H955.018L955.55 111.264H968.014V152H954.942L955.018 146.224H954.334C953.219 148.2 951.319 149.796 948.634 151.012C945.999 152.177 942.959 152.76 939.514 152.76ZM944.15 143.108C947.494 143.108 950.078 142.247 951.902 140.524C953.776 138.801 954.714 136.496 954.714 133.608V129.58C954.714 127.604 954.283 125.907 953.422 124.488C952.611 123.069 951.42 121.98 949.85 121.22C948.33 120.46 946.43 120.08 944.15 120.08C942.123 120.08 940.35 120.435 938.83 121.144C937.36 121.803 936.22 122.841 935.41 124.26C934.599 125.628 934.194 127.351 934.194 129.428V133.684C934.194 135.812 934.599 137.585 935.41 139.004C936.22 140.372 937.36 141.411 938.83 142.12C940.35 142.779 942.123 143.108 944.15 143.108Z" fill="#C56CF0"/>
<path d="M239.649 216V189.756H242.277V214.488L241.557 213.768H249.045V216H239.649ZM251.125 222.048V219.924H255.085V214.56L250.261 197.172H252.925L255.985 209.88L256.309 211.428H256.489L256.813 209.88L259.909 197.172H262.537L257.677 214.668V219.672C257.677 220.512 257.473 221.112 257.065 221.472C256.657 221.856 256.093 222.048 255.373 222.048H251.125ZM265.62 216V199.908C265.62 198.972 265.884 198.288 266.412 197.856C266.94 197.4 267.636 197.172 268.5 197.172H273.144V199.296H268.212V216H265.62ZM275.635 216V197.172H278.227V216H275.635ZM275.563 193.932V189.54H278.299V193.932H275.563ZM287.861 216.36C286.661 216.336 285.617 216.096 284.729 215.64C283.841 215.16 283.157 214.428 282.677 213.444C282.197 212.436 281.957 211.164 281.957 209.628V203.544C281.957 201.984 282.197 200.712 282.677 199.728C283.157 198.744 283.841 198.012 284.729 197.532C285.617 197.052 286.661 196.812 287.861 196.812C289.013 196.812 290.021 197.052 290.885 197.532C291.773 197.988 292.457 198.72 292.937 199.728C293.441 200.712 293.693 201.996 293.693 203.58H291.245C291.245 202.164 291.005 201.036 290.525 200.196C290.045 199.356 289.169 198.936 287.897 198.936C287.081 198.936 286.421 199.116 285.917 199.476C285.437 199.836 285.089 200.34 284.873 200.988C284.657 201.612 284.549 202.368 284.549 203.256V209.916C284.549 210.78 284.657 211.536 284.873 212.184C285.089 212.808 285.437 213.3 285.917 213.66C286.421 214.02 287.081 214.2 287.897 214.2C289.169 214.2 290.045 213.792 290.525 212.976C291.005 212.136 291.245 211.008 291.245 209.592H293.729C293.729 211.152 293.477 212.436 292.973 213.444C292.493 214.452 291.809 215.184 290.921 215.64C290.057 216.096 289.037 216.336 287.861 216.36ZM302.366 216.36C301.094 216.36 300.038 216.108 299.198 215.604C298.382 215.1 297.782 214.404 297.398 213.516C297.014 212.628 296.822 211.584 296.822 210.384H299.306C299.282 211.776 299.522 212.796 300.026 213.444C300.554 214.068 301.298 214.392 302.258 214.416C303.266 214.416 303.986 214.14 304.418 213.588C304.85 213.012 305.066 212.292 305.066 211.428C305.066 210.828 304.982 210.324 304.814 209.916C304.646 209.508 304.406 209.16 304.094 208.872C303.782 208.56 303.41 208.296 302.978 208.08C302.57 207.84 302.126 207.6 301.646 207.36C301.094 207.12 300.554 206.856 300.026 206.568C299.498 206.256 299.018 205.896 298.586 205.488C298.178 205.08 297.842 204.576 297.578 203.976C297.314 203.376 297.182 202.656 297.182 201.816C297.182 200.808 297.386 199.932 297.794 199.188C298.226 198.42 298.826 197.832 299.594 197.424C300.362 197.016 301.25 196.812 302.258 196.812C303.506 196.812 304.502 197.052 305.246 197.532C306.014 197.988 306.578 198.636 306.938 199.476C307.322 200.292 307.514 201.24 307.514 202.32H305.138C305.114 201.528 305.006 200.868 304.814 200.34C304.646 199.812 304.358 199.416 303.95 199.152C303.566 198.864 303.026 198.72 302.33 198.72C301.514 198.72 300.89 198.972 300.458 199.476C300.026 199.98 299.81 200.676 299.81 201.564C299.81 202.284 299.942 202.872 300.206 203.328C300.494 203.784 300.89 204.18 301.394 204.516C301.922 204.828 302.522 205.14 303.194 205.452C303.77 205.692 304.322 205.968 304.85 206.28C305.402 206.592 305.882 206.964 306.29 207.396C306.698 207.828 307.022 208.368 307.262 209.016C307.526 209.64 307.658 210.408 307.658 211.32C307.658 212.4 307.43 213.324 306.974 214.092C306.518 214.836 305.894 215.4 305.102 215.784C304.31 216.168 303.398 216.36 302.366 216.36ZM321.291 216.36C320.283 216.36 319.383 216.072 318.591 215.496C317.823 214.92 317.319 214.104 317.079 213.048H316.899L316.719 216H314.307V189.756H316.899V200.124H317.079C317.319 199.068 317.823 198.252 318.591 197.676C319.383 197.1 320.283 196.812 321.291 196.812C322.371 196.812 323.271 197.064 323.991 197.568C324.735 198.072 325.287 198.84 325.647 199.872C326.007 200.88 326.187 202.188 326.187 203.796V209.376C326.187 210.576 326.079 211.62 325.863 212.508C325.671 213.372 325.371 214.092 324.963 214.668C324.555 215.22 324.039 215.64 323.415 215.928C322.815 216.216 322.107 216.36 321.291 216.36ZM320.355 214.2C321.027 214.2 321.603 214.056 322.083 213.768C322.563 213.456 322.935 212.952 323.199 212.256C323.463 211.536 323.595 210.552 323.595 209.304V203.868C323.595 202.62 323.463 201.636 323.199 200.916C322.935 200.196 322.563 199.692 322.083 199.404C321.603 199.116 321.027 198.972 320.355 198.972C319.203 198.972 318.339 199.416 317.763 200.304C317.187 201.168 316.899 202.368 316.899 203.904V209.232C316.899 210.264 317.031 211.152 317.295 211.896C317.559 212.64 317.943 213.216 318.447 213.624C318.951 214.008 319.587 214.2 320.355 214.2ZM329.952 216V189.756H332.544V216H329.952ZM342.178 216.36C340.954 216.336 339.898 216.084 339.01 215.604C338.122 215.124 337.438 214.38 336.958 213.372C336.502 212.364 336.274 211.116 336.274 209.628V203.544C336.274 201.984 336.514 200.712 336.994 199.728C337.474 198.744 338.158 198.012 339.046 197.532C339.934 197.052 340.978 196.812 342.178 196.812C343.426 196.812 344.482 197.064 345.346 197.568C346.234 198.048 346.906 198.792 347.362 199.8C347.842 200.784 348.082 202.032 348.082 203.544V209.628C348.082 211.164 347.842 212.436 347.362 213.444C346.882 214.428 346.198 215.16 345.31 215.64C344.446 216.096 343.402 216.336 342.178 216.36ZM342.178 214.2C342.994 214.2 343.642 214.02 344.122 213.66C344.602 213.3 344.95 212.808 345.166 212.184C345.382 211.536 345.49 210.78 345.49 209.916V203.256C345.49 202.368 345.382 201.612 345.166 200.988C344.95 200.34 344.602 199.836 344.122 199.476C343.642 199.116 342.994 198.936 342.178 198.936C341.362 198.936 340.714 199.116 340.234 199.476C339.754 199.836 339.406 200.34 339.19 200.988C338.974 201.612 338.866 202.368 338.866 203.256V209.916C338.866 210.78 338.974 211.536 339.19 212.184C339.406 212.808 339.754 213.3 340.234 213.66C340.714 214.02 341.362 214.2 342.178 214.2ZM357.398 222.372C356.246 222.372 355.238 222.168 354.374 221.76C353.534 221.352 352.886 220.764 352.43 219.996C351.974 219.228 351.746 218.316 351.746 217.26H354.194C354.194 218.268 354.482 219.024 355.058 219.528C355.634 220.056 356.414 220.32 357.398 220.32C358.574 220.32 359.438 220.008 359.99 219.384C360.542 218.784 360.818 217.776 360.818 216.36V211.464H360.638C360.398 212.52 359.894 213.336 359.126 213.912C358.358 214.488 357.458 214.776 356.426 214.776C355.346 214.776 354.446 214.524 353.726 214.02C353.006 213.516 352.454 212.748 352.07 211.716C351.71 210.684 351.53 209.376 351.53 207.792V203.796C351.53 202.188 351.71 200.88 352.07 199.872C352.454 198.84 353.006 198.072 353.726 197.568C354.446 197.064 355.346 196.812 356.426 196.812C357.458 196.812 358.358 197.1 359.126 197.676C359.894 198.252 360.398 199.068 360.638 200.124H360.818L360.998 197.172H363.41V216.216C363.41 217.656 363.158 218.832 362.654 219.744C362.174 220.656 361.478 221.316 360.566 221.724C359.678 222.156 358.622 222.372 357.398 222.372ZM357.362 212.616C358.514 212.616 359.378 212.172 359.954 211.284C360.53 210.396 360.818 209.184 360.818 207.648V203.904C360.818 202.896 360.686 202.02 360.422 201.276C360.158 200.532 359.774 199.968 359.27 199.584C358.766 199.176 358.13 198.972 357.362 198.972C356.714 198.972 356.138 199.116 355.634 199.404C355.154 199.692 354.782 200.196 354.518 200.916C354.254 201.636 354.122 202.62 354.122 203.868V207.72C354.122 208.968 354.254 209.952 354.518 210.672C354.782 211.368 355.154 211.872 355.634 212.184C356.138 212.472 356.714 212.616 357.362 212.616ZM375.624 216.36C374.52 216.36 373.608 216.108 372.888 215.604C372.168 215.1 371.616 214.344 371.232 213.336C370.872 212.304 370.692 210.984 370.692 209.376V203.796C370.692 202.596 370.788 201.564 370.98 200.7C371.196 199.812 371.508 199.08 371.916 198.504C372.348 197.928 372.864 197.508 373.464 197.244C374.088 196.956 374.808 196.812 375.624 196.812C376.632 196.812 377.52 197.1 378.288 197.676C379.056 198.252 379.56 199.068 379.8 200.124H379.98L380.16 197.172H382.572V216H379.98V213.048H379.8C379.56 214.104 379.056 214.92 378.288 215.496C377.52 216.072 376.632 216.36 375.624 216.36ZM376.56 214.2C377.688 214.2 378.54 213.756 379.116 212.868C379.692 211.98 379.98 210.768 379.98 209.232V203.904C379.98 202.896 379.848 202.02 379.584 201.276C379.344 200.532 378.96 199.968 378.432 199.584C377.928 199.176 377.304 198.972 376.56 198.972C375.888 198.972 375.3 199.116 374.796 199.404C374.316 199.692 373.944 200.196 373.68 200.916C373.416 201.636 373.284 202.62 373.284 203.868V209.304C373.284 210.552 373.416 211.536 373.68 212.256C373.944 212.952 374.316 213.456 374.796 213.768C375.3 214.056 375.888 214.2 376.56 214.2ZM386.733 216V197.172H389.145L389.325 200.052H389.505C389.769 199.068 390.309 198.288 391.125 197.712C391.965 197.112 392.925 196.812 394.005 196.812C395.205 196.812 396.141 197.076 396.813 197.604C397.509 198.108 398.001 198.816 398.289 199.728C398.601 200.616 398.757 201.648 398.757 202.824V216H396.165V203.22C396.165 202.092 396.033 201.228 395.769 200.628C395.505 200.004 395.133 199.572 394.653 199.332C394.197 199.092 393.669 198.972 393.069 198.972C392.253 198.972 391.557 199.176 390.981 199.584C390.429 199.968 390.009 200.532 389.721 201.276C389.457 201.996 389.325 202.86 389.325 203.868V216H386.733ZM407.475 216.36C406.371 216.36 405.459 216.108 404.739 215.604C404.019 215.1 403.467 214.344 403.083 213.336C402.723 212.304 402.543 210.984 402.543 209.376V203.796C402.543 202.596 402.639 201.564 402.831 200.7C403.047 199.812 403.359 199.08 403.767 198.504C404.199 197.928 404.715 197.508 405.315 197.244C405.939 196.956 406.659 196.812 407.475 196.812C408.483 196.812 409.371 197.1 410.139 197.676C410.907 198.252 411.411 199.068 411.651 200.124H411.831V189.756H414.423V216H412.011L411.831 213.048H411.651C411.411 214.104 410.907 214.92 410.139 215.496C409.371 216.072 408.483 216.36 407.475 216.36ZM408.411 214.2C409.539 214.2 410.391 213.756 410.967 212.868C411.543 211.98 411.831 210.768 411.831 209.232V203.904C411.831 202.896 411.699 202.02 411.435 201.276C411.195 200.532 410.811 199.968 410.283 199.584C409.779 199.176 409.155 198.972 408.411 198.972C407.739 198.972 407.151 199.116 406.647 199.404C406.167 199.692 405.795 200.196 405.531 200.916C405.267 201.636 405.135 202.62 405.135 203.868V209.304C405.135 210.552 405.267 211.536 405.531 212.256C405.795 212.952 406.167 213.456 406.647 213.768C407.151 214.056 407.739 214.2 408.411 214.2ZM422.135 216V197.172H424.547L424.727 200.052H424.907C425.171 199.068 425.675 198.288 426.419 197.712C427.163 197.112 428.051 196.812 429.083 196.812C430.379 196.812 431.375 197.172 432.071 197.892C432.767 198.612 433.211 199.572 433.403 200.772H433.583C433.775 199.548 434.279 198.588 435.095 197.892C435.911 197.172 436.895 196.812 438.047 196.812C439.199 196.812 440.111 197.076 440.783 197.604C441.455 198.108 441.935 198.816 442.223 199.728C442.535 200.616 442.691 201.648 442.691 202.824V216H440.099V203.22C440.099 202.092 439.967 201.228 439.703 200.628C439.439 200.004 439.079 199.572 438.623 199.332C438.167 199.092 437.675 198.972 437.147 198.972C436.355 198.972 435.707 199.176 435.203 199.584C434.699 199.968 434.327 200.532 434.087 201.276C433.847 201.996 433.727 202.86 433.727 203.868V216H431.135V203.22C431.135 202.092 430.991 201.228 430.703 200.628C430.439 200.004 430.079 199.572 429.623 199.332C429.191 199.092 428.699 198.972 428.147 198.972C427.379 198.972 426.731 199.176 426.203 199.584C425.699 199.968 425.327 200.532 425.087 201.276C424.847 201.996 424.727 202.86 424.727 203.868V216H422.135ZM451.529 216.36C450.353 216.36 449.405 216.108 448.685 215.604C447.989 215.076 447.485 214.356 447.173 213.444C446.885 212.532 446.741 211.488 446.741 210.312V197.172H449.333V209.916C449.333 211.044 449.465 211.92 449.729 212.544C449.993 213.144 450.365 213.576 450.845 213.84C451.325 214.08 451.853 214.2 452.429 214.2C453.269 214.2 453.965 214.008 454.517 213.624C455.069 213.216 455.477 212.64 455.741 211.896C456.029 211.152 456.173 210.288 456.173 209.304V197.172H458.765V216H456.353L456.173 213.12H456.029C455.765 214.08 455.213 214.86 454.373 215.46C453.557 216.06 452.609 216.36 451.529 216.36ZM468.022 216.36C466.75 216.36 465.694 216.108 464.854 215.604C464.038 215.1 463.438 214.404 463.054 213.516C462.67 212.628 462.478 211.584 462.478 210.384H464.962C464.938 211.776 465.178 212.796 465.682 213.444C466.21 214.068 466.954 214.392 467.914 214.416C468.922 214.416 469.642 214.14 470.074 213.588C470.506 213.012 470.722 212.292 470.722 211.428C470.722 210.828 470.638 210.324 470.47 209.916C470.302 209.508 470.062 209.16 469.75 208.872C469.438 208.56 469.066 208.296 468.634 208.08C468.226 207.84 467.782 207.6 467.302 207.36C466.75 207.12 466.21 206.856 465.682 206.568C465.154 206.256 464.674 205.896 464.242 205.488C463.834 205.08 463.498 204.576 463.234 203.976C462.97 203.376 462.838 202.656 462.838 201.816C462.838 200.808 463.042 199.932 463.45 199.188C463.882 198.42 464.482 197.832 465.25 197.424C466.018 197.016 466.906 196.812 467.914 196.812C469.162 196.812 470.158 197.052 470.902 197.532C471.67 197.988 472.234 198.636 472.594 199.476C472.978 200.292 473.17 201.24 473.17 202.32H470.794C470.77 201.528 470.662 200.868 470.47 200.34C470.302 199.812 470.014 199.416 469.606 199.152C469.222 198.864 468.682 198.72 467.986 198.72C467.17 198.72 466.546 198.972 466.114 199.476C465.682 199.98 465.466 200.676 465.466 201.564C465.466 202.284 465.598 202.872 465.862 203.328C466.15 203.784 466.546 204.18 467.05 204.516C467.578 204.828 468.178 205.14 468.85 205.452C469.426 205.692 469.978 205.968 470.506 206.28C471.058 206.592 471.538 206.964 471.946 207.396C472.354 207.828 472.678 208.368 472.918 209.016C473.182 209.64 473.314 210.408 473.314 211.32C473.314 212.4 473.086 213.324 472.63 214.092C472.174 214.836 471.55 215.4 470.758 215.784C469.966 216.168 469.054 216.36 468.022 216.36ZM476.412 216V197.172H479.004V216H476.412ZM476.34 193.932V189.54H479.076V193.932H476.34ZM488.639 216.36C487.439 216.336 486.395 216.096 485.507 215.64C484.619 215.16 483.935 214.428 483.455 213.444C482.975 212.436 482.735 211.164 482.735 209.628V203.544C482.735 201.984 482.975 200.712 483.455 199.728C483.935 198.744 484.619 198.012 485.507 197.532C486.395 197.052 487.439 196.812 488.639 196.812C489.791 196.812 490.799 197.052 491.663 197.532C492.551 197.988 493.235 198.72 493.715 199.728C494.219 200.712 494.471 201.996 494.471 203.58H492.023C492.023 202.164 491.783 201.036 491.303 200.196C490.823 199.356 489.947 198.936 488.675 198.936C487.859 198.936 487.199 199.116 486.695 199.476C486.215 199.836 485.867 200.34 485.651 200.988C485.435 201.612 485.327 202.368 485.327 203.256V209.916C485.327 210.78 485.435 211.536 485.651 212.184C485.867 212.808 486.215 213.3 486.695 213.66C487.199 214.02 487.859 214.2 488.675 214.2C489.947 214.2 490.823 213.792 491.303 212.976C491.783 212.136 492.023 211.008 492.023 209.592H494.507C494.507 211.152 494.255 212.436 493.751 213.444C493.271 214.452 492.587 215.184 491.699 215.64C490.835 216.096 489.815 216.336 488.639 216.36ZM501.659 216V197.172H504.071L504.251 200.052H504.431C504.695 199.068 505.199 198.288 505.943 197.712C506.687 197.112 507.575 196.812 508.607 196.812C509.903 196.812 510.899 197.172 511.595 197.892C512.291 198.612 512.735 199.572 512.927 200.772H513.107C513.299 199.548 513.803 198.588 514.619 197.892C515.435 197.172 516.419 196.812 517.571 196.812C518.723 196.812 519.635 197.076 520.307 197.604C520.979 198.108 521.459 198.816 521.747 199.728C522.059 200.616 522.215 201.648 522.215 202.824V216H519.623V203.22C519.623 202.092 519.491 201.228 519.227 200.628C518.963 200.004 518.603 199.572 518.147 199.332C517.691 199.092 517.199 198.972 516.671 198.972C515.879 198.972 515.231 199.176 514.727 199.584C514.223 199.968 513.851 200.532 513.611 201.276C513.371 201.996 513.251 202.86 513.251 203.868V216H510.659V203.22C510.659 202.092 510.515 201.228 510.227 200.628C509.963 200.004 509.603 199.572 509.147 199.332C508.715 199.092 508.223 198.972 507.671 198.972C506.903 198.972 506.255 199.176 505.727 199.584C505.223 199.968 504.851 200.532 504.611 201.276C504.371 201.996 504.251 202.86 504.251 203.868V216H501.659ZM530.944 216.36C529.84 216.36 528.928 216.108 528.208 215.604C527.488 215.1 526.936 214.344 526.552 213.336C526.192 212.304 526.012 210.984 526.012 209.376V203.796C526.012 202.596 526.108 201.564 526.3 200.7C526.516 199.812 526.828 199.08 527.236 198.504C527.668 197.928 528.184 197.508 528.784 197.244C529.408 196.956 530.128 196.812 530.944 196.812C531.952 196.812 532.84 197.1 533.608 197.676C534.376 198.252 534.88 199.068 535.12 200.124H535.3L535.48 197.172H537.892V216H535.3V213.048H535.12C534.88 214.104 534.376 214.92 533.608 215.496C532.84 216.072 531.952 216.36 530.944 216.36ZM531.88 214.2C533.008 214.2 533.86 213.756 534.436 212.868C535.012 211.98 535.3 210.768 535.3 209.232V203.904C535.3 202.896 535.168 202.02 534.904 201.276C534.664 200.532 534.28 199.968 533.752 199.584C533.248 199.176 532.624 198.972 531.88 198.972C531.208 198.972 530.62 199.116 530.116 199.404C529.636 199.692 529.264 200.196 529 200.916C528.736 201.636 528.604 202.62 528.604 203.868V209.304C528.604 210.552 528.736 211.536 529 212.256C529.264 212.952 529.636 213.456 530.116 213.768C530.62 214.056 531.208 214.2 531.88 214.2ZM542.053 216V197.172H544.465L544.645 200.052H544.825C545.089 199.068 545.629 198.288 546.445 197.712C547.285 197.112 548.245 196.812 549.325 196.812C550.525 196.812 551.461 197.076 552.133 197.604C552.829 198.108 553.321 198.816 553.609 199.728C553.921 200.616 554.077 201.648 554.077 202.824V216H551.485V203.22C551.485 202.092 551.353 201.228 551.089 200.628C550.825 200.004 550.453 199.572 549.973 199.332C549.517 199.092 548.989 198.972 548.389 198.972C547.573 198.972 546.877 199.176 546.301 199.584C545.749 199.968 545.329 200.532 545.041 201.276C544.777 201.996 544.645 202.86 544.645 203.868V216H542.053ZM562.796 216.36C561.692 216.36 560.78 216.108 560.06 215.604C559.34 215.1 558.788 214.344 558.404 213.336C558.044 212.304 557.864 210.984 557.864 209.376V203.796C557.864 202.596 557.96 201.564 558.152 200.7C558.368 199.812 558.68 199.08 559.088 198.504C559.52 197.928 560.036 197.508 560.636 197.244C561.26 196.956 561.98 196.812 562.796 196.812C563.804 196.812 564.692 197.1 565.46 197.676C566.228 198.252 566.732 199.068 566.972 200.124H567.152L567.332 197.172H569.744V216H567.152V213.048H566.972C566.732 214.104 566.228 214.92 565.46 215.496C564.692 216.072 563.804 216.36 562.796 216.36ZM563.732 214.2C564.86 214.2 565.712 213.756 566.288 212.868C566.864 211.98 567.152 210.768 567.152 209.232V203.904C567.152 202.896 567.02 202.02 566.756 201.276C566.516 200.532 566.132 199.968 565.604 199.584C565.1 199.176 564.476 198.972 563.732 198.972C563.06 198.972 562.472 199.116 561.968 199.404C561.488 199.692 561.116 200.196 560.852 200.916C560.588 201.636 560.456 202.62 560.456 203.868V209.304C560.456 210.552 560.588 211.536 560.852 212.256C561.116 212.952 561.488 213.456 561.968 213.768C562.472 214.056 563.06 214.2 563.732 214.2ZM579.269 222.372C578.117 222.372 577.109 222.168 576.245 221.76C575.405 221.352 574.757 220.764 574.301 219.996C573.845 219.228 573.617 218.316 573.617 217.26H576.065C576.065 218.268 576.353 219.024 576.929 219.528C577.505 220.056 578.285 220.32 579.269 220.32C580.445 220.32 581.309 220.008 581.861 219.384C582.413 218.784 582.689 217.776 582.689 216.36V211.464H582.509C582.269 212.52 581.765 213.336 580.997 213.912C580.229 214.488 579.329 214.776 578.297 214.776C577.217 214.776 576.317 214.524 575.597 214.02C574.877 213.516 574.325 212.748 573.941 211.716C573.581 210.684 573.401 209.376 573.401 207.792V203.796C573.401 202.188 573.581 200.88 573.941 199.872C574.325 198.84 574.877 198.072 575.597 197.568C576.317 197.064 577.217 196.812 578.297 196.812C579.329 196.812 580.229 197.1 580.997 197.676C581.765 198.252 582.269 199.068 582.509 200.124H582.689L582.869 197.172H585.281V216.216C585.281 217.656 585.029 218.832 584.525 219.744C584.045 220.656 583.349 221.316 582.437 221.724C581.549 222.156 580.493 222.372 579.269 222.372ZM579.233 212.616C580.385 212.616 581.249 212.172 581.825 211.284C582.401 210.396 582.689 209.184 582.689 207.648V203.904C582.689 202.896 582.557 202.02 582.293 201.276C582.029 200.532 581.645 199.968 581.141 199.584C580.637 199.176 580.001 198.972 579.233 198.972C578.585 198.972 578.009 199.116 577.505 199.404C577.025 199.692 576.653 200.196 576.389 200.916C576.125 201.636 575.993 202.62 575.993 203.868V207.72C575.993 208.968 576.125 209.952 576.389 210.672C576.653 211.368 577.025 211.872 577.505 212.184C578.009 212.472 578.585 212.616 579.233 212.616ZM594.916 216.36C593.716 216.336 592.672 216.084 591.784 215.604C590.896 215.124 590.212 214.368 589.732 213.336C589.252 212.304 589.012 210.984 589.012 209.376V203.76C589.012 202.08 589.264 200.736 589.768 199.728C590.272 198.72 590.968 197.988 591.856 197.532C592.744 197.052 593.764 196.812 594.916 196.812C596.164 196.812 597.22 197.064 598.084 197.568C598.972 198.072 599.644 198.84 600.1 199.872C600.58 200.88 600.82 202.176 600.82 203.76V207.18H591.604C591.604 207.612 591.604 208.044 591.604 208.476C591.604 208.884 591.604 209.292 591.604 209.7C591.604 210.636 591.712 211.452 591.928 212.148C592.144 212.82 592.492 213.336 592.972 213.696C593.476 214.032 594.136 214.2 594.952 214.2C596.2 214.2 597.064 213.828 597.544 213.084C598.024 212.34 598.276 211.368 598.3 210.168H600.784C600.76 211.608 600.496 212.784 599.992 213.696C599.488 214.608 598.804 215.28 597.94 215.712C597.076 216.12 596.068 216.336 594.916 216.36ZM591.604 205.812L591.208 205.416H598.732L598.228 205.848V203.472C598.228 202.08 597.988 200.976 597.508 200.16C597.028 199.344 596.164 198.936 594.916 198.936C594.076 198.936 593.416 199.128 592.936 199.512C592.456 199.896 592.108 200.424 591.892 201.096C591.7 201.768 591.604 202.56 591.604 203.472V205.812ZM604.632 216V197.172H607.044L607.224 200.052H607.404C607.668 199.068 608.172 198.288 608.916 197.712C609.66 197.112 610.548 196.812 611.58 196.812C612.876 196.812 613.872 197.172 614.568 197.892C615.264 198.612 615.708 199.572 615.9 200.772H616.08C616.272 199.548 616.776 198.588 617.592 197.892C618.408 197.172 619.392 196.812 620.544 196.812C621.696 196.812 622.608 197.076 623.28 197.604C623.952 198.108 624.432 198.816 624.72 199.728C625.032 200.616 625.188 201.648 625.188 202.824V216H622.596V203.22C622.596 202.092 622.464 201.228 622.2 200.628C621.936 200.004 621.576 199.572 621.12 199.332C620.664 199.092 620.172 198.972 619.644 198.972C618.852 198.972 618.204 199.176 617.7 199.584C617.196 199.968 616.824 200.532 616.584 201.276C616.344 201.996 616.224 202.86 616.224 203.868V216H613.632V203.22C613.632 202.092 613.488 201.228 613.2 200.628C612.936 200.004 612.576 199.572 612.12 199.332C611.688 199.092 611.196 198.972 610.644 198.972C609.876 198.972 609.228 199.176 608.7 199.584C608.196 199.968 607.824 200.532 607.584 201.276C607.344 201.996 607.224 202.86 607.224 203.868V216H604.632ZM634.889 216.36C633.689 216.336 632.645 216.084 631.757 215.604C630.869 215.124 630.185 214.368 629.705 213.336C629.225 212.304 628.985 210.984 628.985 209.376V203.76C628.985 202.08 629.237 200.736 629.741 199.728C630.245 198.72 630.941 197.988 631.829 197.532C632.717 197.052 633.737 196.812 634.889 196.812C636.137 196.812 637.193 197.064 638.057 197.568C638.945 198.072 639.617 198.84 640.073 199.872C640.553 200.88 640.793 202.176 640.793 203.76V207.18H631.577C631.577 207.612 631.577 208.044 631.577 208.476C631.577 208.884 631.577 209.292 631.577 209.7C631.577 210.636 631.685 211.452 631.901 212.148C632.117 212.82 632.465 213.336 632.945 213.696C633.449 214.032 634.109 214.2 634.925 214.2C636.173 214.2 637.037 213.828 637.517 213.084C637.997 212.34 638.249 211.368 638.273 210.168H640.757C640.733 211.608 640.469 212.784 639.965 213.696C639.461 214.608 638.777 215.28 637.913 215.712C637.049 216.12 636.041 216.336 634.889 216.36ZM631.577 205.812L631.181 205.416H638.705L638.201 205.848V203.472C638.201 202.08 637.961 200.976 637.481 200.16C637.001 199.344 636.137 198.936 634.889 198.936C634.049 198.936 633.389 199.128 632.909 199.512C632.429 199.896 632.081 200.424 631.865 201.096C631.673 201.768 631.577 202.56 631.577 203.472V205.812ZM644.604 216V197.172H647.016L647.196 200.052H647.376C647.64 199.068 648.18 198.288 648.996 197.712C649.836 197.112 650.796 196.812 651.876 196.812C653.076 196.812 654.012 197.076 654.684 197.604C655.38 198.108 655.872 198.816 656.16 199.728C656.472 200.616 656.628 201.648 656.628 202.824V216H654.036V203.22C654.036 202.092 653.904 201.228 653.64 200.628C653.376 200.004 653.004 199.572 652.524 199.332C652.068 199.092 651.54 198.972 650.94 198.972C650.124 198.972 649.428 199.176 648.852 199.584C648.3 199.968 647.88 200.532 647.592 201.276C647.328 201.996 647.196 202.86 647.196 203.868V216H644.604ZM664.518 216C663.822 216 663.294 215.844 662.934 215.532C662.598 215.196 662.43 214.704 662.43 214.056V198.576H665.022V213.912H668.01V216H664.518ZM659.694 199.26V197.172H662.43V191.232H665.022V197.172H668.082V199.26H659.694ZM676.1 198.9H678.656V216H676.1V198.9ZM681.644 199.26H673.58V197.172H676.1V192.096C676.1 191.352 676.304 190.776 676.712 190.368C677.144 189.96 677.804 189.756 678.692 189.756H681.644V191.808H678.656V197.172H681.644V199.26ZM690.084 216.36C688.86 216.336 687.804 216.084 686.916 215.604C686.028 215.124 685.344 214.38 684.864 213.372C684.408 212.364 684.18 211.116 684.18 209.628V203.544C684.18 201.984 684.42 200.712 684.9 199.728C685.38 198.744 686.064 198.012 686.952 197.532C687.84 197.052 688.884 196.812 690.084 196.812C691.332 196.812 692.388 197.064 693.252 197.568C694.14 198.048 694.812 198.792 695.268 199.8C695.748 200.784 695.988 202.032 695.988 203.544V209.628C695.988 211.164 695.748 212.436 695.268 213.444C694.788 214.428 694.104 215.16 693.216 215.64C692.352 216.096 691.308 216.336 690.084 216.36ZM690.084 214.2C690.9 214.2 691.548 214.02 692.028 213.66C692.508 213.3 692.856 212.808 693.072 212.184C693.288 211.536 693.396 210.78 693.396 209.916V203.256C693.396 202.368 693.288 201.612 693.072 200.988C692.856 200.34 692.508 199.836 692.028 199.476C691.548 199.116 690.9 198.936 690.084 198.936C689.268 198.936 688.62 199.116 688.14 199.476C687.66 199.836 687.312 200.34 687.096 200.988C686.88 201.612 686.772 202.368 686.772 203.256V209.916C686.772 210.78 686.88 211.536 687.096 212.184C687.312 212.808 687.66 213.3 688.14 213.66C688.62 214.02 689.268 214.2 690.084 214.2ZM705.412 216.36C704.212 216.336 703.168 216.096 702.28 215.64C701.392 215.16 700.708 214.428 700.228 213.444C699.748 212.436 699.508 211.164 699.508 209.628V203.544C699.508 201.984 699.748 200.712 700.228 199.728C700.708 198.744 701.392 198.012 702.28 197.532C703.168 197.052 704.212 196.812 705.412 196.812C706.564 196.812 707.572 197.052 708.436 197.532C709.324 197.988 710.008 198.72 710.488 199.728C710.992 200.712 711.244 201.996 711.244 203.58H708.796C708.796 202.164 708.556 201.036 708.076 200.196C707.596 199.356 706.72 198.936 705.448 198.936C704.632 198.936 703.972 199.116 703.468 199.476C702.988 199.836 702.64 200.34 702.424 200.988C702.208 201.612 702.1 202.368 702.1 203.256V209.916C702.1 210.78 702.208 211.536 702.424 212.184C702.64 212.808 702.988 213.3 703.468 213.66C703.972 214.02 704.632 214.2 705.448 214.2C706.72 214.2 707.596 213.792 708.076 212.976C708.556 212.136 708.796 211.008 708.796 209.592H711.28C711.28 211.152 711.028 212.436 710.524 213.444C710.044 214.452 709.36 215.184 708.472 215.64C707.608 216.096 706.588 216.336 705.412 216.36ZM719.49 216.36C718.314 216.36 717.366 216.108 716.646 215.604C715.95 215.076 715.446 214.356 715.134 213.444C714.846 212.532 714.702 211.488 714.702 210.312V197.172H717.294V209.916C717.294 211.044 717.426 211.92 717.69 212.544C717.954 213.144 718.326 213.576 718.806 213.84C719.286 214.08 719.814 214.2 720.39 214.2C721.23 214.2 721.926 214.008 722.478 213.624C723.03 213.216 723.438 212.64 723.702 211.896C723.99 211.152 724.134 210.288 724.134 209.304V197.172H726.726V216H724.314L724.134 213.12H723.99C723.726 214.08 723.174 214.86 722.334 215.46C721.518 216.06 720.57 216.36 719.49 216.36ZM735.983 216.36C734.711 216.36 733.655 216.108 732.815 215.604C731.999 215.1 731.399 214.404 731.015 213.516C730.631 212.628 730.439 211.584 730.439 210.384H732.923C732.899 211.776 733.139 212.796 733.643 213.444C734.171 214.068 734.915 214.392 735.875 214.416C736.883 214.416 737.603 214.14 738.035 213.588C738.467 213.012 738.683 212.292 738.683 211.428C738.683 210.828 738.599 210.324 738.431 209.916C738.263 209.508 738.023 209.16 737.711 208.872C737.399 208.56 737.027 208.296 736.595 208.08C736.187 207.84 735.743 207.6 735.263 207.36C734.711 207.12 734.171 206.856 733.643 206.568C733.115 206.256 732.635 205.896 732.203 205.488C731.795 205.08 731.459 204.576 731.195 203.976C730.931 203.376 730.799 202.656 730.799 201.816C730.799 200.808 731.003 199.932 731.411 199.188C731.843 198.42 732.443 197.832 733.211 197.424C733.979 197.016 734.867 196.812 735.875 196.812C737.123 196.812 738.119 197.052 738.863 197.532C739.631 197.988 740.195 198.636 740.555 199.476C740.939 200.292 741.131 201.24 741.131 202.32H738.755C738.731 201.528 738.623 200.868 738.431 200.34C738.263 199.812 737.975 199.416 737.567 199.152C737.183 198.864 736.643 198.72 735.947 198.72C735.131 198.72 734.507 198.972 734.075 199.476C733.643 199.98 733.427 200.676 733.427 201.564C733.427 202.284 733.559 202.872 733.823 203.328C734.111 203.784 734.507 204.18 735.011 204.516C735.539 204.828 736.139 205.14 736.811 205.452C737.387 205.692 737.939 205.968 738.467 206.28C739.019 206.592 739.499 206.964 739.907 207.396C740.315 207.828 740.639 208.368 740.879 209.016C741.143 209.64 741.275 210.408 741.275 211.32C741.275 212.4 741.047 213.324 740.591 214.092C740.135 214.836 739.511 215.4 738.719 215.784C737.927 216.168 737.015 216.36 735.983 216.36ZM750.025 216.36C748.825 216.336 747.781 216.084 746.893 215.604C746.005 215.124 745.321 214.368 744.841 213.336C744.361 212.304 744.121 210.984 744.121 209.376V203.76C744.121 202.08 744.373 200.736 744.877 199.728C745.381 198.72 746.077 197.988 746.965 197.532C747.853 197.052 748.873 196.812 750.025 196.812C751.273 196.812 752.329 197.064 753.193 197.568C754.081 198.072 754.753 198.84 755.209 199.872C755.689 200.88 755.929 202.176 755.929 203.76V207.18H746.713C746.713 207.612 746.713 208.044 746.713 208.476C746.713 208.884 746.713 209.292 746.713 209.7C746.713 210.636 746.821 211.452 747.037 212.148C747.253 212.82 747.601 213.336 748.081 213.696C748.585 214.032 749.245 214.2 750.061 214.2C751.309 214.2 752.173 213.828 752.653 213.084C753.133 212.34 753.385 211.368 753.409 210.168H755.893C755.869 211.608 755.605 212.784 755.101 213.696C754.597 214.608 753.913 215.28 753.049 215.712C752.185 216.12 751.177 216.336 750.025 216.36ZM746.713 205.812L746.317 205.416H753.841L753.337 205.848V203.472C753.337 202.08 753.097 200.976 752.617 200.16C752.137 199.344 751.273 198.936 750.025 198.936C749.185 198.936 748.525 199.128 748.045 199.512C747.565 199.896 747.217 200.424 747.001 201.096C746.809 201.768 746.713 202.56 746.713 203.472V205.812ZM764.241 216.36C763.137 216.36 762.225 216.108 761.505 215.604C760.785 215.1 760.233 214.344 759.849 213.336C759.489 212.304 759.309 210.984 759.309 209.376V203.796C759.309 202.596 759.405 201.564 759.597 200.7C759.813 199.812 760.125 199.08 760.533 198.504C760.965 197.928 761.481 197.508 762.081 197.244C762.705 196.956 763.425 196.812 764.241 196.812C765.249 196.812 766.137 197.1 766.905 197.676C767.673 198.252 768.177 199.068 768.417 200.124H768.597V189.756H771.189V216H768.777L768.597 213.048H768.417C768.177 214.104 767.673 214.92 766.905 215.496C766.137 216.072 765.249 216.36 764.241 216.36ZM765.177 214.2C766.305 214.2 767.157 213.756 767.733 212.868C768.309 211.98 768.597 210.768 768.597 209.232V203.904C768.597 202.896 768.465 202.02 768.201 201.276C767.961 200.532 767.577 199.968 767.049 199.584C766.545 199.176 765.921 198.972 765.177 198.972C764.505 198.972 763.917 199.116 763.413 199.404C762.933 199.692 762.561 200.196 762.297 200.916C762.033 201.636 761.901 202.62 761.901 203.868V209.304C761.901 210.552 762.033 211.536 762.297 212.256C762.561 212.952 762.933 213.456 763.413 213.768C763.917 214.056 764.505 214.2 765.177 214.2ZM784.373 216.36C783.149 216.336 782.093 216.084 781.205 215.604C780.317 215.124 779.633 214.38 779.153 213.372C778.697 212.364 778.469 211.116 778.469 209.628V203.544C778.469 201.984 778.709 200.712 779.189 199.728C779.669 198.744 780.353 198.012 781.241 197.532C782.129 197.052 783.173 196.812 784.373 196.812C785.621 196.812 786.677 197.064 787.541 197.568C788.429 198.048 789.101 198.792 789.557 199.8C790.037 200.784 790.277 202.032 790.277 203.544V209.628C790.277 211.164 790.037 212.436 789.557 213.444C789.077 214.428 788.393 215.16 787.505 215.64C786.641 216.096 785.597 216.336 784.373 216.36ZM784.373 214.2C785.189 214.2 785.837 214.02 786.317 213.66C786.797 213.3 787.145 212.808 787.361 212.184C787.577 211.536 787.685 210.78 787.685 209.916V203.256C787.685 202.368 787.577 201.612 787.361 200.988C787.145 200.34 786.797 199.836 786.317 199.476C785.837 199.116 785.189 198.936 784.373 198.936C783.557 198.936 782.909 199.116 782.429 199.476C781.949 199.836 781.601 200.34 781.385 200.988C781.169 201.612 781.061 202.368 781.061 203.256V209.916C781.061 210.78 781.169 211.536 781.385 212.184C781.601 212.808 781.949 213.3 782.429 213.66C782.909 214.02 783.557 214.2 784.373 214.2ZM794.229 216V197.172H796.641L796.821 200.052H797.001C797.265 199.068 797.805 198.288 798.621 197.712C799.461 197.112 800.421 196.812 801.501 196.812C802.701 196.812 803.637 197.076 804.309 197.604C805.005 198.108 805.497 198.816 805.785 199.728C806.097 200.616 806.253 201.648 806.253 202.824V216H803.661V203.22C803.661 202.092 803.529 201.228 803.265 200.628C803.001 200.004 802.629 199.572 802.149 199.332C801.693 199.092 801.165 198.972 800.565 198.972C799.749 198.972 799.053 199.176 798.477 199.584C797.925 199.968 797.505 200.532 797.217 201.276C796.953 201.996 796.821 202.86 796.821 203.868V216H794.229ZM817.334 216L812.726 189.756H817.622L820.25 207.396L820.682 211.572H820.97L821.366 207.396L823.994 189.756H828.89L824.318 216H817.334ZM836.316 216.36C834.708 216.36 833.364 216.06 832.284 215.46C831.228 214.86 830.424 213.972 829.872 212.796C829.344 211.62 829.08 210.168 829.08 208.44V204.264C829.08 202.464 829.368 200.988 829.944 199.836C830.52 198.66 831.348 197.784 832.428 197.208C833.508 196.632 834.804 196.344 836.316 196.344C837.924 196.344 839.256 196.656 840.312 197.28C841.392 197.88 842.196 198.768 842.724 199.944C843.276 201.096 843.552 202.536 843.552 204.264V208.44C843.552 210.24 843.264 211.728 842.688 212.904C842.112 214.08 841.284 214.956 840.204 215.532C839.148 216.084 837.852 216.36 836.316 216.36ZM836.316 212.472C836.868 212.472 837.324 212.352 837.684 212.112C838.068 211.872 838.344 211.512 838.512 211.032C838.704 210.552 838.8 209.952 838.8 209.232V203.472C838.8 202.752 838.704 202.164 838.512 201.708C838.344 201.228 838.068 200.868 837.684 200.628C837.324 200.388 836.868 200.268 836.316 200.268C835.764 200.268 835.296 200.388 834.912 200.628C834.552 200.868 834.276 201.228 834.084 201.708C833.916 202.164 833.832 202.752 833.832 203.472V209.232C833.832 209.952 833.916 210.552 834.084 211.032C834.276 211.512 834.552 211.872 834.912 212.112C835.296 212.352 835.764 212.472 836.316 212.472ZM853.013 216.36C851.525 216.36 850.241 216.084 849.161 215.532C848.105 214.956 847.289 214.08 846.713 212.904C846.137 211.728 845.849 210.24 845.849 208.44V204.264C845.849 202.464 846.137 200.988 846.713 199.836C847.289 198.66 848.105 197.784 849.161 197.208C850.241 196.632 851.525 196.344 853.013 196.344C854.477 196.344 855.749 196.608 856.829 197.136C857.909 197.664 858.749 198.48 859.349 199.584C859.949 200.664 860.237 202.056 860.213 203.76H855.677C855.701 202.632 855.509 201.768 855.101 201.168C854.717 200.568 854.069 200.268 853.157 200.268C852.605 200.268 852.137 200.388 851.753 200.628C851.393 200.868 851.105 201.228 850.889 201.708C850.697 202.164 850.601 202.752 850.601 203.472V209.232C850.601 209.952 850.697 210.552 850.889 211.032C851.105 211.512 851.393 211.872 851.753 212.112C852.137 212.352 852.605 212.472 853.157 212.472C854.069 212.472 854.717 212.172 855.101 211.572C855.509 210.948 855.701 210.072 855.677 208.944H860.213C860.237 210.648 859.949 212.052 859.349 213.156C858.749 214.236 857.909 215.04 856.829 215.568C855.749 216.096 854.477 216.36 853.013 216.36ZM867.733 216.36C866.653 216.36 865.717 216.108 864.925 215.604C864.157 215.1 863.557 214.284 863.125 213.156C862.717 212.004 862.513 210.48 862.513 208.584V204.12C862.513 202.704 862.633 201.504 862.873 200.52C863.113 199.512 863.449 198.708 863.881 198.108C864.337 197.508 864.889 197.064 865.537 196.776C866.185 196.488 866.917 196.344 867.733 196.344C868.837 196.344 869.773 196.644 870.541 197.244C871.309 197.82 871.801 198.6 872.017 199.584H872.269L872.557 196.704H877.057V216H872.269V213.12H872.017C871.801 214.104 871.309 214.896 870.541 215.496C869.773 216.072 868.837 216.36 867.733 216.36ZM869.749 212.364C870.541 212.364 871.153 212.088 871.585 211.536C872.041 210.96 872.269 210.084 872.269 208.908V203.832C872.269 203.016 872.161 202.356 871.945 201.852C871.753 201.348 871.477 200.976 871.117 200.736C870.757 200.472 870.301 200.34 869.749 200.34C869.197 200.34 868.741 200.472 868.381 200.736C868.021 201 867.745 201.408 867.553 201.96C867.385 202.488 867.301 203.172 867.301 204.012V208.692C867.301 209.532 867.385 210.228 867.553 210.78C867.745 211.308 868.021 211.704 868.381 211.968C868.741 212.232 869.197 212.364 869.749 212.364ZM879.816 216V189.756H884.604V216H879.816ZM894.359 216.36C892.751 216.36 891.407 216.06 890.327 215.46C889.271 214.86 888.467 213.972 887.915 212.796C887.387 211.62 887.123 210.168 887.123 208.44V204.264C887.123 202.464 887.411 200.988 887.987 199.836C888.563 198.66 889.391 197.784 890.471 197.208C891.551 196.632 892.847 196.344 894.359 196.344C895.967 196.344 897.299 196.656 898.355 197.28C899.435 197.88 900.239 198.768 900.767 199.944C901.319 201.096 901.595 202.536 901.595 204.264V208.44C901.595 210.24 901.307 211.728 900.731 212.904C900.155 214.08 899.327 214.956 898.247 215.532C897.191 216.084 895.895 216.36 894.359 216.36ZM894.359 212.472C894.911 212.472 895.367 212.352 895.727 212.112C896.111 211.872 896.387 211.512 896.555 211.032C896.747 210.552 896.843 209.952 896.843 209.232V203.472C896.843 202.752 896.747 202.164 896.555 201.708C896.387 201.228 896.111 200.868 895.727 200.628C895.367 200.388 894.911 200.268 894.359 200.268C893.807 200.268 893.339 200.388 892.955 200.628C892.595 200.868 892.319 201.228 892.127 201.708C891.959 202.164 891.875 202.752 891.875 203.472V209.232C891.875 209.952 891.959 210.552 892.127 211.032C892.319 211.512 892.595 211.872 892.955 212.112C893.339 212.352 893.807 212.472 894.359 212.472ZM904.144 216V196.704H908.932V216H904.144ZM903.892 194.22V189.216H909.148V194.22H903.892ZM916.671 216.36C915.591 216.36 914.655 216.108 913.863 215.604C913.095 215.1 912.495 214.284 912.063 213.156C911.655 212.004 911.451 210.48 911.451 208.584V204.12C911.451 202.704 911.571 201.504 911.811 200.52C912.051 199.512 912.387 198.708 912.819 198.108C913.275 197.508 913.827 197.064 914.475 196.776C915.123 196.488 915.855 196.344 916.671 196.344C917.775 196.344 918.711 196.644 919.479 197.244C920.247 197.82 920.739 198.6 920.955 199.584H921.207V189.756H925.995V216H921.495L921.207 213.12H920.955C920.739 214.104 920.247 214.896 919.479 215.496C918.711 216.072 917.775 216.36 916.671 216.36ZM918.687 212.364C919.479 212.364 920.091 212.088 920.523 211.536C920.979 210.96 921.207 210.084 921.207 208.908V203.832C921.207 203.016 921.099 202.356 920.883 201.852C920.691 201.348 920.415 200.976 920.055 200.736C919.695 200.472 919.239 200.34 918.687 200.34C918.135 200.34 917.679 200.472 917.319 200.736C916.959 201 916.683 201.408 916.491 201.96C916.323 202.488 916.239 203.172 916.239 204.012V208.692C916.239 209.532 916.323 210.228 916.491 210.78C916.683 211.308 916.959 211.704 917.319 211.968C917.679 212.232 918.135 212.364 918.687 212.364ZM938.568 216.36C937.368 216.336 936.324 216.096 935.436 215.64C934.548 215.16 933.864 214.428 933.384 213.444C932.904 212.436 932.664 211.164 932.664 209.628V203.544C932.664 201.984 932.904 200.712 933.384 199.728C933.864 198.744 934.548 198.012 935.436 197.532C936.324 197.052 937.368 196.812 938.568 196.812C939.72 196.812 940.728 197.052 941.592 197.532C942.48 197.988 943.164 198.72 943.644 199.728C944.148 200.712 944.4 201.996 944.4 203.58H941.952C941.952 202.164 941.712 201.036 941.232 200.196C940.752 199.356 939.876 198.936 938.604 198.936C937.788 198.936 937.128 199.116 936.624 199.476C936.144 199.836 935.796 200.34 935.58 200.988C935.364 201.612 935.256 202.368 935.256 203.256V209.916C935.256 210.78 935.364 211.536 935.58 212.184C935.796 212.808 936.144 213.3 936.624 213.66C937.128 214.02 937.788 214.2 938.604 214.2C939.876 214.2 940.752 213.792 941.232 212.976C941.712 212.136 941.952 211.008 941.952 209.592H944.436C944.436 211.152 944.184 212.436 943.68 213.444C943.2 214.452 942.516 215.184 941.628 215.64C940.764 216.096 939.744 216.336 938.568 216.36ZM953.545 216.36C952.321 216.336 951.265 216.084 950.377 215.604C949.489 215.124 948.805 214.38 948.325 213.372C947.869 212.364 947.641 211.116 947.641 209.628V203.544C947.641 201.984 947.881 200.712 948.361 199.728C948.841 198.744 949.525 198.012 950.413 197.532C951.301 197.052 952.345 196.812 953.545 196.812C954.793 196.812 955.849 197.064 956.713 197.568C957.601 198.048 958.273 198.792 958.729 199.8C959.209 200.784 959.449 202.032 959.449 203.544V209.628C959.449 211.164 959.209 212.436 958.729 213.444C958.249 214.428 957.565 215.16 956.677 215.64C955.813 216.096 954.769 216.336 953.545 216.36ZM953.545 214.2C954.361 214.2 955.009 214.02 955.489 213.66C955.969 213.3 956.317 212.808 956.533 212.184C956.749 211.536 956.857 210.78 956.857 209.916V203.256C956.857 202.368 956.749 201.612 956.533 200.988C956.317 200.34 955.969 199.836 955.489 199.476C955.009 199.116 954.361 198.936 953.545 198.936C952.729 198.936 952.081 199.116 951.601 199.476C951.121 199.836 950.773 200.34 950.557 200.988C950.341 201.612 950.233 202.368 950.233 203.256V209.916C950.233 210.78 950.341 211.536 950.557 212.184C950.773 212.808 951.121 213.3 951.601 213.66C952.081 214.02 952.729 214.2 953.545 214.2ZM963.401 216V197.172H965.813L965.993 200.052H966.173C966.437 199.068 966.977 198.288 967.793 197.712C968.633 197.112 969.593 196.812 970.673 196.812C971.873 196.812 972.809 197.076 973.481 197.604C974.177 198.108 974.669 198.816 974.957 199.728C975.269 200.616 975.425 201.648 975.425 202.824V216H972.833V203.22C972.833 202.092 972.701 201.228 972.437 200.628C972.173 200.004 971.801 199.572 971.321 199.332C970.865 199.092 970.337 198.972 969.737 198.972C968.921 198.972 968.225 199.176 967.649 199.584C967.097 199.968 966.677 200.532 966.389 201.276C966.125 201.996 965.993 202.86 965.993 203.868V216H963.401ZM983.315 216C982.619 216 982.091 215.844 981.731 215.532C981.395 215.196 981.227 214.704 981.227 214.056V198.576H983.819V213.912H986.807V216H983.315ZM978.491 199.26V197.172H981.227V191.232H983.819V197.172H986.879V199.26H978.491ZM995.451 216.36C994.251 216.336 993.207 216.084 992.319 215.604C991.431 215.124 990.747 214.368 990.267 213.336C989.787 212.304 989.547 210.984 989.547 209.376V203.76C989.547 202.08 989.799 200.736 990.303 199.728C990.807 198.72 991.503 197.988 992.391 197.532C993.279 197.052 994.299 196.812 995.451 196.812C996.699 196.812 997.755 197.064 998.619 197.568C999.507 198.072 1000.18 198.84 1000.64 199.872C1001.12 200.88 1001.36 202.176 1001.36 203.76V207.18H992.139C992.139 207.612 992.139 208.044 992.139 208.476C992.139 208.884 992.139 209.292 992.139 209.7C992.139 210.636 992.247 211.452 992.463 212.148C992.679 212.82 993.027 213.336 993.507 213.696C994.011 214.032 994.671 214.2 995.487 214.2C996.735 214.2 997.599 213.828 998.079 213.084C998.559 212.34 998.811 211.368 998.835 210.168H1001.32C1001.3 211.608 1001.03 212.784 1000.53 213.696C1000.02 214.608 999.339 215.28 998.475 215.712C997.611 216.12 996.603 216.336 995.451 216.36ZM992.139 205.812L991.743 205.416H999.267L998.763 205.848V203.472C998.763 202.08 998.523 200.976 998.043 200.16C997.563 199.344 996.699 198.936 995.451 198.936C994.611 198.936 993.951 199.128 993.471 199.512C992.991 199.896 992.643 200.424 992.427 201.096C992.235 201.768 992.139 202.56 992.139 203.472V205.812ZM1005.17 216V197.172H1007.58L1007.76 200.052H1007.94C1008.2 199.068 1008.74 198.288 1009.56 197.712C1010.4 197.112 1011.36 196.812 1012.44 196.812C1013.64 196.812 1014.57 197.076 1015.25 197.604C1015.94 198.108 1016.43 198.816 1016.72 199.728C1017.03 200.616 1017.19 201.648 1017.19 202.824V216H1014.6V203.22C1014.6 202.092 1014.47 201.228 1014.2 200.628C1013.94 200.004 1013.57 199.572 1013.09 199.332C1012.63 199.092 1012.1 198.972 1011.5 198.972C1010.69 198.972 1009.99 199.176 1009.41 199.584C1008.86 199.968 1008.44 200.532 1008.15 201.276C1007.89 201.996 1007.76 202.86 1007.76 203.868V216H1005.17ZM1025.08 216C1024.38 216 1023.86 215.844 1023.5 215.532C1023.16 215.196 1022.99 214.704 1022.99 214.056V198.576H1025.58V213.912H1028.57V216H1025.08ZM1020.26 199.26V197.172H1022.99V191.232H1025.58V197.172H1028.64V199.26H1020.26ZM1036.6 216.36C1035.33 216.36 1034.28 216.108 1033.44 215.604C1032.62 215.1 1032.02 214.404 1031.64 213.516C1031.25 212.628 1031.06 211.584 1031.06 210.384H1033.54C1033.52 211.776 1033.76 212.796 1034.26 213.444C1034.79 214.068 1035.54 214.392 1036.5 214.416C1037.5 214.416 1038.22 214.14 1038.66 213.588C1039.09 213.012 1039.3 212.292 1039.3 211.428C1039.3 210.828 1039.22 210.324 1039.05 209.916C1038.88 209.508 1038.64 209.16 1038.33 208.872C1038.02 208.56 1037.65 208.296 1037.22 208.08C1036.81 207.84 1036.36 207.6 1035.88 207.36C1035.33 207.12 1034.79 206.856 1034.26 206.568C1033.74 206.256 1033.26 205.896 1032.82 205.488C1032.42 205.08 1032.08 204.576 1031.82 203.976C1031.55 203.376 1031.42 202.656 1031.42 201.816C1031.42 200.808 1031.62 199.932 1032.03 199.188C1032.46 198.42 1033.06 197.832 1033.83 197.424C1034.6 197.016 1035.49 196.812 1036.5 196.812C1037.74 196.812 1038.74 197.052 1039.48 197.532C1040.25 197.988 1040.82 198.636 1041.18 199.476C1041.56 200.292 1041.75 201.24 1041.75 202.32H1039.38C1039.35 201.528 1039.24 200.868 1039.05 200.34C1038.88 199.812 1038.6 199.416 1038.19 199.152C1037.8 198.864 1037.26 198.72 1036.57 198.72C1035.75 198.72 1035.13 198.972 1034.7 199.476C1034.26 199.98 1034.05 200.676 1034.05 201.564C1034.05 202.284 1034.18 202.872 1034.44 203.328C1034.73 203.784 1035.13 204.18 1035.63 204.516C1036.16 204.828 1036.76 205.14 1037.43 205.452C1038.01 205.692 1038.56 205.968 1039.09 206.28C1039.64 206.592 1040.12 206.964 1040.53 207.396C1040.94 207.828 1041.26 208.368 1041.5 209.016C1041.76 209.64 1041.9 210.408 1041.9 211.32C1041.9 212.4 1041.67 213.324 1041.21 214.092C1040.76 214.836 1040.13 215.4 1039.34 215.784C1038.55 216.168 1037.64 216.36 1036.6 216.36Z" fill="#C56CF0"/>
<path fill-rule="evenodd" clip-rule="evenodd" d="M542 378H605.488V367.5H542V378Z" fill="#C56CF0"/>
<path d="M594.921 357.009L594.912 325.505C594.912 319.709 592.54 314.458 588.709 310.657C584.878 306.856 579.588 304.5 573.747 304.5C567.907 304.5 562.617 306.856 558.786 310.657C554.955 314.458 552.582 319.709 552.582 325.505C552.582 331.301 554.955 336.551 558.786 340.352C562.617 344.153 567.907 346.505 573.747 346.505H573.756C579.601 346.505 584.339 351.209 584.339 357.009H573.747C556.226 357.009 542 342.893 542 325.505C542 308.116 556.226 294 573.747 294C591.269 294 605.495 308.116 605.495 325.505V357.009H594.921Z" fill="white"/>
<path d="M637.072 341.347C638.915 341.347 640.775 341.662 642.654 342.292C644.533 342.922 646.175 343.792 647.581 344.905L644.745 348.832C643.387 347.79 642.054 347.021 640.745 346.522C639.436 346.026 638.09 345.778 636.708 345.778C635.302 345.778 634.175 346.039 633.327 346.559C632.478 347.08 632.054 347.777 632.054 348.647C632.054 349.424 632.333 350.029 632.89 350.466C633.448 350.902 634.381 351.213 635.691 351.411L640.49 352.209C643.011 352.62 644.908 353.427 646.181 354.624C647.454 355.821 648.09 357.404 648.09 359.365C648.09 361.835 647.115 363.809 645.163 365.283C643.212 366.762 640.611 367.501 637.363 367.501C635.327 367.501 633.32 367.115 631.345 366.338C629.369 365.565 627.617 364.485 626.09 363.108L629.108 359.328C630.587 360.613 632.012 361.549 633.381 362.142C634.751 362.738 636.199 363.032 637.727 363.032C639.303 363.032 640.563 362.742 641.508 362.163C642.454 361.579 642.926 360.806 642.926 359.836C642.926 358.966 642.606 358.286 641.963 357.803C641.321 357.316 640.248 356.955 638.745 356.711L633.69 355.842C631.508 355.476 629.854 354.716 628.727 353.553C627.599 352.389 627.036 350.89 627.036 349.046C627.036 346.673 627.939 344.8 629.745 343.418C631.551 342.036 633.993 341.347 637.072 341.347ZM671.181 348.214V359.218C671.181 360.428 671.539 361.398 672.254 362.125C672.969 362.851 673.921 363.213 675.109 363.213C675.957 363.213 676.715 363.053 677.381 362.725C678.048 362.398 678.6 361.932 679.036 361.327V348.214H684.018V367.14H679.036V365.611C678.309 366.216 677.496 366.682 676.6 367.01C675.702 367.337 674.733 367.501 673.691 367.501C671.509 367.501 669.715 366.791 668.309 365.376C666.902 363.96 666.199 362.15 666.199 359.945V348.214H671.181ZM729 347.849C730.406 347.849 731.727 348.105 732.963 348.613C734.2 349.122 735.272 349.819 736.181 350.701C737.091 351.583 737.806 352.624 738.327 353.826C738.848 355.023 739.109 356.312 739.109 357.694C739.109 359.071 738.848 360.365 738.327 361.562C737.806 362.759 737.091 363.796 736.181 364.666C735.272 365.54 734.2 366.228 732.963 366.737C731.727 367.245 730.406 367.501 729 367.501C727.594 367.501 726.273 367.245 725.036 366.737C723.8 366.228 722.727 365.54 721.818 364.666C720.909 363.796 720.194 362.759 719.672 361.562C719.151 360.365 718.891 359.071 718.891 357.694C718.891 356.312 719.151 355.023 719.672 353.826C720.194 352.624 720.909 351.583 721.818 350.701C722.727 349.819 723.8 349.122 725.036 348.613C726.273 348.105 727.594 347.849 729 347.849ZM658.49 342.254V348.214H663.872V352.389H658.49V360.781C658.49 361.675 658.684 362.305 659.072 362.671C659.46 363.032 660.139 363.213 661.108 363.213C661.569 363.213 662.006 363.183 662.418 363.124C662.83 363.061 663.278 362.948 663.763 362.78V366.846C663.23 367.018 662.587 367.157 661.836 367.266C661.085 367.375 660.442 367.43 659.909 367.43C657.8 367.43 656.206 366.951 655.127 365.993C654.048 365.036 653.508 363.637 653.508 361.797V352.389H649.618V348.214H653.508V343.38L658.49 342.254ZM706.963 340.621V367.14H702.054V365.577C701.303 366.182 700.466 366.636 699.545 366.938C698.624 367.241 697.666 367.392 696.672 367.392C695.339 367.392 694.085 367.14 692.909 366.627C691.733 366.119 690.709 365.43 689.836 364.557C688.963 363.687 688.279 362.658 687.782 361.47C687.285 360.285 687.036 359.013 687.036 357.656C687.036 356.299 687.29 355.031 687.8 353.842C688.309 352.658 689 351.629 689.872 350.755C690.745 349.882 691.781 349.197 692.981 348.701C694.181 348.206 695.46 347.958 696.818 347.958C697.739 347.958 698.642 348.084 699.527 348.34C700.412 348.592 701.23 348.962 701.981 349.449V341.708L706.963 340.621ZM715.872 348.214V367.14H710.89V348.214H715.872ZM729 352.171C727.545 352.171 726.309 352.704 725.29 353.771C724.273 354.834 723.763 356.144 723.763 357.694C723.763 359.218 724.273 360.516 725.29 361.579C726.309 362.646 727.545 363.179 729 363.179C730.454 363.179 731.691 362.646 732.709 361.579C733.727 360.516 734.236 359.218 734.236 357.694C734.236 356.144 733.727 354.834 732.709 353.771C731.691 352.704 730.454 352.171 729 352.171ZM697.473 352.171C695.897 352.171 694.582 352.7 693.527 353.75C692.473 354.804 691.945 356.106 691.945 357.656C691.945 359.181 692.478 360.478 693.545 361.545C694.612 362.608 695.921 363.141 697.473 363.141C698.394 363.141 699.236 362.986 699.999 362.671C700.763 362.356 701.424 361.906 701.981 361.327V353.952C701.448 353.393 700.787 352.96 699.999 352.645C699.212 352.33 698.369 352.171 697.473 352.171ZM713.364 340.293C714.139 340.293 714.806 340.57 715.363 341.129C715.921 341.687 716.2 342.351 716.2 343.128C716.2 343.901 715.921 344.569 715.363 345.123C714.806 345.682 714.139 345.959 713.364 345.959C712.587 345.959 711.921 345.682 711.363 345.123C710.806 344.569 710.527 343.901 710.527 343.128C710.527 342.351 710.806 341.687 711.363 341.129C711.921 340.57 712.587 340.293 713.364 340.293ZM698.667 304.5C700.071 304.5 701.369 304.681 702.561 305.046C703.752 305.407 704.774 305.916 705.627 306.567C706.48 307.218 707.145 307.995 707.621 308.898C708.098 309.801 708.336 310.788 708.336 311.867C708.336 313.169 707.985 314.353 707.283 315.42C706.58 316.483 705.627 317.327 704.423 317.957C705.853 318.457 707 319.234 707.866 320.284C708.731 321.338 709.164 322.539 709.164 323.892C709.164 324.996 708.9 326.021 708.374 326.975C707.847 327.928 707.113 328.743 706.173 329.419C705.232 330.095 704.116 330.629 702.824 331.015C701.532 331.406 700.121 331.599 698.591 331.599C696.56 331.599 694.628 331.233 692.797 330.507C690.966 329.78 689.436 328.781 688.207 327.5L691.669 324.308C692.722 325.358 693.763 326.097 694.791 326.525C695.82 326.949 697.074 327.164 698.554 327.164C700.159 327.164 701.463 326.823 702.467 326.147C703.47 325.471 703.971 324.593 703.971 323.518C703.971 322.539 703.514 321.762 702.598 321.187C701.683 320.612 700.472 320.322 698.968 320.322H696.56V316.227H698.441C699.796 316.227 700.924 315.861 701.827 315.135C702.73 314.408 703.181 313.497 703.181 312.392C703.181 311.418 702.736 310.603 701.846 309.952C700.956 309.297 699.833 308.973 698.479 308.973C697.199 308.973 696.071 309.204 695.092 309.666C694.114 310.132 693.061 310.926 691.932 312.056L688.433 308.86C689.712 307.507 691.255 306.441 693.061 305.664C694.867 304.887 696.735 304.5 698.667 304.5ZM636.399 304.912V331.221H631.245V310.137L626.09 312.241V307.772L633.126 304.912H636.399ZM655.437 304.912L666.122 331.221H660.215L657.544 324.308H646.671L643.962 331.221H638.28L649.116 304.912H655.437ZM676.468 304.576C677.873 304.576 679.171 304.769 680.363 305.16C681.554 305.546 682.57 306.092 683.41 306.793C684.251 307.495 684.903 308.347 685.366 309.347C685.831 310.351 686.063 311.439 686.063 312.619C686.063 314.122 685.686 315.513 684.934 316.789C684.182 318.066 682.877 319.532 681.021 321.187L674.587 326.899H686.401V331.221H667.401V327.613L677.785 318.331C678.964 317.251 679.805 316.306 680.306 315.492C680.808 314.681 681.059 313.833 681.059 312.955C681.059 311.804 680.607 310.851 679.704 310.099C678.801 309.347 677.673 308.973 676.318 308.973C675.064 308.973 673.891 309.225 672.8 309.725C671.709 310.225 670.524 311.052 669.245 312.203L666.348 308.746C667.878 307.369 669.496 306.327 671.201 305.626C672.907 304.924 674.663 304.576 676.468 304.576ZM652.163 310.25L648.364 319.948H655.888L652.163 310.25Z" fill="white"/>
</g>
<defs>
<clipPath id="clip0_271_949">
<rect width="1280" height="440" fill="white"/>
</clipPath>
<clipPath id="clip1_271_949">
<rect width="167.667" height="167.6" fill="white" transform="translate(221.333 335)"/>
</clipPath>
<clipPath id="clip2_271_949">
<rect width="167.667" height="167.6" fill="white" transform="translate(724.333 335)"/>
</clipPath>
<clipPath id="clip3_271_949">
<rect width="167.667" height="167.6" fill="white" transform="translate(1227.33 335)"/>
</clipPath>
</defs>
</svg>
