<?xml version="1.0" standalone="no"?>
<!DOCTYPE svg PUBLIC "-//W3C//DTD SVG 20010904//EN"
 "http://www.w3.org/TR/2001/REC-SVG-20010904/DTD/svg10.dtd">
<svg version="1.0" xmlns="http://www.w3.org/2000/svg"
 width="700.000000pt" height="700.000000pt" viewBox="0 0 700.000000 700.000000"
 preserveAspectRatio="xMidYMid meet">
<metadata>
Created by potrace 1.14, written by Peter Selinger 2001-2017
</metadata>
<g transform="translate(0.000000,700.000000) scale(0.100000,-0.100000)"
fill="#000000" stroke="none">
<path d="M0 3500 l0 -3500 3500 0 3500 0 0 3500 0 3500 -3500 0 -3500 0 0
-3500z m3807 1971 c652 -144 1127 -673 1193 -1330 6 -61 10 -414 10 -872 l0
-769 -255 0 -254 0 -4 828 c-3 950 2 897 -102 1107 -99 204 -252 357 -450 455
-276 136 -588 142 -862 15 -434 -201 -664 -677 -553 -1145 28 -117 113 -285
195 -387 187 -233 489 -373 803 -373 114 0 284 -84 358 -176 71 -89 114 -196
114 -281 l0 -43 -319 0 c-271 0 -336 3 -434 20 -563 96 -1035 514 -1192 1057
-80 275 -80 571 0 846 143 495 558 898 1058 1028 152 40 232 49 422 44 132 -2
204 -9 272 -24z m1201 -3718 l-3 -248 -1505 0 -1505 0 -3 248 -2 247 1510 0
1510 0 -2 -247z"/>
</g>
</svg>
