<?xml version="1.0" encoding="UTF-8"?>
<svg width="200px" height="200px" viewBox="0 0 200 200" version="1.1" xmlns="http://www.w3.org/2000/svg" xmlns:xlink="http://www.w3.org/1999/xlink">
    <title>PatternLyricova</title>
    <g id="PatternLyricova" stroke="none" stroke-width="1" fill="none" fill-rule="evenodd" stroke-linejoin="round">
        <g id="Group" transform="translate(1.000000, 1.000000)" stroke="#C56CF0">
            <polygon id="Stroke-30" points="113 101 188 101 188 88 113 88"></polygon>
            <path d="M125.488827,113 L125.499833,150.4995 C125.499833,157.398271 128.302365,163.646687 132.827839,168.172161 C137.352313,172.696634 143.601729,175.499166 150.4995,175.499166 C157.398271,175.499166 163.647687,172.696634 168.172161,168.172161 C172.697635,163.646687 175.500167,157.398271 175.500167,150.4995 C175.500167,143.600728 172.697635,137.352313 168.172161,132.826839 C163.647687,128.302365 157.398271,125.499833 150.4995,125.499833 L150.489494,125.499833 C143.58572,125.499833 137.989661,119.902774 137.989661,113 L150.4995,113 C171.196814,113 188,129.803186 188,150.4995 C188,171.196814 171.196814,188 150.4995,188 C129.803186,188 113,171.196814 113,150.4995 L113,113 L125.488827,113 Z" id="Stroke-134"></path>
            <path d="M113,62.5110062 L150.4995,62.5 C157.398271,62.5 163.647687,59.6974306 168.172161,55.1728968 C172.697635,50.6473625 175.500167,44.3988634 175.500167,37.5 C175.500167,30.6011366 172.697635,24.3526375 168.172161,19.8271032 C163.647687,15.3025694 157.398271,12.5 150.4995,12.5 C143.601729,12.5 137.352313,15.3025694 132.827839,19.8271032 C128.302365,24.3526375 125.499833,30.6011366 125.499833,37.5 L125.499833,37.5110062 C125.499833,44.4138718 119.903774,50.0110062 113,50.0110062 L113,37.5 C113,16.8024093 129.803186,0 150.4995,0 C171.196814,0 188,16.8024093 188,37.5 C188,58.1965901 171.196814,75 150.4995,75 L113,75 L113,62.5110062 Z" id="Stroke-162"></path>
            <polygon id="Stroke-218" points="0 101 75 101 75 88 0 88"></polygon>
            <polygon id="Stroke-226" points="88 75 101 75 101 0 88 0"></polygon>
            <polygon id="Stroke-234" points="88 188 101 188 101 113 88 113"></polygon>
            <path d="M62.5106558,75 L62.49995,37.5 C62.49995,30.6011366 59.6975142,24.3526375 55.1724345,19.8271032 C50.6474548,15.3025694 44.3986304,12.5 37.49995,12.5 C30.6013696,12.5 24.3525452,15.3025694 19.8275655,19.8271032 C15.3024858,24.3526375 12.49995,30.6011366 12.49995,37.5 C12.49995,44.3988634 15.3024858,50.6473625 19.8275655,55.1728968 C24.3525452,59.6974306 30.6013696,62.5 37.49995,62.5 L37.5106558,62.5 C44.414239,62.5 50.0107059,68.0971344 50.0107059,75 L37.49995,75 C16.8032082,75 0,58.1965901 0,37.5 C0,16.8024093 16.8032082,0 37.49995,0 C58.1967918,0 75,16.8024093 75,37.5 L75,75 L62.5106558,75 Z" id="Stroke-242"></path>
            <path d="M75,125.488827 L37.49995,125.499833 C30.6013696,125.499833 24.3525452,128.302365 19.8275655,132.826839 C15.3024858,137.352313 12.49995,143.600728 12.49995,150.4995 C12.49995,157.398271 15.3024858,163.646687 19.8275655,168.172161 C24.3525452,172.696634 30.6013696,175.499166 37.49995,175.499166 C44.3986304,175.499166 50.6474548,172.696634 55.1724345,168.172161 C59.6975142,163.646687 62.49995,157.398271 62.49995,150.4995 L62.49995,150.488494 C62.49995,143.58572 68.0964168,137.98866 75,137.98866 L75,150.4995 C75,171.196814 58.1967918,188 37.49995,188 C16.8032082,188 0,171.196814 0,150.4995 C0,129.803186 16.8032082,113 37.49995,113 L75,113 L75,125.488827 Z" id="Stroke-254"></path>
        </g>
    </g>
</svg>